<?xml version="1.0" standalone="no"?>
<!DOCTYPE svg PUBLIC "-//W3C//DTD SVG 1.1//EN" "http://www.w3.org/Graphics/SVG/1.1/DTD/svg11.dtd" >
<svg xmlns="http://www.w3.org/2000/svg">
<metadata></metadata>
<defs>
<font id="belta_regularregular" horiz-adv-x="598" >
<font-face units-per-em="2048" ascent="1638" descent="-410" />
<missing-glyph horiz-adv-x="507" />
<glyph horiz-adv-x="2048" />
<glyph horiz-adv-x="2048" />
<glyph unicode="&#xd;" horiz-adv-x="507" />
<glyph unicode=" "  horiz-adv-x="507" />
<glyph unicode="&#x09;" horiz-adv-x="507" />
<glyph unicode="&#xa0;" horiz-adv-x="507" />
<glyph unicode="!" horiz-adv-x="292" d="M-10 1419l6 29v14q34 19 65 19l13 -33l-6 -6v-6l10 -43l-4 -19l4 -14h-4l4 -6v-6l-4 -23h4l-4 -4v-6l4 -33l-4 -6l4 -4v-6l-4 -6l4 -7v-49l6 -33l-6 -6l10 -49l-4 -6v-10q2 -82 10 -82l-6 -6l12 -105l-6 -20h6l-6 -6v-7l6 -16h-6l12 -72l-6 -6v-4l6 -78v-10l5 -6v-4h-5 l11 -35l-6 -4l12 -84l-6 -4v-6l6 -23l-6 -6l26 -246l-4 -6l4 -39v-6q0 -53 -49 -76q-18 4 -33 33l7 6q-10 98 -17 99l4 6q-10 49 -10 131l-4 28h4l-4 5v18l-12 236l-6 6h6l-6 4v16l6 6v6h-6l6 5q-4 45 -11 45l5 6v26l-5 6v5h5l-5 6v49q0 98 -12 127l6 6l-6 4h6l-6 6v10h6 l-12 89l6 6l-10 94l4 20l-4 7h4l-4 6v120zM74 49q12 37 32 45h17l27 -6l6 6q2 -23 16 -22l4 6v-6l-4 -23l4 -20l-49 -29q-53 16 -53 49z" />
<glyph unicode="&#x22;" horiz-adv-x="329" d="M39 1491q0 33 39 33q53 -20 53 -84v-4h-4l4 -6v-7l-4 -6l16 -59q-20 -16 -39 -17q-49 0 -65 150zM143 1511l27 27q66 -20 66 -76h-5l5 -6v-6l-5 -4l5 -6v-4l-5 -6v-7l5 -6q0 -37 -33 -65l-4 6h-13l-6 -6h-4l-6 16l6 6q-16 0 -33 137z" />
<glyph unicode="#" horiz-adv-x="1335" d="M0 604q0 25 231 39h11l6 6h6v-6l16 6v23l-6 6v4h6l-6 6v60l-6 6v6h6l-6 6v10l6 23l-6 4v6l6 78v33l-6 4l6 6v33l-6 6q12 35 12 114l4 7h-4l4 6v4l-4 28h4l-4 5v32l4 6v7l-4 6h4l-4 4v29l4 4v6h-4l4 16l-4 6v4l4 7v6l-4 6v4l37 39l6 -6h39l6 -56v-10l-6 -6v-4h6l-6 -6v-56 l-6 -6l6 -4v-10l-6 -6l6 -6l-6 -39v-92l-4 -7l4 -6v-43l-4 -6l4 -6v-92l-4 -6l4 -6v-66l6 -4v-6h-6l6 -6v-62l6 -4v-6h-6l6 -27l4 4h13l6 -4l190 23v-6l29 6v27l-6 6v4l6 6l-6 4h6l-10 55h4l-16 107l6 4l-6 65v78l-7 6v4h7l-7 7v166l-4 59q16 33 66 33q27 0 26 -66v-153 l7 -39h-7l7 -7v-26l-7 -6l7 -4v-62l6 -6l-6 -4l26 -211l-4 -4v-6l4 -4l-4 -6v-23l82 6h88l33 -65l-23 -7l-43 7q-66 -6 -65 -13l-6 6h-6l-60 -6v-121l4 7l6 -7l56 13l6 -6l26 6h50l6 4h6l49 -55l-10 -33l-56 6h-22l-39 -6v6l-4 -6h-23l-6 6h-6v-6l-6 6h-27v-10h-6 q18 -106 29 -297q0 -61 -55 -88l-7 4h-4l-6 -4q-23 8 -22 14v41l6 4l-6 16l6 7l-10 55l4 4v6q-14 182 -23 182l6 4q-6 55 -16 56l-225 -17h-7v-75l7 -7v-6h-7l23 -163h-4l4 -7v-77q-8 -66 -59 -66l-23 33l4 16l-33 346l-202 -10q-49 18 -49 29v26q0 14 219 23v6l6 -6h16 l10 10l-4 6l4 4l-4 6h4l-4 7v88l-143 -17v4l-6 -4h-37q-84 0 -84 37zM358 496l4 -27l7 4h6l6 -4q23 10 219 20v105l4 6v4h-4l-160 -10h-12l-4 -4l-6 4h-4l-6 -4h-7l-6 4h-4l-33 -4v-94z" />
<glyph unicode="$" d="M0 1130v13q0 61 33 114q35 51 121 66h22l10 12v111l45 20q27 0 56 -39l-6 -36h6l-6 -7v-32l6 6h137l4 4q47 0 74 -49l-29 -17l-4 7v-7l-6 7l-17 -7l-38 7q-127 -4 -127 -29v-66l-7 -6l7 -6v-4l-7 -6l7 -4v-6l-7 -7l7 -6l-7 -26v-43h23l6 4q166 0 213 -180l6 -39h-6l6 -7 v-43l6 -18l-6 -27v-55l6 -4l-6 -16l6 -33q-4 -35 -12 -35l6 -4l-6 -29v-10l-14 -215l-6 -4v-6h6l-45 -189l6 -4v-6l-6 -4v-6l6 -6q-45 -76 -133 -105l-56 -10l7 -29v-6l-7 -4v-6l7 -4l-7 -6l7 -6h-7l7 -7v-49q0 -10 -33 -16l-29 10l-4 -4l-16 23v16l6 4l-6 6v6l6 4l-6 39v23 h-23q-55 0 -121 16l-6 -6q0 14 -43 16v7q0 29 17 49l-7 6l33 22l17 -6l6 6q0 -23 12 -22l70 -23l6 7l26 -7h7v45l-7 5v6h7l-7 6v49l-4 23l4 4v6l-4 22l4 82l-4 6h4l-4 4v56l-6 6l6 4v6l-6 6l6 6v5l-6 18h6l-6 4v346l-6 6l6 6v209l-26 4l-13 -10q0 10 -71 33q-49 31 -66 65z M98 1149q4 -39 52 -39v4l4 -4h16l12 10v23l4 121h-4q-84 -23 -84 -115zM264 240l6 -27v-94q111 14 111 110l4 23l-4 4l20 100l-6 4l29 222h-6l6 6v14l-6 6l6 17l-6 6l6 26v154l-6 6l6 17l-6 6v6l6 20l-6 19h6q0 141 -150 141l-4 -4v-94l4 -6l-4 -4v-46l4 -6l-4 -4v-10l4 -18 l-4 -27v-43l4 -6l-4 -6v-115l-6 -6l6 -6v-340l-6 -39h6z" />
<glyph unicode="%" horiz-adv-x="749" d="M-41 16h6l-6 7v6l6 4l-6 6v4l139 238q57 111 111 188l-6 4q35 31 108 182q14 0 111 199l176 297q0 37 166 246q47 0 65 -27v-10q-135 -162 -165 -260q-80 -109 -115 -199q-29 -16 -94 -180q-16 -10 -88 -150q-16 0 -43 -69l-95 -150l-10 -10l4 -6v-6q-31 -31 -92 -160 q-20 -10 -98 -154q-33 -6 -33 -16q-41 6 -41 16zM125 678l6 4l-6 6l6 4l-6 6q29 27 49 27l6 -4h6l17 4l26 -33q-10 -49 -71 -49q-33 8 -33 35zM432 473q31 33 51 33h11q47 -23 49 -43q-10 -31 -37 -45h-62z" />
<glyph unicode="&#x26;" horiz-adv-x="1683" />
<glyph unicode="'" horiz-adv-x="262" d="M66 1503l26 29q68 -23 68 -78h-6l6 -4v-6l-6 -6l6 -6v-5l-6 -6v-6l6 -6q0 -37 -33 -66l-6 7h-12l-5 -7h-6l-6 19l6 4q-16 0 -32 137z" />
<glyph unicode="(" horiz-adv-x="382" d="M-20 803l6 6l-6 45q29 274 71 367l101 227q29 47 36 47q0 26 39 51q20 0 45 -33l-84 -182l-88 -231l6 -4v-6q-14 0 -20 -111l-12 -39h6l-12 -66h6l-6 -6v-65l6 -4l-6 -6q61 -373 133 -578q16 -23 75 -160h13v-12l-6 -4l12 -33l-6 -6h-17q-61 0 -100 121q-23 27 -76 166 l-51 186l-37 154h4q-27 111 -26 153v19z" />
<glyph unicode=")" horiz-adv-x="389" d="M10 33q66 92 105 225l-6 6q18 0 28 98l27 117l-4 4q2 39 10 39l-6 6l6 56v75l4 7v6h-4q10 35 10 131l-6 28h6l-6 5v55l-4 6v4h4q-43 379 -92 502q-14 14 -16 55v17l10 10h33q43 -33 84 -154h-7q27 -49 72 -379h-6l10 -55l-4 -6l4 -27v-71l6 -7l-6 -6l-4 -147v-17l-6 -38 h6l-10 -23l4 -4l-10 -45h6l-29 -144h6l-55 -186q-61 -123 -88 -143q0 -20 -39 -33q-25 0 -33 33z" />
<glyph unicode="*" horiz-adv-x="583" d="M158 1313v26q6 18 32 19q16 0 72 -35l-10 111l4 6v6q39 0 55 -78h6l17 10h33q16 -6 16 -32l-49 -50l76 -49v-22l-17 -6l-59 22l6 -55v-37l-18 -19h-17q-27 0 -26 29h-7l7 4v19l-7 26h7l-7 17h-6v-11l-14 -6q-53 4 -62 23l39 53z" />
<glyph unicode="+" horiz-adv-x="681" d="M96 700q4 39 29 39l82 -6l78 12l-6 5v55l-7 33l7 22l-7 55l19 11q49 0 69 -49l-4 -7v-59l-6 -6l6 -4v-51h4l19 6v-6l4 6h121l10 -11q0 -29 12 -28q0 -14 -39 -23l-16 6l-4 -6v6l-6 -6h-35l-66 -4l7 -55v-10l-7 -7l7 -6v-55q0 -70 -39 -92l-43 20l6 95v94l-6 6v4l-78 -10 l-4 6h-23l-22 -6l-33 10v-4q-27 8 -29 20z" />
<glyph unicode="," horiz-adv-x="231" d="M-2 -131q10 29 65 88q29 47 29 76q-72 0 -72 51q1 36 62 59q88 -47 88 -100v-10q0 -100 -117 -170l-33 -6z" />
<glyph unicode="-" horiz-adv-x="659" d="M76 592v6q10 0 20 14l68 -4h39l4 4h6v-4l82 17v-7l143 23h49q10 -2 39 -49v-6l-12 -11l-14 5l-183 -23v6q-68 -16 -153 -16h-35l-33 10l-4 -4q-16 20 -16 39z" />
<glyph unicode="." horiz-adv-x="210" d="M0 33v16l6 6l-6 6v11q0 16 61 32l5 -6l6 6q0 -16 16 -16q23 -23 23 -45q0 -20 -33 -43h-17l-6 6h-6l-6 -6q0 8 -43 33z" />
<glyph unicode="/" horiz-adv-x="569" d="M0 16l61 238q33 61 99 252q49 92 88 237q55 109 127 334l43 107l-4 4q23 33 82 176l43 22q51 -12 51 -32l-39 -82l-72 -176l4 -6q-14 0 -14 -39l-162 -412q0 -20 -65 -166l-49 -131h-7l7 -6q-39 -80 -115 -320l-23 -16h-39z" />
<glyph unicode="0" horiz-adv-x="733" d="M0 1057l29 147h-6q35 127 65 127q8 25 182 82v-6l72 18l4 -6h72l33 -12v6q82 -33 116 -127q43 -121 43 -170h-6l12 -49h-6l6 -4v-6l7 -170l4 -29h-4l4 -4v-6l-4 -23h4l-4 -6v-6l4 -4v-6l-4 -4h4l-4 -6l4 -68v-33l6 -4l-6 -6q12 -53 12 -147v-13l4 -6l-4 -14l4 -56l-4 -6 v-6l4 -6v-4l-4 -6v-4l4 -33l-4 -6h4l-16 -72h6q-14 -113 -144 -248q-96 -55 -147 -55l-6 6l-29 -6h-33l-4 6l-6 -6h-6l-4 6l-6 -6h-6q-96 33 -111 49q-39 0 -82 244l6 4l-6 6h6l-22 143h6l-6 5v28l-4 66h4l-10 78h6l-6 4v55l-7 6v4h7l-7 6v13l7 4l-13 65h6l-6 6v7l-4 225v16 zM98 1067l6 -307h7l-7 -6v-6l7 -5v-6h-7q12 -37 13 -114l4 -7h-4l4 -6v-6q6 -215 22 -274h-6l6 -4v-39q14 -188 66 -189l61 -14h37q39 0 39 10l16 -6q76 0 154 127q39 115 39 160v71l6 5l-6 6v133l-4 4l4 6q-6 78 -20 121l4 4l-4 29v104l4 6l-4 4v29q-18 440 -107 463 l-70 14q-242 -45 -241 -196q-9 -1 -19 -101h6l-6 -4v-6z" />
<glyph unicode="1" horiz-adv-x="397" d="M-41 1063l18 43l-6 4q16 0 43 68q27 27 45 82l72 120h10v6q78 -8 78 -26v-29l-6 -6l6 -4v-94l-6 -6l6 -4l-6 -39q6 -182 16 -183h-6l23 -127h-4l10 -14l-6 -6q29 -260 28 -346h5l-5 -6l5 -39v-49l6 -111h-6l6 -4v-6l12 -238l4 -16l-59 -33q-29 0 -52 29l7 37l-7 153l-4 6 h4l-4 6v62l-6 4l6 6v4l-6 6v6l6 17l-6 6h6l-12 53l6 6v7l-6 16h6l-6 4v68l-4 6l4 4q-6 141 -20 215l4 4l-33 270h6l-6 6v7l-4 157v23h-6q-61 -137 -115 -137v-17h-6q0 10 -17 10z" />
<glyph unicode="2" horiz-adv-x="622" d="M0 61l186 484q39 123 144 375l16 20l-4 6v6q20 20 33 82l33 94h-7l27 125l-4 7l4 32q0 82 -53 101q-39 0 -105 -68q0 -20 -28 -39h-27q-18 0 -39 19q0 70 121 125l49 12h6q137 0 160 -94l16 -43h-6l6 -7v-61l-12 -33l6 -6q-6 -47 -16 -59h6q-53 -211 -209 -549l4 -6v-6 q-14 0 -49 -115l-121 -309l-16 -60l65 -6h52l26 6l6 -6v6l4 -6h7l6 6h6l14 -6l35 6h4l6 -6h6v10l4 -4h62l4 -6l6 6h6l17 -6v6q39 0 71 -71v-7l-6 -16h-6l-4 6l-16 -6l-95 10h-20l-6 6l-6 -6h-27l-6 6l-6 -6h-33l-4 6l-45 -10l-23 4h-6l-4 -4l-6 4h-16l-7 -4l-4 4h-71 q-111 0 -111 51z" />
<glyph unicode="3" horiz-adv-x="516" d="M-20 33v10l22 45l84 -16v6l37 -12v6l6 -6h33l6 6h4v-6q66 18 100 71l-6 6v7q25 49 39 241l-6 17l-92 -13v6q-33 -10 -88 -10q-29 0 -29 10l-4 -6h-18l-27 29q10 33 39 55h10l6 -6l4 6h13l6 -6l4 6h16l6 -6h7l4 6v-6l55 10l6 -4l4 4v-4l88 10l-4 7l10 39l-6 4 q12 37 19 297h-6l6 6v65l-6 23l6 22v11l-6 6l6 6v4l-6 16l6 6q-12 53 -13 160l-6 4h6l-10 33l4 6v6q-14 125 -49 164q-14 23 -65 39v-6l-7 6l-55 -6h-33q-59 0 -59 18v23q0 12 65 20v-6l7 6h10l6 -6h4l6 6v-6l39 13l6 -7h4l23 7q82 -14 149 -89q59 -113 60 -335l6 -7h-6 l6 -4v-297l-6 -6v-6h6l-6 -6v-27l6 -6l-10 -33l4 -4v-6l-4 -22h4l-17 -115l7 -6v-4l-13 -62l6 -6h-6l6 -6l-26 -219q-45 -160 -82 -160q-14 -20 -78 -43v4l-22 -10l-7 6l-36 -6h-7q-166 0 -165 33z" />
<glyph unicode="4" horiz-adv-x="577" d="M0 682h6l-6 6l6 27v16l-6 23l6 22v10l-6 7l10 55l-4 6v86l4 29h-4l4 16l-4 4l10 51l-6 17l6 6v4l-6 6l13 72h-13l6 6v53l7 6l-7 7v43l7 26l-7 35v27l7 6l-7 6q1 82 62 82q25 -12 26 -23v-209l-6 -280l6 -17l-6 -6l6 -26v-13l-6 -4l6 -6v-10l-6 -35l6 -4v-6l-6 -17h6 l-6 -16l6 -264q31 -88 78 -88l27 6l49 -6q29 0 78 22v-6l26 6v17l-4 6l4 6l-16 164h6q-10 29 -10 115v6l4 6q-10 29 -10 114v56l6 6l-12 33l6 59v16l-6 29h6l-6 4v6l12 50l-6 22l10 166v76q0 35 29 45v-6l6 6h4q43 0 43 -94v-7l-4 -20l4 -23v-6l-4 -20l4 -19h-4l4 -4v-6 l-4 -16l4 -6l-4 -4h4l-4 -7v-176l-6 -6l6 -4v-35l10 -274h6l-6 -4l12 -95h-6l11 -49h-5l5 -6v-39q0 -143 12 -180l-6 -23v-16l6 -29h-6q12 -39 12 -108l-6 -88l6 -17h-6l10 -55l-4 -6h-6q-72 12 -72 39l-6 27v100l-4 20l4 7q-16 80 -16 159l-7 6h-4l-55 -16v4l-6 -4h-72 l-20 -6q-102 16 -133 55q-29 0 -66 131v6l4 33v17l-4 26h4z" />
<glyph unicode="5" horiz-adv-x="659" d="M0 846v219l6 4v6h-6l6 6v49l27 193q33 117 71 117q0 27 144 26v-6l6 6l27 -6h12l82 13v-7l6 7h76l45 -39q0 -23 -33 -23v-4l-18 4l-5 -4l-28 4h-10l-7 -4l-6 4l-88 -10l-4 6h-6l-33 -6l-6 6v-6l-4 6h-23q-59 0 -77 -35l-27 -53l4 -6v-6l-33 -183l6 -4l-10 -121l4 -6 l-4 -26v-52l4 -20l-4 -6l4 -66v-51l6 -4l-6 -6q6 -160 23 -242q25 -10 72 -10l6 4h6l4 -4l6 4v-4l92 10l6 -6l6 6l7 -6v6l4 -6h12l4 6q133 -33 133 -98q18 0 37 -105h-4l4 -6v-26l6 -52l-6 -26h6l-6 -6v-92q-70 -117 -141 -117l-23 -4v4q-57 -23 -104 -23l-6 6l-4 -6 l-127 19l-23 -13q0 12 -22 13v4q18 66 32 65l140 -14q176 23 176 66q14 0 14 20l-4 6v6l10 37l-6 6v6l6 7q0 225 -59 225q0 16 -62 16v-6l-6 6h-4l-49 -12v6l-6 -6h-55l-23 6l-4 -6h-6q-68 0 -121 68q-16 29 -16 75v17l-7 6v6h7l-13 27l6 6v26l-6 7l6 6v4q-4 72 -10 71l4 7 v6z" />
<glyph unicode="6" horiz-adv-x="673" d="M0 705l6 6l4 147v74l6 4v6l-6 4h6l-6 6q23 414 94 414l115 59l19 -10l10 10l6 -6l147 29l23 -6h4l6 6h6q43 -37 43 -62l-14 -10h-23q-82 0 -247 -49q-72 -45 -72 -133q-16 -49 -16 -86v-29l-7 -6v-6h7l-7 -4v-16l7 -7l-7 -6v-26l7 -7l-7 -4v-6l-6 -241v-39l-4 -6l4 -5 v-18l-4 -4v-6l4 -4h-4l4 -6l-4 -27l4 -6l-4 -6v-11l4 -6l-4 -6l4 -108v-46h6l105 23l6 -6l55 6h60q137 0 172 -55q25 0 59 -209v-23l-6 -39h6q-6 -47 -59 -114q-25 -16 -205 -39l-160 33q-98 39 -98 176l-33 280l4 6l-4 121v94zM104 276l13 -55l-6 -6q0 -86 39 -109 q90 -29 131 -28q78 4 77 10l4 -4q121 10 121 59l6 52q-20 176 -55 176q0 12 -72 26h-26l-6 -6l-17 6q-100 0 -209 -45l7 -65l-7 -4l7 -7h-7z" />
<glyph unicode="7" horiz-adv-x="487" d="M0 1411q10 39 39 39h186l6 -6h7v6l4 -6h6l6 6h4l6 -6h6l4 6h7q63 -14 100 -55q27 -51 27 -76q0 -215 -105 -528q0 -29 -84 -297l-125 -502q0 -23 -22 -23l-62 19q18 119 45 180l-6 16q12 0 23 56h-6l18 49h-6q49 233 127 473l98 407l10 154q0 61 -39 61l-4 -6l-39 6h-49 l-6 5h-6l-4 -5v5l-6 -5h-6l-23 5v-5l-4 5h-66l-6 6l-6 -6h-16z" />
<glyph unicode="8" horiz-adv-x="614" d="M0 887h6l-6 6l6 39v4l-6 6l6 4v78l-6 6l6 4v6l-6 7l6 26v35l-6 27q23 215 66 215q0 16 100 75q12 12 82 27v-4l39 10l49 -10l10 10h35q23 -8 65 -92h-6l33 -94l-4 -6l10 -76h-6l10 -45l-4 -17l4 -55h-4l4 -6v-4l-4 -6l4 -4v-68l6 -27h-6l6 -6v-10l-6 -6l6 -4v-6l-6 -17 l6 -32v-13l-6 -6l6 -4v-6l-6 -17l6 -6h-6l6 -4v-10l-6 -29h6l-6 -16l6 -72h-6l6 -6v-20q0 -41 -16 -78l6 -17h-6l-4 -6l-12 -16l6 -4v-19l-17 -4l66 -198l-6 -7v-10h10v-59l6 -23l-6 -22v-6l6 -4q-35 -137 -76 -154q-2 -20 -84 -41v6q-25 -10 -69 -10h-35l-4 -6l-6 6h-29 l-4 -6q-182 33 -182 104l6 6l-6 6h-4l4 5l-17 84l7 4v16l-7 6l13 49l-6 6q8 96 20 105h-4q31 88 55 88v4q-66 45 -65 78l-13 33l7 6q-16 96 -17 209v59zM88 1090l6 -5v-143l4 -6l-4 -4v-199l4 -6l-4 -4v-6l4 -29h-4l4 -6v-59l6 -7l-6 -4v-6q0 -78 101 -78l6 7l14 -7l51 7 l4 -7q117 0 134 101l6 53v41l-6 20l6 23h-6l6 4l-6 23l6 32l-6 19h6l-6 4v6l6 23h-6l6 4l-6 39v49l-7 22l7 6v4l-13 46l6 20l-6 18h6l-6 5v6l6 6l-6 6v37l6 6l-32 192q-8 43 -62 43h-20q-70 0 -166 -114q-27 -92 -27 -137v-39zM104 162q0 -74 56 -74l6 -4l16 -6v-4l4 4h56 q182 12 182 61l10 27h-6l18 61q0 102 -61 242l-104 -23l-7 7h-4l-6 -7l-26 7h-19q-100 0 -115 -248v-43z" />
<glyph unicode="9" horiz-adv-x="688" d="M-10 881l6 6v65l-6 4l6 7v77l4 4v7h-4l4 6v10q0 264 74 319q0 27 59 62q0 17 150 37l43 -4l6 4l6 -4v4l37 -17l6 7h4l74 -62q33 -47 53 -147h-4q53 -240 53 -453l-4 -246l4 -6v-6l-4 -20v-29l4 -17l-4 -26v-78l4 -33l-4 -6v-4l4 -16h-4l4 -7v-6l-4 -75h4l-4 -7v-6l4 -6 l-4 -4v-6l4 -4l-4 -6v-13l4 -4l-4 -6v-16l4 -6l-4 -4v-7l4 -6v-6l-4 -4l4 -6l-4 -4l4 -6h-4l4 -7v-32q0 -72 -43 -72h-22l-11 10v6l7 7l-7 16l-6 180h-6l6 6v29l-229 -6l-88 10v-4q-39 0 -84 53q-61 94 -66 176h6l-22 144l4 22l-4 6l4 4v7l-4 26l4 6l-4 39v137zM88 633 l12 -105h-6l12 -32l-6 -7h6l-6 -6v-4q25 -143 82 -143v6l29 -12l4 6l29 -6h55l4 -4l6 4h17q82 0 82 12l6 -6h6l20 6v-6l6 6h17l6 -6h4v26l-4 7v6h4l-4 6v4l4 6v4l-4 6l4 7h-4l4 6l-4 26l4 6v5l-4 22l4 6l-10 43l6 6v27l-6 6v6h6l-6 4l6 56v16l-6 6l6 6v148q0 137 -16 225h6 l-39 221h6q-29 164 -100 164l-33 6q-121 -29 -121 -55q-46 -37 -66 -170h5l-11 -61l6 -5l-12 -61l6 -4l-6 -68v-98l-6 -29h6l-6 -4v-6l6 -4v-6l-6 -23l6 -6l-6 -26v-115l6 -23z" />
<glyph unicode=":" horiz-adv-x="231" d="M0 207q16 61 49 61q61 -16 76 -43h6v-30l-31 -19h-57zM6 39q16 61 49 61q61 -16 76 -43h6v-30l-31 -19h-57z" />
<glyph unicode=";" horiz-adv-x="231" d="M-2 -162q10 29 65 88q29 49 29 76q-72 0 -72 51q1 37 62 60q88 -45 88 -99v-12q0 -100 -117 -170l-33 -4zM0 207q16 61 49 61q61 -16 76 -43h6v-30l-31 -19h-57z" />
<glyph unicode="&#x3c;" horiz-adv-x="577" d="M121 668v10q0 20 43 55l133 111q82 88 104 88v-6q43 -41 43 -62q-68 -49 -127 -108q-82 -70 -81 -82q109 -45 188 -117l10 -16v-23l-16 -16h-35q-94 74 -236 143l-20 17z" />
<glyph unicode="=" horiz-adv-x="659" d="M86 512v4q10 0 20 16l66 -4h41l4 4h6v-4l82 17v-6l144 22h49q10 -2 39 -49v-6l-13 -10l-14 4l-182 -23v6q-68 -16 -156 -16h-33l-33 10l-4 -4q-16 20 -16 39zM86 641v6q10 0 20 17l66 -7h41l4 7h6v-7l82 17v-4l144 20h49q10 0 39 -49v-4l-13 -12l-14 6l-182 -23v6 q-68 -16 -156 -16h-33l-33 10l-4 -6q-16 20 -16 39z" />
<glyph unicode="&#x3e;" horiz-adv-x="577" d="M96 895v6l29 29q55 -18 104 -68l193 -121q27 -14 27 -39l-197 -190q0 -33 -45 -41q-66 8 -66 51l209 187q0 16 -114 88q-123 74 -140 98z" />
<glyph unicode="?" horiz-adv-x="622" d="M0 1217v16l6 4v6h-6l6 17l-6 16q6 68 16 84h-6q43 98 88 98q0 8 45 23v-6l111 32q66 -6 104 -26v4q92 -37 125 -144q14 0 33 -124l-4 -52v-59l-6 -6l6 -4v-6l-23 -72l7 -6q-10 -2 -50 -99q-10 0 -51 -77q-100 -131 -147 -281h6q-33 -72 -55 -213l6 -6v-6l-6 -17l6 -6 l-6 -26v-50l-6 -6l6 -6v-33l-29 -20l-66 10l7 55l-7 7v4l7 6h-7l7 6v16h-7l17 138h-4q39 207 131 372q170 244 170 342v138q-12 70 -56 133q-20 25 -75 43l-6 -6h-11l-6 6l-22 -11v5q-121 -29 -121 -70q-12 0 -23 -51l6 -4q-4 -45 -10 -45l4 -7v-65q0 -10 -14 -10l-35 -7v-6 q-49 14 -49 52zM131 10v19q18 65 55 65q29 -25 29 -51h10q0 -33 -49 -33q0 -10 -22 -10q0 10 -23 10z" />
<glyph unicode="@" horiz-adv-x="899" d="M20 707l7 24l-7 6v6l7 7h-7l25 159q45 174 135 242q46 68 236 113l6 -9l31 9h43l6 -9h8v9q49 -10 123 -64q78 -90 110 -260l-6 -4l6 -33q-47 -111 -135 -153l6 -7l-6 -30l6 -21l-6 -6v-4l6 -18h-6l6 -9l-6 -30v-99l6 -61h-6l6 -19q0 -68 -94 -67v4l-10 20v105l-8 6l8 6 v31l-8 6l12 43l-4 6v58l4 6v6h-4l4 16l-4 21l4 6l-31 -6l-123 6v-33l-6 -61h6l-6 -7v-67l6 -43h-6l13 -82q-49 -43 -80 -43q-31 29 -31 100h4l-4 6v43l-6 62h6l-6 6v39l6 4v6h-6l10 37h-4l18 88h-8l39 166h-6q8 100 37 100q0 43 104 62q100 -16 101 -49q20 0 73 -193h7 l24 31v6q0 158 -119 279l-73 18v-6l-7 6h-18l-31 -6v6q-145 -37 -174 -92q-66 -76 -86 -211l-12 -92h6l-6 -6v-13q0 -326 242 -495l55 -19h31q29 0 94 37q47 55 92 55q55 -10 55 -22q0 -53 -137 -113q-63 -43 -123 -43q-213 0 -309 209q-47 59 -86 193l-12 82h6zM379 817 l92 -24l6 6v-6l33 6v30l-8 7v6h8q-39 141 -76 174l-6 6h-6q-12 0 -43 -205z" />
<glyph unicode="A" horiz-adv-x="636" d="M0 61v17l6 6l-6 4v6q72 244 121 588l22 127h-6l13 27h-7l27 127l-4 6q10 0 33 186q39 268 55 297l53 16l29 -20l6 -23h-6q8 -66 16 -65l-6 -6v-6q12 -23 29 -232l10 -39h-4l65 -329h-6l49 -242h-6l23 -78h-4l65 -344q10 0 11 -41q0 -25 -33 -43h-6l-4 6l-19 -6 q-33 0 -53 143l-12 11l6 16l-11 35h5l-27 102h-6l6 19l-72 395q-133 -6 -133 -16q-37 -293 -76 -418h7q-55 -147 -72 -258h-45zM238 776h4l100 10l-12 50h6l-39 176h6q-8 45 -16 45l6 6v4l-6 16h-6l-39 -252z" />
<glyph unicode="B" horiz-adv-x="493" d="M0 104l6 7h-6l6 6v26l-6 7l6 4v100l4 229l6 6h-6l6 7v88l7 6v4h-7l7 6v59l-7 7l7 6v33l-7 20l7 23l-7 22l7 6l-7 55v177l7 4v6l-7 6h7l-7 4v6l7 6l-7 4v7l7 16l-7 6l7 4h-7l7 6v13l-7 14l7 29v98l6 29h-6l6 6v4l-6 6v4l10 12l-4 7l10 102h-6l6 6v68q0 8 45 20 q119 -27 186 -104q55 -94 82 -164l-6 -6v-17l6 -6q-25 -115 -166 -241l-36 -27v-6q131 -18 131 -56q51 -27 88 -192l12 -59h-6l6 -7v-38l-6 -7l6 -4v-16l-6 -6l6 -6v-33l-6 -4l6 -6l-23 -170h4q-41 -166 -88 -215q-45 -61 -55 -62q0 -20 -102 -49h-19q-88 0 -88 23l-4 16 l4 4v6zM66 98q0 -14 71 -26q61 14 78 45q27 29 49 88h-6l35 92l-6 6v4q14 53 20 205l-4 16l4 23h-4l4 4v6l-4 23l4 6q-8 59 -14 59l4 6v11h-10l6 6q-29 117 -68 147q-35 45 -114 45h-27l4 -6v-264l-4 -39h4l-10 -27l6 -16l-6 -16h6q-12 0 -18 -265h6l-6 -6v-127zM84 946h10 q0 10 92 78q92 109 101 164q0 70 -82 182q-64 62 -101 66v-6l-10 -89h4l-4 -4v-45l-6 -55l6 -16l-6 -131v-72l-4 -6l4 -4v-7l-4 -26l4 -6h-4l4 -6v-7l-4 -4v-6z" />
<glyph unicode="C" horiz-adv-x="555" d="M0 868l10 13h-4l4 6v4l-4 6l4 27v116l6 4v7h-6l33 170h-4q66 174 143 198l66 17v-6l6 6h39l4 -6l6 6h10q55 0 111 -50v-12q-12 -26 -52 -26h-3h-11q-26 32 -105 32h-5q-80 0 -111 -104q-20 -43 -43 -180h4l-10 -45l6 -23v-16l-6 -4l6 -19l-6 -49l6 -4l-6 -29v-94l6 -4 l-6 -6v-4l10 -74l-4 -4l4 -6h-4l17 -82h-7q12 -18 13 -72h4l-4 -6l33 -193h-7l11 -36h-4l20 -68l-4 -4v-6q49 -170 131 -170l143 72h29l14 -19q0 -45 -88 -76q-70 -55 -121 -55q-145 0 -190 205q-35 147 -51 307h-4l4 4v6l-10 56l6 6l-23 153l4 29v33q0 45 -10 69z" />
<glyph unicode="D" horiz-adv-x="479" d="M0 29h6l-6 4v6l6 39h-6l10 65l-4 7v4l10 61h-6l6 4v55l7 7v6h-7l7 6v4l-7 6l7 4v45l-7 6v4h7l-7 7v12l7 27h-7l7 6v121l-7 20l7 6v6l-7 4l7 29v23l-7 4l7 6v72l6 26l-6 6h6l-6 6v70l-7 41h7l-7 14l7 189l6 16h-6l6 4v6l-6 27l6 88v39q0 100 -19 100q13 35 33 43h55 q145 -162 195 -270l-6 -4q33 -43 59 -176l12 -72h-6l17 -88h-7l7 -4v-78l-7 -6l7 -4v-12l-7 -56l7 -6l-7 -4h7l-7 -6v-10l7 -6l-7 -7v-43l-4 -26h4l-16 -101h6l-6 -6v-26l-16 -88l6 -7q-8 -2 -43 -114l-51 -66l-60 -55v-10h-6l-6 4h-4q-45 -33 -105 -33h-6v10h-22 q-29 0 -33 19zM84 94l14 -22h13q43 0 108 114q55 139 55 248l-4 6q10 53 11 160v170q0 29 -11 29l4 4v6q-4 82 -16 82l6 6q0 84 -98 268l-55 72h-7v-49l7 -27h-7l7 -6v-4l-7 -6v-6h7l-7 -6v-17l7 -6l-7 -4v-6l7 -17l-7 -16h7l-7 -4v-209l7 -6l-7 -6l7 -29v-59l6 -6 q-12 -25 -13 -70v-6l7 -23l-7 -22v-11l7 -22l-7 -4l7 -35l-7 -197l7 -28l-23 -170h6l-10 -17l4 -6v-6z" />
<glyph unicode="E" horiz-adv-x="532" d="M0 1337l33 11l-4 6v6q0 16 98 33q0 14 215 26v6l4 -6l29 6h6q8 0 33 -39v-6q-45 -16 -78 -16v-4l-6 4q-170 -14 -170 -27l-6 4q0 -12 -82 -20v-6h12l4 -23l-4 -6l10 -98h-6l6 -4v-51h33l27 6v-6q98 22 196 22h8l11 -10l16 -39h-4l-84 -16v6l-143 -23l-56 4h-4v-37l4 -6 l-4 -6v-4l4 -45l-4 -33h4l-4 -6v-4q0 -29 10 -29l-6 -6v-33l6 -4l-6 -6v-16l6 -6l-10 -56l4 -4l-10 -65l6 -6v-7q-10 -10 -10 -55h-6l6 -4v-6l-6 -6v-4l6 -19l-6 -4v-6l6 -16l-6 -17h6l-6 -6v-66l-6 -6l6 -4v-16l-6 -6l6 -6v-5l-6 -51l6 -14l-6 -6h6l-6 -6l6 -23l-6 -16 l6 -27l-6 -16l6 -6h-6l6 -7v-20l-6 -6v-6l6 -4h6l-6 -23q0 -80 39 -111q0 -18 53 -43l160 17h39q16 -6 16 -35v-14q-12 0 -27 -23l-32 10l-23 -6v6q-76 -16 -172 -16l-53 29l-23 20l-26 55l-6 17l6 6v4l-13 29h7l-17 121l4 6h-4l4 6v59l-4 6l4 4v7l-4 16h4l-4 6v4l4 6v7 l-4 16l4 4h-4l4 6v6l-4 29l10 197h-6l13 16l-7 6v23l7 4v6l-7 4h7l-7 6v23l7 6l-7 6v4l7 84h-7l7 4v6l-7 4v6l7 23l-7 4l7 6h-7l7 6l-7 39v76l-10 137l4 6l-4 27v84z" />
<glyph unicode="F" horiz-adv-x="501" d="M0 1305q14 43 43 43q0 -16 23 -17l100 10v-4l4 4h94l6 7h4v-7l78 19q39 -29 39 -55l-6 -19l-186 -4v-6l-6 6q-66 -4 -66 -10l-6 4l-33 -4q16 -53 16 -127h138l6 6h6v-6l59 10l29 -39h4v-26l-43 -7v7l-55 -13v6l-6 -6h-17l-20 6l-6 -6h-6l-7 6h-4l-16 -6v6l-49 -10l4 -84 v-69l6 -7l-6 -6v-6l6 -4v-6l-6 -17h6l-6 -6v-4l6 -22h-6l10 -43v-121l6 -29h-6l6 -6v-4l-6 -88l6 -16l-6 -7h6l-6 -6l6 -16l6 -213v-23l-6 -6l6 -6v-4l-6 -205l-6 -6v-4l6 -6v-4q-4 -16 -26 -29l-7 6h-6v-6l-37 10v23l5 6v4l-5 6h5l-5 6v17l5 26h-5l5 6v330l-5 6l5 6v11 l-5 6l5 6l-5 37v45l-6 4v6h6l-6 17l6 6l-6 26v203l-6 6l6 6l-12 62l6 4v16l-6 6l6 7v4l-6 6v6l6 4v6l-6 33h6l-6 6v88l-4 4v6h4l-10 50h6l-16 88h6q-12 61 -29 84z" />
<glyph unicode="G" horiz-adv-x="577" d="M0 1204l6 17h-6l6 6v22l-6 4q18 154 49 154q42 57 189 100l4 -6h61l33 -10v4q66 -12 65 -27v-10l-49 -39l-82 29v-6l-6 6h-26q-143 -23 -144 -107h4l-10 -49l6 -6l-6 -26v-62q0 -66 10 -65l-4 -33l4 -43h-4l4 -6v-56l6 -6l-6 -4v-6l6 -16h-6l6 -7v-186l7 -4l-7 -6v-12 l7 -23l-7 -4l7 -29v-98l-7 -4l7 -6v-6l-7 -7q12 -55 13 -147h-6q0 -102 82 -293l49 -47h12q61 0 115 213h-7l13 33l-6 6v6l6 4v6q-20 16 -68 17h-26l-7 -7h-4v7l-65 -17q-29 6 -29 29q0 53 105 53h45l4 6h6l6 -6v6l4 -6h6l6 6q115 -27 115 -49l-22 -98h6q-23 -102 -62 -182 q-31 -68 -108 -101l-39 -10l-6 6l-4 -6q-102 0 -177 186l-32 127h4l-10 68h6l-6 4v66l-7 32l7 6l-7 27v55l7 7l-7 6v65l-6 6l6 4v7l-6 6v6l6 20l-6 7v6h6l-6 4v10l6 6l-6 6l6 29v65l-6 5l6 6v6l-6 39l6 4l-6 29v75l-4 6v7h4l-4 4v6l4 6l-4 27z" />
<glyph unicode="H" horiz-adv-x="546" d="M0 1348q14 14 61 22v4q33 0 33 -76v-49l4 -6l-4 -6l10 -92l56 -6v6l6 -6h33l39 6q-6 123 -19 164h6l-6 6v6q0 59 78 59h6l4 -6h6l-6 -4v-6l23 -199q33 -4 32 -14v-23q-27 -27 -26 -38l6 -7v-6l-6 -20h6l-6 -6q8 -115 16 -115l-6 -6v-6q0 -47 12 -70l-6 -23l6 -18h-6 l10 -59l-4 -17h4l-4 -6v-6l4 -14h-4l17 -121h-6l12 -35v-39l4 -4v-6l-4 -4h4l-4 -6q20 -193 20 -291l7 -6h-7l17 -88l-4 -7l10 -71q-33 -27 -78 -33q-27 0 -33 43l6 6h-6l6 6v6l-16 164l4 6v7l-14 124h4l-10 52l6 4q-4 51 -12 51l6 4v6q-2 82 -13 82l7 6l-11 43l4 6h-4l4 7 l-10 59l6 16h-6l6 7l-12 196h-4l4 6l-10 68h6q-12 29 -12 108h-4l-101 -10h-26l6 -6l-6 -4v-6l6 -33l-6 -6l10 -49l-4 -6l4 -27v-72l6 -22l-6 -6l10 -121h-4l10 -27l-6 -6v-27l6 -6l-6 -6v-16l6 -4l-6 -7v-6l6 -6v-4h-6l6 -6v-4l-6 -6l6 -6v-7l-6 -49l6 -16l-6 -23h6l-6 -4 v-28l6 -5v-6l-6 -6l6 -6l-6 -4l6 -6h-6l12 -66h-6l6 -16l11 -105l-4 -6v-6l4 -14h-4l10 -62l-6 -6l12 -10h-6l10 -72q-29 -45 -76 -45q0 12 -22 13v10h-6l6 6v55l-6 4v6h6l-11 50l5 6l-23 235h6l-10 62l4 22h-4l4 4v133l-4 7l4 4v6l-4 110h-6l6 5v6l-6 16h6l-10 61l4 5v51 l-4 4v6l4 4h-4l4 6l-10 68l6 4v10l-6 23l6 16l-6 16h6l-6 7v59l-7 6v6h7l-13 49l6 7l-10 49l4 16l-4 17h4z" />
<glyph unicode="I" horiz-adv-x="256" d="M0 1397q41 28 78 28h6l4 -18l-4 -4l4 -55v-33l6 -6v-4h-6l6 -7v-71l4 -6l-4 -4l4 -39v-62l6 -6l-6 -4l6 -29v-69l7 -7l-7 -6v-20l7 -6l-7 -6v-7l7 -16h-7l7 -16l-7 -23l7 -14l-7 -23h7l-7 -6v-4l7 -45h-7l7 -16l10 -447l6 -4v-6l-6 -6q10 -53 10 -160v-4l6 -6v-6h-6l6 -4 v-7q0 -16 -20 -39l10 -75q-16 0 -16 -19q-33 0 -45 -10q-33 0 -33 49h-4l4 6l-4 29v53l-6 6l10 88l-4 127h-6l6 4l-6 111v16l-7 27h7l-7 6v13l7 4l-7 6v6l7 4l-7 6v131l7 6l-7 7v65l-6 6l6 4v45l-6 6l6 5v133l-6 20l6 23l-6 22h6l-6 6v154l-4 4l4 6l-4 39v88z" />
<glyph unicode="J" horiz-adv-x="577" d="M0 113v77l6 7l-6 4q0 104 39 104h16q33 -14 33 -26l6 6h4v-6l-10 -166q0 -66 66 -66h12q78 0 104 39q37 47 37 115h6l-6 16q12 29 23 137l-4 6h10v7l-6 6q22 67 22 252v16v43l-6 195h-4l4 4q-16 82 -16 172v26l6 219h6l-6 7v6l6 6l-6 4v6l6 17l-6 6h6l-12 14l6 6v17 q0 29 -10 28q-39 0 -39 -10l-6 4h-7l-104 -10l-4 6v-6l-6 6h-10l-7 -6q-33 0 -32 39l59 26l49 -6h19l4 6h6v-6l71 13v-7l82 11q29 0 33 -76v-17l-10 -297h4l-4 -6q2 -82 10 -82l-6 -18l6 -14h-6l6 -6v-7l17 -317l-5 -6l5 -6l-5 -39v-11l5 -6l-56 -424q-14 -74 -88 -137 l-88 -33v7l-65 -13v6l-4 -6q-143 31 -144 101z" />
<glyph unicode="K" horiz-adv-x="643" d="M0 1393h6l-6 4v6q0 27 78 27l16 -89h-6l6 -4v-120l4 -29l-4 -4l4 -6h-4l17 -160l59 72q59 61 160 196l71 84h23l55 -16v-23q-88 -94 -143 -170l-98 -121q-68 -66 -68 -88l39 -110q31 -41 98 -226q23 -27 121 -270l127 -280q0 -23 -53 -33l-6 -4q-37 0 -88 157l-105 205 q0 23 -16 23l6 4l-88 221l-6 16q-29 41 -39 93q-33 51 -43 88h-6v-56l-7 -4l7 -6v-39l-7 -6l7 -4v-6l-7 -4l7 -29v-10l-7 -6l7 -7v-4l-7 -6l7 -6v-4l-7 -6l7 -6v-111l6 -4v-6h-6l6 -4v-13l-6 -26l6 -23l-6 -26q12 -231 26 -310l-6 -6v-4l19 -61l-39 -27l-7 4h-6l-14 -10 q-35 8 -35 29q0 20 -10 20l4 17q-20 145 -20 303h-7l7 6v10l-7 6l7 17l-7 20l7 6v6l-7 6v5l7 28l-7 33h7l-7 16l7 7v4l-7 22h7l-7 6v125l-6 6l6 7v6l-6 4l6 6v133l7 20l-7 17l7 16h-7l7 6v7l-7 49l7 6v4l-7 16l7 6l-17 209l4 17h-4l4 6l-4 27v77z" />
<glyph unicode="L" horiz-adv-x="643" d="M0 1393q0 20 43 20v6l6 -6h35q23 -59 37 -258h6l-6 -4l10 -55h-4l10 -23l-6 -6l12 -104h-6l6 -7v-32l7 -66h-7l11 -65l-4 -7l4 -6h6l-6 -4l28 -241l-6 -7v-6l6 -20l-6 -6l29 -215l-6 -7l20 -190h39l6 4l6 -4h4l52 10l4 -6l28 6h37l6 4h7v-4l108 23q33 -51 51 -51v-17 q0 -14 -84 -20v-6l-4 6l-78 -13v7l-6 -7h-20q-68 -2 -68 -10l-4 4h-6l-23 -4v4l-49 -10v6l-6 -6h-4q-98 0 -98 84l4 4v6q-4 66 -10 66l6 6l-23 170h4l-4 6v72l-6 4v6h6l-10 49h4q-10 66 -16 66l6 6v26l-6 7v6h6l-17 114h5l-5 7v16l5 4l-11 55h6l-22 287h-6l6 6l-10 55h4 l-10 56h6z" />
<glyph unicode="M" horiz-adv-x="569" d="M0 131l10 45h-4l4 6v23l-4 4v6q10 0 10 16l-6 7l13 65h-7l7 4v62q0 98 10 127l-4 20l4 55h-4l4 7l-4 22l10 121v16l4 6v5h-4l4 6v65l6 6v6h-6l6 5v6l-6 6v6h6l-6 4v6l6 23h-6l6 4l-6 29v10l6 16l-6 29v115l6 6v4h-6l6 6v4l-6 18l6 17h-6l6 6v20l6 111l-6 4h6l-6 6l6 39 v10l-6 7l6 16l-12 61q0 25 68 43q39 0 71 -98q41 -43 60 -98h6q39 66 78 186q8 0 16 23l4 4h29q53 0 53 -66l6 -71l-6 -7l6 -26v-326l-6 -4l6 -6v-10l-6 -6v-7l6 -4h-6l6 -6v-231l6 -23l-6 -20l6 -6l-6 -7h6l-6 -4v-6l6 -6l-6 -4v-68l6 -4l-6 -6l6 -82v-39l-6 -6l6 -6v-4 l-6 -23l6 -20h-6l6 -6v-23l6 -176h5l-5 -6v-4l5 -6v-6h-5l5 -4v-7l-5 -22h5l-5 -4v-6l5 -82q-18 -25 -43 -29l-56 16l6 82v52l-6 4l6 6v39l-16 209l4 6v4l-4 61v49l-6 27h6l-6 6l6 29l-6 37l6 51v76l-6 22l6 4l-6 29v104l6 7l-6 4v39l6 6l-6 6l6 26v23l4 82h-4l4 4l-4 29v6 l4 6l-4 4v10l4 6l-4 7v6l4 26l-4 27h4l-4 39q-86 -121 -117 -121l-20 -4l-35 14l6 6q-31 100 -39 101v-35l6 -20l-12 -62l6 -4l-6 -29v-12l6 -4l-10 -55l4 -7v-16l-4 -16l4 -27v-117l-4 -4l4 -6l-4 -65v-27l-6 -6v-6h6l-6 -6l-4 -177v-43l-6 -6v-6l6 -4l-6 -6h6l-6 -4v-56 l-7 -38h7l-7 -7v-55l-6 -20l6 -7l-10 -71h4q-10 -29 -10 -117v-37l6 -6v-4h-6l16 -35q-20 -33 -49 -33q-45 0 -45 56l-4 39h4z" />
<glyph unicode="N" horiz-adv-x="555" d="M0 182l6 4h-6l6 7v77l-6 4l6 7l4 202v121l-4 35l4 4v6l-4 62l4 4l-4 28v111l-6 4l6 6v23l-6 4l6 6v72l4 6v4h-4l4 6v33l-4 22l4 23v37l6 6v4h-6l6 6v12l-6 5l13 65l-7 23l13 65h-6l6 6v62l4 6l-4 4v16l4 23l-4 22v5l26 28v-6l6 6h43q29 0 72 -303h6l-6 -4v-6 q10 0 43 -281l12 -22h-6l39 -164l-6 -6v-6l12 -27h-6q33 -109 33 -160h6v43l-6 6v7l6 20l-6 6l6 6h-6l6 4v84l-6 4l6 7v26l-6 6l6 7v16l-6 4l6 6l-6 29v26l6 7l-6 6v88l6 33l-6 4l6 39v61l-6 4l6 6v209l4 23l-4 20l4 6h-4l4 6v43l6 107l-6 14h6l-6 6v7q0 20 35 43 q45 0 66 -27v-55l-13 -66l6 -65l-6 -23l6 -6v-4l-6 -6v-6l6 -7l-6 -26v-43l6 -23l-6 -22l6 -6v-5l-6 -18h6l-6 -4v-62l-4 -55h4l-4 -4v-192l-6 -7l6 -6v-20l-6 -232h6l-6 -6v-43l6 -6v-4h-6l6 -6v-88l4 -39h-4l17 -98l-23 -177l6 -6h-6l6 -6v-26q-8 -23 -39 -23h-6l-27 6 l-6 -6l-26 78l6 6l-6 4h6l-29 150l-22 81h6l-105 447h-6l6 4v6l-26 115l4 6l-10 104h-7l-6 -94l-4 -6v-4l4 -6h-4l4 -4l6 -166v-154q0 -121 -10 -192h4l-4 -6v-76l-6 -6l6 -6l-6 -56v-20l-4 -6l4 -6v-62l-4 -4l4 -16l-4 -7l4 -26v-12l-4 -27l-6 4l-6 -4h-11q-55 6 -55 22z " />
<glyph unicode="O" horiz-adv-x="622" d="M0 922l6 6v10l-6 6l6 4v6l-6 7q20 389 117 450q43 39 147 39h23l6 -6l4 6q61 0 137 -98h6l-6 -6l55 -127l-6 -7l19 -143l-6 -14l6 -19l-6 -4l6 -6h-6l6 -4v-133l-6 -6l6 -4v-117l4 -4l-4 -6v-154l4 -6v-6h-4l4 -4l-4 -29v-209l-6 -4v-6l6 -6l-6 -6h6l-13 -27l7 -6 q-16 -113 -62 -209q-111 -111 -241 -111q-88 0 -132 156l-18 115l6 6l-33 297l7 16h-7l7 4v6l-7 6l7 7l-13 98h6l-6 4v143l-4 39h4zM98 905l6 -6v-59l7 -6v-7h-7l7 -4v-94l6 -166h4l-4 -4l10 -78l-6 -6l22 -176h-6l6 -4v-43l7 -39h-7q0 -78 56 -166h10q41 0 137 78 q27 0 55 164l7 28l-7 5l7 28v4l-7 6l13 33l-6 17l6 16l-6 6l6 6h-6l6 17l-6 55l6 65l-6 115h-7l7 6v88l-7 27h7l-7 16l7 7v6l-7 6v4l7 33h-7l7 6v6l-7 4l7 6v6l-7 4l7 7v6l-7 33h7l-7 6v10h7q-10 176 -17 176l4 4q-10 102 -53 176q-45 68 -104 68h-7q-69 0 -104 -137h4 q-20 -37 -20 -117v-17l-7 -6l7 -4l-7 -28v-50l-6 -6l6 -4v-6l-6 -33h6l-6 -6v-33l6 -20l-6 -6v-6l6 -17h-6z" />
<glyph unicode="P" horiz-adv-x="628" d="M0 1321q82 76 297 76q141 -23 215 -92q33 -53 33 -88v-56q0 -96 -264 -153q-70 -18 -131 -19h-23v-14l4 -62l-4 -22h4l-4 -4v-13l4 -6l-4 -4l4 -39v-16l-4 -6v-4h4l-4 -19l4 -14l-4 -6l4 -6l-4 -6h4l-4 -5v-6l4 -202l6 -19l-6 -4l6 -6h-6l6 -4v-39q0 -47 13 -72l-7 -6 l7 -4h-7l11 -29h-4l4 -6v-88l-4 -4l4 -6v-17l-4 -6v-6h4l-4 -4v-10l4 -6l-11 -62l7 -6v-47l-7 -6v-6h7l-13 -39h6q0 -23 -71 -33q0 23 -17 23l6 6v190l5 23l-5 22v23l5 6l-5 4v55l-6 6v4h6q-12 12 -18 150h-4l4 4v6l-4 6v7l4 4v6l-14 114l4 7v12l-4 27l4 32l-4 6l4 5v6l-4 6 l10 16l-6 4v111l-4 6l4 4q-4 35 -10 35l6 4v29l-6 20l6 6l-13 49l7 7v26l-7 29h7l-7 4v45l-6 23l6 6zM111 1178l10 -115h33l28 -6q258 47 258 104l6 4l5 19q0 123 -164 147h-29h-9q-114 0 -138 -26v-62l6 -59z" />
<glyph unicode="Q" d="M0 592l6 22h-6l6 7v4l-6 6l6 6v108l4 7l-4 6l10 186h7l-7 6v17l7 26h-7l7 6v27l-7 6v6l7 4h-7q23 223 68 316q80 135 135 135l6 -4h17l6 4q61 0 133 -76h4v-26q94 -135 94 -320l10 -61h-6l6 -4v-134l-6 -6l6 -4v-6l-6 -22l6 -5v-6l-6 -16l6 -16l-6 -7h6l-6 -6v-33l6 -20 l-20 -170v-68l4 -20l-4 -23v-61l-6 -23l6 -16l-23 -115h5q-10 -76 -60 -170l98 -221l7 -33h-7l-16 -6q-78 0 -78 51l-65 138q-41 -29 -121 -29q-106 0 -143 100l-43 220l6 6q-18 70 -19 192h-4l4 17l-4 38h4zM94 631l4 -6v-88l6 -23l-6 -4l6 -29v-59l7 -29h-7l7 -4v-55l6 -6 l-6 -4q16 -141 32 -189h-6l23 -65h-6l16 -33l29 6h6l4 -6l22 10v-4l33 16l6 -6l17 23v10l-62 121q6 23 29 45v4h10q72 -63 72 -92h6l16 59h-6l10 39h-4q16 61 17 121v23l6 6l-6 4v6l6 39l-6 6h6l-6 4v6l6 4v6h-6l6 17l14 303l-4 16h4l-4 6v5l4 65h-4l4 6v29l-4 4l4 6v29 q0 45 -10 69l6 7h-6l6 6v6l-10 76h4q-20 133 -72 247q-18 0 -65 56h-6q-57 -37 -92 -156l-13 -43h6l-16 -39l4 -6l-14 -115h4l-4 -6v-4l-6 -176h-7l7 -6v-4l-7 -19h7l-7 -4l-6 -166v-59z" />
<glyph unicode="R" horiz-adv-x="569" d="M0 557l6 16l-6 19l6 4l-6 6l6 4l-6 6l6 6h-6l6 7l-6 32l6 111h10v4l-6 6l6 4v88l-6 23l6 6v4l-6 6v6l6 27h-6q12 29 13 100v5l-7 38h7l-13 50l13 32l-7 7v6l7 6l-7 4v16l7 6l-7 7v4l7 6l-7 6v82l7 6v4h-7l7 6v39l-7 49q0 27 78 39h72l4 -6h6v6q135 -16 199 -61 q61 -49 71 -121h-6l6 -4v-6q0 -94 -120 -166v-4h-23q-39 -2 -39 -13q2 -49 10 -49l-4 -6q10 -100 33 -164l-6 -6l29 -147h-7l11 -23l-4 -6l16 -98h-6l22 -156l-6 -4q49 -352 72 -428h-6q-20 -18 -37 -18v6l-6 -6h-29q-10 0 -20 51h4l-11 20l7 6v6l-13 33h6l-16 66l4 6v4 q-25 90 -49 254h6l-6 4v6l6 6q-35 276 -49 320h4l-43 303l-65 -12v-33l6 -6l-19 -99l6 -110l-6 -4v-6l6 -7v-6l-6 -20l6 -6l-6 -6v-56l-4 -4v-6l4 -4h-4l4 -6v-6l-4 -6l4 -5l-4 -39v-32l4 -6l-4 -7v-4l4 -16h-4q10 -29 10 -127v-10l7 -6l-7 -7v-71l7 -4l-7 -6v-66l7 -6v-6 l-7 -4l7 -7h-7l7 -6v-164l6 -28l-23 -23q-78 20 -78 56v247l-6 7l6 6v4l-6 6l6 4l-6 23l6 28h-6l6 4v6l-6 33l6 6l-10 11l4 6v6l-4 4h4l-4 6v78zM104 1112h7l75 23l7 -5h6q147 51 147 148q0 104 -137 127l-72 10l-26 -6v-125l-7 -6v-4h7l-7 -19l7 -69l-7 -6l7 -6l-7 -7h7 l-7 -4v-51z" />
<glyph unicode="S" horiz-adv-x="643" d="M0 8q14 61 33 62l127 -27q80 0 202 109l52 192l-6 6l20 180l-4 7h4q-12 125 -27 176h7q-59 264 -134 264l-36 4l-13 12l-6 -6l-102 17v-5q-106 20 -107 158v39h6l-6 6v6q10 72 88 164q70 47 183 55h22q39 -2 39 -10l4 4l68 -20l4 6l10 -29l-37 -12l-98 18 q-111 -18 -139 -65q-37 -49 -43 -84h6l-13 -43v-6q0 -127 46 -127l75 -10v6q170 -31 170 -68q27 0 78 -147l10 -13l-4 -4l37 -182l-4 -4v-6l10 -88l-10 -72l4 -6l-10 -78h6l-10 -43h4q-66 -264 -111 -264q0 -10 -65 -49l-4 6q-2 -18 -88 -49q-16 -12 -56 -13v-6l-6 6h-6 l-4 -6q-68 12 -100 29l-5 -6z" />
<glyph unicode="T" horiz-adv-x="591" d="M0 1331l6 6h-6q0 27 160 27l6 6l4 -6l137 16l19 -6l16 6l16 -6l4 6q88 -12 89 -49l-50 -26l-55 16l-27 -6h-45q12 -29 13 -117v-37l6 -6l-6 -4l16 -117l-6 -6v-16l6 -4l-6 -7q6 -236 16 -235l-6 -6v-221q0 -92 -10 -93l6 -6l-6 -39v-6l-4 -202h-6l6 -7v-75l-6 -23l6 -22 v-33q-8 -27 -51 -27v-6l-33 10v23l-4 33l4 6l-4 26v45l4 7l-4 4v84l4 26h-4l4 6v43l6 39h-6l6 6v99l4 22l-4 23v98l-6 4l6 6v111l-6 4l6 6v6l-6 39h6l-6 4v101l-4 6l4 4v6l-4 23h4l-4 16l4 4l-4 29v65l-6 23l6 16l-6 4h6l-6 6v7l-6 131h-7l7 6v6l-7 4v6h7l-11 66l-28 -4h-56 l-4 4h-6v-4l-4 4h-6l-35 -4q-29 0 -43 26z" />
<glyph unicode="U" horiz-adv-x="583" d="M0 408h6l-6 6v10l6 4v6l-6 6l6 6h-6l6 5v12l-6 6v4l6 6h-6l10 37l-4 6v6l17 160l-7 4l7 6h6l-6 7q10 45 10 120v6l-4 5l4 6v88l6 6v4h-6l6 6v6l-6 23l6 4v6l-6 23l6 4v6h-6l6 6v4l-6 45h6l-6 17l6 6v4l-6 6l6 39v153l-6 7l6 4v12l-6 33l6 6l-10 108l43 23l55 -23l-6 -6 v-14l6 -6l-6 -6q10 -82 10 -248h6l-6 -4v-121l-4 -6l4 -6v-164l-4 -6v-7h4l-4 -6v-4l4 -6q-6 -160 -14 -160l4 -6l-17 -164h7l-13 -32v-105l6 -6v-4h-6q31 -260 56 -260l-4 -4q10 -33 32 -33v4l4 -4h19q90 0 147 92l29 121h-6l6 6v39l-6 4l10 45l-4 4v84l-6 4l6 6v78l4 27 h-4l4 6l-10 88l6 17l-6 20l6 6l-6 6l6 6h-6l6 5v51l-6 20l6 6l-6 29v213l-6 6l6 4v6l-6 17l6 28v226l-6 104l12 33h33q47 0 55 -78l-6 -6q4 -43 10 -43l-4 -39v-88l-6 -4l6 -6v-23l-6 -6l6 -4v-29l-6 -4v-6h6l-6 -4v-6l6 -6l-6 -6v-5l6 -6l-6 -6v-65l6 -7v-4h-6l6 -16 l-6 -16h6l-6 -7v-12l6 -4l-6 -6v-4l6 -23l-6 -39l6 -110h4l-4 -4v-84l-6 -4l6 -6v-7l-6 -6l6 -4v-29l-6 -4l10 -51h-4l4 -4l-10 -154v-61l6 -4l-6 -6v-49q-35 -260 -94 -260q-37 -49 -121 -66q-137 0 -176 78q-33 80 -62 203l6 6v10l-6 6v4h6l-6 6v33q0 39 -10 62z" />
<glyph unicode="V" horiz-adv-x="651" d="M0 1380h6l-6 6v21l33 35h45q16 -113 72 -258h-7q39 -119 105 -594q33 -162 33 -205h6l6 23h-6l49 225h-6l22 88l-6 4l78 420l-6 16q14 0 22 72l11 33h-5l11 43h-6l45 149l32 10v-6l7 6h10q33 -16 33 -43l-43 -227l-33 -158h4l-23 -77h6l-49 -242h6l-65 -330h4l-33 -237h6 l-12 -37h6l-16 -74h6q0 -25 -39 -43q0 10 -55 16l-94 594l-11 23h7l-13 26h6q-66 434 -104 568z" />
<glyph unicode="W" horiz-adv-x="876" d="M0 1253l6 7q16 10 17 22h20q49 0 55 -72q94 -379 133 -594h-6l23 -104h-6l12 -29h-6l10 -49h-4l27 -164l-7 -6l13 -65h6q18 80 88 241l20 29h23q0 -23 59 -107l78 -137h6v156l4 20l-4 17l27 395l6 6h-6l29 199h-7q23 160 23 280v23q12 33 43 33t43 -39h6v-55l-10 -150v-4 l-6 -6v-4h6l-10 -72h4l-27 -133l4 -4l-14 -144h4l-16 -55h6l-6 -6v-43l-7 -29h7l-7 -16q0 -98 -10 -98l6 -7v-6l-12 -43v-32l-4 -7l4 -6l-4 -37v-84l-6 -20l6 -23v-77l-6 -4l10 -29l-4 -17l4 -6v-4q-14 -43 -33 -51h-49q-35 119 -133 264v6h-10l-43 -108l6 -6q-8 0 -35 -72 h-4l4 -6v-4q-16 -23 -43 -117h-33q-29 0 -51 16l6 7v10l-10 10l4 6v6l-4 6v5h4q-82 586 -121 743l6 4q-16 0 -26 107l-17 55h5z" />
<glyph unicode="X" horiz-adv-x="808" d="M0 1370l39 23l33 -7h16q39 -70 154 -440l51 -137l10 -43h4l199 389l22 49q41 51 76 156q39 53 74 53q33 -12 37 -33q-37 -123 -125 -258q-53 -119 -238 -467v-6q10 -55 82 -225l12 -10l-6 -6q29 -119 154 -385q0 -23 -66 -23q-78 121 -231 545q-14 0 -59 -117l-107 -223 q-23 -100 -33 -101q-10 -10 -69 -16q0 10 -19 10v29q45 111 45 137q16 0 49 94l89 203l55 105q-61 154 -232 671z" />
<glyph unicode="Y" d="M0 1397l6 28h43l6 -6h6v6q31 0 82 -139q41 -70 50 -108q10 -2 61 -138l4 -6h6l6 29h-6q49 82 121 334h-4q19 55 37 55q66 -4 65 -45l-4 -4v-6l4 -4v-7q-70 -227 -147 -423l-6 -50v-12l6 -20l-6 -17l12 -88h-6l6 -6v-111l4 -36h-4l4 -7v-100l6 -20l-6 -7l16 -176l-4 -6 l11 -82h-7l7 -6v-14l-7 -6v-6h7l-7 -7v-16l7 -4v-6l-7 -6h7l-7 -4v-7l7 -16h-7q12 -37 13 -117l-33 -10h-16l-7 6l-6 -6h-6q-12 0 -26 154h6l-6 6v10l6 6l-6 6v23q0 82 -11 82l4 6l-10 69h6l-12 62h6l-10 59l4 6l-4 27v84l-6 4v6l6 6h-6l6 7v4l-6 16h6l-6 6v6l6 4l-12 62 l6 4l-10 74l4 4q0 86 -37 110q-55 166 -205 484z" />
<glyph unicode="Z" horiz-adv-x="741" d="M0 12q0 20 43 94l123 297l-6 7q23 0 65 143l56 115h-7q88 209 172 483l70 221v4l-4 -4h-6v4l-66 -14v4l-6 -4h-6l-4 4q-23 -10 -62 -10h-104l-4 6l-6 -6h-49l-23 6l-22 -6l-23 33q0 20 51 20v6l4 -6l68 6h49l4 -6l6 6h13q63 0 88 12v-6l102 17q106 -31 107 -72v-4 q-39 -68 -84 -244l-4 -6v-4h4l-125 -346q-61 -197 -140 -342l-124 -301l-23 -56h160l6 5l14 -5l19 5v-5l4 5h51l174 12h12l23 -17l-6 -6v-6l6 -16q0 -27 -78 -27l-29 -10v4l-26 -10l-6 6l-82 -6h-50l-22 -6l-23 6h-16l-4 -6h-6v6l-6 -6h-66l-6 6l-16 -12l-4 6h-107l-4 6h-6 l-4 -6q-16 27 -29 26z" />
<glyph unicode="[" horiz-adv-x="546" d="M31 1067l6 6v4l-6 6v7h6l-6 6v82l6 16l-6 27v139l6 4v6h-6l6 4v6q0 143 37 144l45 16v-4q178 43 241 70h11q66 0 65 -56v-10q-225 -55 -278 -78q-18 -16 -33 -147h4l-4 -6v-11l4 -6l-4 -6v-43l4 -6v-4h-4l4 -6v-6l-4 -17l4 -26v-203l6 -6l-6 -6v-23l6 -4v-6h-6l6 -6v-4 l-6 -23l6 -16h-6l6 -7v-108l4 -139h-4l4 -4v-39l6 -33l-6 -23h6l-6 -6v-39l6 -4l-6 -6v-16q2 -94 13 -95l-7 -4v-6l7 -6l-7 -4l13 -78l-6 -26v-134l10 -10h28l5 4l6 -4h6l108 17q16 -2 23 -27l-4 -18h4q0 -41 -160 -60l-6 4l-4 -4v4l-16 -10l-7 6h-6l-4 -6h-6l-66 29v4l7 6 l-7 4v6l7 6v6l-7 17h7l-7 6v10l7 4l-7 6v7l7 6l-7 26v127l-6 4v7h6l-6 6v6l6 14l-6 29v78l-6 4l6 6l-6 27v55l-10 176h-4l4 6v43l-4 6l4 6v11l-4 6l4 6v14l-4 6v7l4 6l-4 4l4 6l-4 4l4 6l-4 6h4l-4 6v232z" />
<glyph unicode="\" horiz-adv-x="569" d="M-20 1413l32 35h19q55 -23 55 -78q20 -39 47 -149q10 -2 51 -111l144 -379q10 0 10 -33h10v-6l-6 -4l111 -293h-4l120 -311l23 -45v-16q0 -23 -78 -23l-65 143q0 20 -72 193l6 6q-10 0 -107 268q-49 111 -176 457q-49 111 -59 160h-6l6 6v4z" />
<glyph unicode="]" horiz-adv-x="569" d="M41 1491v4q0 35 43 35h16l45 -17v5l60 -11v6q0 -10 198 -18v-4l7 4h16q39 -35 39 -59l-6 -6l6 -33l-6 -137h-6l6 -7v-4l-6 -6v-6h6l-13 -66h7l-11 -20h4l-16 -84l6 -4v-6l-6 -29h6l-6 -4v-6l6 -6l-16 -144h6q-10 -23 -29 -526l-6 -6v-6l6 -23l-6 -4v-6l19 -92h-7l7 -6v-6 q-4 -33 -13 -33l6 -17q0 -104 -65 -104l-176 -29v6l-49 -16q-51 8 -52 23v6q16 47 134 55l38 4v-4l5 4h45q39 0 39 33l-7 221h-6l13 53h-7l7 6v72l10 281l-6 6l6 26v95l6 6l-6 4l10 88l-4 6l33 301h-6q12 37 12 133h-6l-121 17v-6q-209 23 -209 61z" />
<glyph unicode="^" horiz-adv-x="636" d="M51 1313v10q45 66 139 160l43 39l-6 6v10l29 10l4 -4h6l23 4l6 -4v4q53 -16 53 -49l84 -141h4l-4 -6l23 -56q-33 -14 -33 -22q-78 0 -88 78q-47 86 -68 104l-153 -153l-27 -7q-35 6 -35 17z" />
<glyph unicode="_" horiz-adv-x="980" d="M0 -55l33 26l6 -6h49l6 6l4 -6h62l6 6l4 -6l264 23l6 -4h6l5 4h6l22 -4v4l4 -4h6l7 4h6l4 -4l39 4h114l7 6l6 -6h10l23 6l20 -6l18 12l5 -6h12l6 6l14 -6l29 6v-6l4 6h41l27 -35h-7l7 -4v-22q-6 -16 -33 -17h-6l-17 6l-26 -6h-19l-245 -6l-7 6l-6 -6v6l-6 -6h-47l-45 6 q-162 -16 -281 -16v-6l-6 6h-10l-6 -6l-4 6h-6l-23 -6l-4 6v-6l-6 6h-6l-6 -6l-5 6h-12l-6 -6h-4l-6 6v-6q-33 10 -33 39v6z" />
<glyph unicode="`" horiz-adv-x="464" d="M135 1559l29 28h14q41 0 101 -137q-12 -35 -23 -35h-16q-14 0 -88 111q-16 6 -17 33z" />
<glyph unicode="a" horiz-adv-x="636" d="M0 61v17l6 6l-6 4v6q72 244 121 588l22 127h-6l13 27h-7l27 127l-4 6q10 0 33 186q39 268 55 297l53 16l29 -20l6 -23h-6q8 -66 16 -65l-6 -6v-6q12 -23 29 -232l10 -39h-4l65 -329h-6l49 -242h-6l23 -78h-4l65 -344q10 0 11 -41q0 -25 -33 -43h-6l-4 6l-19 -6 q-33 0 -53 143l-12 11l6 16l-11 35h5l-27 102h-6l6 19l-72 395q-133 -6 -133 -16q-37 -293 -76 -418h7q-55 -147 -72 -258h-45zM238 776h4l100 10l-12 50h6l-39 176h6q-8 45 -16 45l6 6v4l-6 16h-6l-39 -252z" />
<glyph unicode="b" horiz-adv-x="493" d="M0 104l6 7h-6l6 6v26l-6 7l6 4v100l4 229l6 6h-6l6 7v88l7 6v4h-7l7 6v59l-7 7l7 6v33l-7 20l7 23l-7 22l7 6l-7 55v177l7 4v6l-7 6h7l-7 4v6l7 6l-7 4v7l7 16l-7 6l7 4h-7l7 6v13l-7 14l7 29v98l6 29h-6l6 6v4l-6 6v4l10 12l-4 7l10 102h-6l6 6v68q0 8 45 20 q119 -27 186 -104q55 -94 82 -164l-6 -6v-17l6 -6q-25 -115 -166 -241l-36 -27v-6q131 -18 131 -56q51 -27 88 -192l12 -59h-6l6 -7v-38l-6 -7l6 -4v-16l-6 -6l6 -6v-33l-6 -4l6 -6l-23 -170h4q-41 -166 -88 -215q-45 -61 -55 -62q0 -20 -102 -49h-19q-88 0 -88 23l-4 16 l4 4v6zM66 98q0 -14 71 -26q61 14 78 45q27 29 49 88h-6l35 92l-6 6v4q14 53 20 205l-4 16l4 23h-4l4 4v6l-4 23l4 6q-8 59 -14 59l4 6v11h-10l6 6q-29 117 -68 147q-35 45 -114 45h-27l4 -6v-264l-4 -39h4l-10 -27l6 -16l-6 -16h6q-12 0 -18 -265h6l-6 -6v-127zM84 946h10 q0 10 92 78q92 109 101 164q0 70 -82 182q-64 62 -101 66v-6l-10 -89h4l-4 -4v-45l-6 -55l6 -16l-6 -131v-72l-4 -6l4 -4v-7l-4 -26l4 -6h-4l4 -6v-7l-4 -4v-6z" />
<glyph unicode="c" horiz-adv-x="555" d="M0 868l10 13h-4l4 6v4l-4 6l4 27v116l6 4v7h-6l33 170h-4q66 174 143 198l66 17v-6l6 6h39l4 -6l6 6h10q55 0 111 -50v-12q-12 -26 -52 -26h-3h-11q-26 32 -105 32h-5q-80 0 -111 -104q-20 -43 -43 -180h4l-10 -45l6 -23v-16l-6 -4l6 -19l-6 -49l6 -4l-6 -29v-94l6 -4 l-6 -6v-4l10 -74l-4 -4l4 -6h-4l17 -82h-7q12 -18 13 -72h4l-4 -6l33 -193h-7l11 -36h-4l20 -68l-4 -4v-6q49 -170 131 -170l143 72h29l14 -19q0 -45 -88 -76q-70 -55 -121 -55q-145 0 -190 205q-35 147 -51 307h-4l4 4v6l-10 56l6 6l-23 153l4 29v33q0 45 -10 69z" />
<glyph unicode="d" horiz-adv-x="479" d="M0 29h6l-6 4v6l6 39h-6l10 65l-4 7v4l10 61h-6l6 4v55l7 7v6h-7l7 6v4l-7 6l7 4v45l-7 6v4h7l-7 7v12l7 27h-7l7 6v121l-7 20l7 6v6l-7 4l7 29v23l-7 4l7 6v72l6 26l-6 6h6l-6 6v70l-7 41h7l-7 14l7 189l6 16h-6l6 4v6l-6 27l6 88v39q0 100 -19 100q13 35 33 43h55 q145 -162 195 -270l-6 -4q33 -43 59 -176l12 -72h-6l17 -88h-7l7 -4v-78l-7 -6l7 -4v-12l-7 -56l7 -6l-7 -4h7l-7 -6v-10l7 -6l-7 -7v-43l-4 -26h4l-16 -101h6l-6 -6v-26l-16 -88l6 -7q-8 -2 -43 -114l-51 -66l-60 -55v-10h-6l-6 4h-4q-45 -33 -105 -33h-6v10h-22 q-29 0 -33 19zM84 94l14 -22h13q43 0 108 114q55 139 55 248l-4 6q10 53 11 160v170q0 29 -11 29l4 4v6q-4 82 -16 82l6 6q0 84 -98 268l-55 72h-7v-49l7 -27h-7l7 -6v-4l-7 -6v-6h7l-7 -6v-17l7 -6l-7 -4v-6l7 -17l-7 -16h7l-7 -4v-209l7 -6l-7 -6l7 -29v-59l6 -6 q-12 -25 -13 -70v-6l7 -23l-7 -22v-11l7 -22l-7 -4l7 -35l-7 -197l7 -28l-23 -170h6l-10 -17l4 -6v-6z" />
<glyph unicode="e" horiz-adv-x="532" d="M0 1337l33 11l-4 6v6q0 16 98 33q0 14 215 26v6l4 -6l29 6h6q8 0 33 -39v-6q-45 -16 -78 -16v-4l-6 4q-170 -14 -170 -27l-6 4q0 -12 -82 -20v-6h12l4 -23l-4 -6l10 -98h-6l6 -4v-51h33l27 6v-6q98 22 196 22h8l11 -10l16 -39h-4l-84 -16v6l-143 -23l-56 4h-4v-37l4 -6 l-4 -6v-4l4 -45l-4 -33h4l-4 -6v-4q0 -29 10 -29l-6 -6v-33l6 -4l-6 -6v-16l6 -6l-10 -56l4 -4l-10 -65l6 -6v-7q-10 -10 -10 -55h-6l6 -4v-6l-6 -6v-4l6 -19l-6 -4v-6l6 -16l-6 -17h6l-6 -6v-66l-6 -6l6 -4v-16l-6 -6l6 -6v-5l-6 -51l6 -14l-6 -6h6l-6 -6l6 -23l-6 -16 l6 -27l-6 -16l6 -6h-6l6 -7v-20l-6 -6v-6l6 -4h6l-6 -23q0 -80 39 -111q0 -18 53 -43l160 17h39q16 -6 16 -35v-14q-12 0 -27 -23l-32 10l-23 -6v6q-76 -16 -172 -16l-53 29l-23 20l-26 55l-6 17l6 6v4l-13 29h7l-17 121l4 6h-4l4 6v59l-4 6l4 4v7l-4 16h4l-4 6v4l4 6v7 l-4 16l4 4h-4l4 6v6l-4 29l10 197h-6l13 16l-7 6v23l7 4v6l-7 4h7l-7 6v23l7 6l-7 6v4l7 84h-7l7 4v6l-7 4v6l7 23l-7 4l7 6h-7l7 6l-7 39v76l-10 137l4 6l-4 27v84z" />
<glyph unicode="f" horiz-adv-x="501" d="M0 1305q14 43 43 43q0 -16 23 -17l100 10v-4l4 4h94l6 7h4v-7l78 19q39 -29 39 -55l-6 -19l-186 -4v-6l-6 6q-66 -4 -66 -10l-6 4l-33 -4q16 -53 16 -127h138l6 6h6v-6l59 10l29 -39h4v-26l-43 -7v7l-55 -13v6l-6 -6h-17l-20 6l-6 -6h-6l-7 6h-4l-16 -6v6l-49 -10l4 -84 v-69l6 -7l-6 -6v-6l6 -4v-6l-6 -17h6l-6 -6v-4l6 -22h-6l10 -43v-121l6 -29h-6l6 -6v-4l-6 -88l6 -16l-6 -7h6l-6 -6l6 -16l6 -213v-23l-6 -6l6 -6v-4l-6 -205l-6 -6v-4l6 -6v-4q-4 -16 -26 -29l-7 6h-6v-6l-37 10v23l5 6v4l-5 6h5l-5 6v17l5 26h-5l5 6v330l-5 6l5 6v11 l-5 6l5 6l-5 37v45l-6 4v6h6l-6 17l6 6l-6 26v203l-6 6l6 6l-12 62l6 4v16l-6 6l6 7v4l-6 6v6l6 4v6l-6 33h6l-6 6v88l-4 4v6h4l-10 50h6l-16 88h6q-12 61 -29 84z" />
<glyph unicode="g" horiz-adv-x="577" d="M0 1204l6 17h-6l6 6v22l-6 4q18 154 49 154q42 57 189 100l4 -6h61l33 -10v4q66 -12 65 -27v-10l-49 -39l-82 29v-6l-6 6h-26q-143 -23 -144 -107h4l-10 -49l6 -6l-6 -26v-62q0 -66 10 -65l-4 -33l4 -43h-4l4 -6v-56l6 -6l-6 -4v-6l6 -16h-6l6 -7v-186l7 -4l-7 -6v-12 l7 -23l-7 -4l7 -29v-98l-7 -4l7 -6v-6l-7 -7q12 -55 13 -147h-6q0 -102 82 -293l49 -47h12q61 0 115 213h-7l13 33l-6 6v6l6 4v6q-20 16 -68 17h-26l-7 -7h-4v7l-65 -17q-29 6 -29 29q0 53 105 53h45l4 6h6l6 -6v6l4 -6h6l6 6q115 -27 115 -49l-22 -98h6q-23 -102 -62 -182 q-31 -68 -108 -101l-39 -10l-6 6l-4 -6q-102 0 -177 186l-32 127h4l-10 68h6l-6 4v66l-7 32l7 6l-7 27v55l7 7l-7 6v65l-6 6l6 4v7l-6 6v6l6 20l-6 7v6h6l-6 4v10l6 6l-6 6l6 29v65l-6 5l6 6v6l-6 39l6 4l-6 29v75l-4 6v7h4l-4 4v6l4 6l-4 27z" />
<glyph unicode="h" horiz-adv-x="546" d="M0 1348q14 14 61 22v4q33 0 33 -76v-49l4 -6l-4 -6l10 -92l56 -6v6l6 -6h33l39 6q-6 123 -19 164h6l-6 6v6q0 59 78 59h6l4 -6h6l-6 -4v-6l23 -199q33 -4 32 -14v-23q-27 -27 -26 -38l6 -7v-6l-6 -20h6l-6 -6q8 -115 16 -115l-6 -6v-6q0 -47 12 -70l-6 -23l6 -18h-6 l10 -59l-4 -17h4l-4 -6v-6l4 -14h-4l17 -121h-6l12 -35v-39l4 -4v-6l-4 -4h4l-4 -6q20 -193 20 -291l7 -6h-7l17 -88l-4 -7l10 -71q-33 -27 -78 -33q-27 0 -33 43l6 6h-6l6 6v6l-16 164l4 6v7l-14 124h4l-10 52l6 4q-4 51 -12 51l6 4v6q-2 82 -13 82l7 6l-11 43l4 6h-4l4 7 l-10 59l6 16h-6l6 7l-12 196h-4l4 6l-10 68h6q-12 29 -12 108h-4l-101 -10h-26l6 -6l-6 -4v-6l6 -33l-6 -6l10 -49l-4 -6l4 -27v-72l6 -22l-6 -6l10 -121h-4l10 -27l-6 -6v-27l6 -6l-6 -6v-16l6 -4l-6 -7v-6l6 -6v-4h-6l6 -6v-4l-6 -6l6 -6v-7l-6 -49l6 -16l-6 -23h6l-6 -4 v-28l6 -5v-6l-6 -6l6 -6l-6 -4l6 -6h-6l12 -66h-6l6 -16l11 -105l-4 -6v-6l4 -14h-4l10 -62l-6 -6l12 -10h-6l10 -72q-29 -45 -76 -45q0 12 -22 13v10h-6l6 6v55l-6 4v6h6l-11 50l5 6l-23 235h6l-10 62l4 22h-4l4 4v133l-4 7l4 4v6l-4 110h-6l6 5v6l-6 16h6l-10 61l4 5v51 l-4 4v6l4 4h-4l4 6l-10 68l6 4v10l-6 23l6 16l-6 16h6l-6 7v59l-7 6v6h7l-13 49l6 7l-10 49l4 16l-4 17h4z" />
<glyph unicode="i" horiz-adv-x="256" d="M0 1397q41 28 78 28h6l4 -18l-4 -4l4 -55v-33l6 -6v-4h-6l6 -7v-71l4 -6l-4 -4l4 -39v-62l6 -6l-6 -4l6 -29v-69l7 -7l-7 -6v-20l7 -6l-7 -6v-7l7 -16h-7l7 -16l-7 -23l7 -14l-7 -23h7l-7 -6v-4l7 -45h-7l7 -16l10 -447l6 -4v-6l-6 -6q10 -53 10 -160v-4l6 -6v-6h-6l6 -4 v-7q0 -16 -20 -39l10 -75q-16 0 -16 -19q-33 0 -45 -10q-33 0 -33 49h-4l4 6l-4 29v53l-6 6l10 88l-4 127h-6l6 4l-6 111v16l-7 27h7l-7 6v13l7 4l-7 6v6l7 4l-7 6v131l7 6l-7 7v65l-6 6l6 4v45l-6 6l6 5v133l-6 20l6 23l-6 22h6l-6 6v154l-4 4l4 6l-4 39v88z" />
<glyph unicode="j" horiz-adv-x="577" d="M0 113v77l6 7l-6 4q0 104 39 104h16q33 -14 33 -26l6 6h4v-6l-10 -166q0 -66 66 -66h12q78 0 104 39q37 47 37 115h6l-6 16q12 29 23 137l-4 6h10v7l-6 6q22 67 22 252v16v43l-6 195h-4l4 4q-16 82 -16 172v26l6 219h6l-6 7v6l6 6l-6 4v6l6 17l-6 6h6l-12 14l6 6v17 q0 29 -10 28q-39 0 -39 -10l-6 4h-7l-104 -10l-4 6v-6l-6 6h-10l-7 -6q-33 0 -32 39l59 26l49 -6h19l4 6h6v-6l71 13v-7l82 11q29 0 33 -76v-17l-10 -297h4l-4 -6q2 -82 10 -82l-6 -18l6 -14h-6l6 -6v-7l17 -317l-5 -6l5 -6l-5 -39v-11l5 -6l-56 -424q-14 -74 -88 -137 l-88 -33v7l-65 -13v6l-4 -6q-143 31 -144 101z" />
<glyph unicode="k" horiz-adv-x="643" d="M0 1393h6l-6 4v6q0 27 78 27l16 -89h-6l6 -4v-120l4 -29l-4 -4l4 -6h-4l17 -160l59 72q59 61 160 196l71 84h23l55 -16v-23q-88 -94 -143 -170l-98 -121q-68 -66 -68 -88l39 -110q31 -41 98 -226q23 -27 121 -270l127 -280q0 -23 -53 -33l-6 -4q-37 0 -88 157l-105 205 q0 23 -16 23l6 4l-88 221l-6 16q-29 41 -39 93q-33 51 -43 88h-6v-56l-7 -4l7 -6v-39l-7 -6l7 -4v-6l-7 -4l7 -29v-10l-7 -6l7 -7v-4l-7 -6l7 -6v-4l-7 -6l7 -6v-111l6 -4v-6h-6l6 -4v-13l-6 -26l6 -23l-6 -26q12 -231 26 -310l-6 -6v-4l19 -61l-39 -27l-7 4h-6l-14 -10 q-35 8 -35 29q0 20 -10 20l4 17q-20 145 -20 303h-7l7 6v10l-7 6l7 17l-7 20l7 6v6l-7 6v5l7 28l-7 33h7l-7 16l7 7v4l-7 22h7l-7 6v125l-6 6l6 7v6l-6 4l6 6v133l7 20l-7 17l7 16h-7l7 6v7l-7 49l7 6v4l-7 16l7 6l-17 209l4 17h-4l4 6l-4 27v77z" />
<glyph unicode="l" horiz-adv-x="643" d="M0 1393q0 20 43 20v6l6 -6h35q23 -59 37 -258h6l-6 -4l10 -55h-4l10 -23l-6 -6l12 -104h-6l6 -7v-32l7 -66h-7l11 -65l-4 -7l4 -6h6l-6 -4l28 -241l-6 -7v-6l6 -20l-6 -6l29 -215l-6 -7l20 -190h39l6 4l6 -4h4l52 10l4 -6l28 6h37l6 4h7v-4l108 23q33 -51 51 -51v-17 q0 -14 -84 -20v-6l-4 6l-78 -13v7l-6 -7h-20q-68 -2 -68 -10l-4 4h-6l-23 -4v4l-49 -10v6l-6 -6h-4q-98 0 -98 84l4 4v6q-4 66 -10 66l6 6l-23 170h4l-4 6v72l-6 4v6h6l-10 49h4q-10 66 -16 66l6 6v26l-6 7v6h6l-17 114h5l-5 7v16l5 4l-11 55h6l-22 287h-6l6 6l-10 55h4 l-10 56h6z" />
<glyph unicode="m" horiz-adv-x="569" d="M0 131l10 45h-4l4 6v23l-4 4v6q10 0 10 16l-6 7l13 65h-7l7 4v62q0 98 10 127l-4 20l4 55h-4l4 7l-4 22l10 121v16l4 6v5h-4l4 6v65l6 6v6h-6l6 5v6l-6 6v6h6l-6 4v6l6 23h-6l6 4l-6 29v10l6 16l-6 29v115l6 6v4h-6l6 6v4l-6 18l6 17h-6l6 6v20l6 111l-6 4h6l-6 6l6 39 v10l-6 7l6 16l-12 61q0 25 68 43q39 0 71 -98q41 -43 60 -98h6q39 66 78 186q8 0 16 23l4 4h29q53 0 53 -66l6 -71l-6 -7l6 -26v-326l-6 -4l6 -6v-10l-6 -6v-7l6 -4h-6l6 -6v-231l6 -23l-6 -20l6 -6l-6 -7h6l-6 -4v-6l6 -6l-6 -4v-68l6 -4l-6 -6l6 -82v-39l-6 -6l6 -6v-4 l-6 -23l6 -20h-6l6 -6v-23l6 -176h5l-5 -6v-4l5 -6v-6h-5l5 -4v-7l-5 -22h5l-5 -4v-6l5 -82q-18 -25 -43 -29l-56 16l6 82v52l-6 4l6 6v39l-16 209l4 6v4l-4 61v49l-6 27h6l-6 6l6 29l-6 37l6 51v76l-6 22l6 4l-6 29v104l6 7l-6 4v39l6 6l-6 6l6 26v23l4 82h-4l4 4l-4 29v6 l4 6l-4 4v10l4 6l-4 7v6l4 26l-4 27h4l-4 39q-86 -121 -117 -121l-20 -4l-35 14l6 6q-31 100 -39 101v-35l6 -20l-12 -62l6 -4l-6 -29v-12l6 -4l-10 -55l4 -7v-16l-4 -16l4 -27v-117l-4 -4l4 -6l-4 -65v-27l-6 -6v-6h6l-6 -6l-4 -177v-43l-6 -6v-6l6 -4l-6 -6h6l-6 -4v-56 l-7 -38h7l-7 -7v-55l-6 -20l6 -7l-10 -71h4q-10 -29 -10 -117v-37l6 -6v-4h-6l16 -35q-20 -33 -49 -33q-45 0 -45 56l-4 39h4z" />
<glyph unicode="n" horiz-adv-x="555" d="M0 182l6 4h-6l6 7v77l-6 4l6 7l4 202v121l-4 35l4 4v6l-4 62l4 4l-4 28v111l-6 4l6 6v23l-6 4l6 6v72l4 6v4h-4l4 6v33l-4 22l4 23v37l6 6v4h-6l6 6v12l-6 5l13 65l-7 23l13 65h-6l6 6v62l4 6l-4 4v16l4 23l-4 22v5l26 28v-6l6 6h43q29 0 72 -303h6l-6 -4v-6 q10 0 43 -281l12 -22h-6l39 -164l-6 -6v-6l12 -27h-6q33 -109 33 -160h6v43l-6 6v7l6 20l-6 6l6 6h-6l6 4v84l-6 4l6 7v26l-6 6l6 7v16l-6 4l6 6l-6 29v26l6 7l-6 6v88l6 33l-6 4l6 39v61l-6 4l6 6v209l4 23l-4 20l4 6h-4l4 6v43l6 107l-6 14h6l-6 6v7q0 20 35 43 q45 0 66 -27v-55l-13 -66l6 -65l-6 -23l6 -6v-4l-6 -6v-6l6 -7l-6 -26v-43l6 -23l-6 -22l6 -6v-5l-6 -18h6l-6 -4v-62l-4 -55h4l-4 -4v-192l-6 -7l6 -6v-20l-6 -232h6l-6 -6v-43l6 -6v-4h-6l6 -6v-88l4 -39h-4l17 -98l-23 -177l6 -6h-6l6 -6v-26q-8 -23 -39 -23h-6l-27 6 l-6 -6l-26 78l6 6l-6 4h6l-29 150l-22 81h6l-105 447h-6l6 4v6l-26 115l4 6l-10 104h-7l-6 -94l-4 -6v-4l4 -6h-4l4 -4l6 -166v-154q0 -121 -10 -192h4l-4 -6v-76l-6 -6l6 -6l-6 -56v-20l-4 -6l4 -6v-62l-4 -4l4 -16l-4 -7l4 -26v-12l-4 -27l-6 4l-6 -4h-11q-55 6 -55 22z " />
<glyph unicode="o" horiz-adv-x="622" d="M0 922l6 6v10l-6 6l6 4v6l-6 7q20 389 117 450q43 39 147 39h23l6 -6l4 6q61 0 137 -98h6l-6 -6l55 -127l-6 -7l19 -143l-6 -14l6 -19l-6 -4l6 -6h-6l6 -4v-133l-6 -6l6 -4v-117l4 -4l-4 -6v-154l4 -6v-6h-4l4 -4l-4 -29v-209l-6 -4v-6l6 -6l-6 -6h6l-13 -27l7 -6 q-16 -113 -62 -209q-111 -111 -241 -111q-88 0 -132 156l-18 115l6 6l-33 297l7 16h-7l7 4v6l-7 6l7 7l-13 98h6l-6 4v143l-4 39h4zM98 905l6 -6v-59l7 -6v-7h-7l7 -4v-94l6 -166h4l-4 -4l10 -78l-6 -6l22 -176h-6l6 -4v-43l7 -39h-7q0 -78 56 -166h10q41 0 137 78 q27 0 55 164l7 28l-7 5l7 28v4l-7 6l13 33l-6 17l6 16l-6 6l6 6h-6l6 17l-6 55l6 65l-6 115h-7l7 6v88l-7 27h7l-7 16l7 7v6l-7 6v4l7 33h-7l7 6v6l-7 4l7 6v6l-7 4l7 7v6l-7 33h7l-7 6v10h7q-10 176 -17 176l4 4q-10 102 -53 176q-45 68 -104 68h-7q-69 0 -104 -137h4 q-20 -37 -20 -117v-17l-7 -6l7 -4l-7 -28v-50l-6 -6l6 -4v-6l-6 -33h6l-6 -6v-33l6 -20l-6 -6v-6l6 -17h-6z" />
<glyph unicode="p" horiz-adv-x="628" d="M0 1321q82 76 297 76q141 -23 215 -92q33 -53 33 -88v-56q0 -96 -264 -153q-70 -18 -131 -19h-23v-14l4 -62l-4 -22h4l-4 -4v-13l4 -6l-4 -4l4 -39v-16l-4 -6v-4h4l-4 -19l4 -14l-4 -6l4 -6l-4 -6h4l-4 -5v-6l4 -202l6 -19l-6 -4l6 -6h-6l6 -4v-39q0 -47 13 -72l-7 -6 l7 -4h-7l11 -29h-4l4 -6v-88l-4 -4l4 -6v-17l-4 -6v-6h4l-4 -4v-10l4 -6l-11 -62l7 -6v-47l-7 -6v-6h7l-13 -39h6q0 -23 -71 -33q0 23 -17 23l6 6v190l5 23l-5 22v23l5 6l-5 4v55l-6 6v4h6q-12 12 -18 150h-4l4 4v6l-4 6v7l4 4v6l-14 114l4 7v12l-4 27l4 32l-4 6l4 5v6l-4 6 l10 16l-6 4v111l-4 6l4 4q-4 35 -10 35l6 4v29l-6 20l6 6l-13 49l7 7v26l-7 29h7l-7 4v45l-6 23l6 6zM111 1178l10 -115h33l28 -6q258 47 258 104l6 4l5 19q0 123 -164 147h-29h-9q-114 0 -138 -26v-62l6 -59z" />
<glyph unicode="q" d="M0 592l6 22h-6l6 7v4l-6 6l6 6v108l4 7l-4 6l10 186h7l-7 6v17l7 26h-7l7 6v27l-7 6v6l7 4h-7q23 223 68 316q80 135 135 135l6 -4h17l6 4q61 0 133 -76h4v-26q94 -135 94 -320l10 -61h-6l6 -4v-134l-6 -6l6 -4v-6l-6 -22l6 -5v-6l-6 -16l6 -16l-6 -7h6l-6 -6v-33l6 -20 l-20 -170v-68l4 -20l-4 -23v-61l-6 -23l6 -16l-23 -115h5q-10 -76 -60 -170l98 -221l7 -33h-7l-16 -6q-78 0 -78 51l-65 138q-41 -29 -121 -29q-106 0 -143 100l-43 220l6 6q-18 70 -19 192h-4l4 17l-4 38h4zM94 631l4 -6v-88l6 -23l-6 -4l6 -29v-59l7 -29h-7l7 -4v-55l6 -6 l-6 -4q16 -141 32 -189h-6l23 -65h-6l16 -33l29 6h6l4 -6l22 10v-4l33 16l6 -6l17 23v10l-62 121q6 23 29 45v4h10q72 -63 72 -92h6l16 59h-6l10 39h-4q16 61 17 121v23l6 6l-6 4v6l6 39l-6 6h6l-6 4v6l6 4v6h-6l6 17l14 303l-4 16h4l-4 6v5l4 65h-4l4 6v29l-4 4l4 6v29 q0 45 -10 69l6 7h-6l6 6v6l-10 76h4q-20 133 -72 247q-18 0 -65 56h-6q-57 -37 -92 -156l-13 -43h6l-16 -39l4 -6l-14 -115h4l-4 -6v-4l-6 -176h-7l7 -6v-4l-7 -19h7l-7 -4l-6 -166v-59z" />
<glyph unicode="r" horiz-adv-x="569" d="M0 557l6 16l-6 19l6 4l-6 6l6 4l-6 6l6 6h-6l6 7l-6 32l6 111h10v4l-6 6l6 4v88l-6 23l6 6v4l-6 6v6l6 27h-6q12 29 13 100v5l-7 38h7l-13 50l13 32l-7 7v6l7 6l-7 4v16l7 6l-7 7v4l7 6l-7 6v82l7 6v4h-7l7 6v39l-7 49q0 27 78 39h72l4 -6h6v6q135 -16 199 -61 q61 -49 71 -121h-6l6 -4v-6q0 -94 -120 -166v-4h-23q-39 -2 -39 -13q2 -49 10 -49l-4 -6q10 -100 33 -164l-6 -6l29 -147h-7l11 -23l-4 -6l16 -98h-6l22 -156l-6 -4q49 -352 72 -428h-6q-20 -18 -37 -18v6l-6 -6h-29q-10 0 -20 51h4l-11 20l7 6v6l-13 33h6l-16 66l4 6v4 q-25 90 -49 254h6l-6 4v6l6 6q-35 276 -49 320h4l-43 303l-65 -12v-33l6 -6l-19 -99l6 -110l-6 -4v-6l6 -7v-6l-6 -20l6 -6l-6 -6v-56l-4 -4v-6l4 -4h-4l4 -6v-6l-4 -6l4 -5l-4 -39v-32l4 -6l-4 -7v-4l4 -16h-4q10 -29 10 -127v-10l7 -6l-7 -7v-71l7 -4l-7 -6v-66l7 -6v-6 l-7 -4l7 -7h-7l7 -6v-164l6 -28l-23 -23q-78 20 -78 56v247l-6 7l6 6v4l-6 6l6 4l-6 23l6 28h-6l6 4v6l-6 33l6 6l-10 11l4 6v6l-4 4h4l-4 6v78zM104 1112h7l75 23l7 -5h6q147 51 147 148q0 104 -137 127l-72 10l-26 -6v-125l-7 -6v-4h7l-7 -19l7 -69l-7 -6l7 -6l-7 -7h7 l-7 -4v-51z" />
<glyph unicode="s" horiz-adv-x="643" d="M0 8q14 61 33 62l127 -27q80 0 202 109l52 192l-6 6l20 180l-4 7h4q-12 125 -27 176h7q-59 264 -134 264l-36 4l-13 12l-6 -6l-102 17v-5q-106 20 -107 158v39h6l-6 6v6q10 72 88 164q70 47 183 55h22q39 -2 39 -10l4 4l68 -20l4 6l10 -29l-37 -12l-98 18 q-111 -18 -139 -65q-37 -49 -43 -84h6l-13 -43v-6q0 -127 46 -127l75 -10v6q170 -31 170 -68q27 0 78 -147l10 -13l-4 -4l37 -182l-4 -4v-6l10 -88l-10 -72l4 -6l-10 -78h6l-10 -43h4q-66 -264 -111 -264q0 -10 -65 -49l-4 6q-2 -18 -88 -49q-16 -12 -56 -13v-6l-6 6h-6 l-4 -6q-68 12 -100 29l-5 -6z" />
<glyph unicode="t" horiz-adv-x="591" d="M0 1331l6 6h-6q0 27 160 27l6 6l4 -6l137 16l19 -6l16 6l16 -6l4 6q88 -12 89 -49l-50 -26l-55 16l-27 -6h-45q12 -29 13 -117v-37l6 -6l-6 -4l16 -117l-6 -6v-16l6 -4l-6 -7q6 -236 16 -235l-6 -6v-221q0 -92 -10 -93l6 -6l-6 -39v-6l-4 -202h-6l6 -7v-75l-6 -23l6 -22 v-33q-8 -27 -51 -27v-6l-33 10v23l-4 33l4 6l-4 26v45l4 7l-4 4v84l4 26h-4l4 6v43l6 39h-6l6 6v99l4 22l-4 23v98l-6 4l6 6v111l-6 4l6 6v6l-6 39h6l-6 4v101l-4 6l4 4v6l-4 23h4l-4 16l4 4l-4 29v65l-6 23l6 16l-6 4h6l-6 6v7l-6 131h-7l7 6v6l-7 4v6h7l-11 66l-28 -4h-56 l-4 4h-6v-4l-4 4h-6l-35 -4q-29 0 -43 26z" />
<glyph unicode="u" horiz-adv-x="583" d="M0 408h6l-6 6v10l6 4v6l-6 6l6 6h-6l6 5v12l-6 6v4l6 6h-6l10 37l-4 6v6l17 160l-7 4l7 6h6l-6 7q10 45 10 120v6l-4 5l4 6v88l6 6v4h-6l6 6v6l-6 23l6 4v6l-6 23l6 4v6h-6l6 6v4l-6 45h6l-6 17l6 6v4l-6 6l6 39v153l-6 7l6 4v12l-6 33l6 6l-10 108l43 23l55 -23l-6 -6 v-14l6 -6l-6 -6q10 -82 10 -248h6l-6 -4v-121l-4 -6l4 -6v-164l-4 -6v-7h4l-4 -6v-4l4 -6q-6 -160 -14 -160l4 -6l-17 -164h7l-13 -32v-105l6 -6v-4h-6q31 -260 56 -260l-4 -4q10 -33 32 -33v4l4 -4h19q90 0 147 92l29 121h-6l6 6v39l-6 4l10 45l-4 4v84l-6 4l6 6v78l4 27 h-4l4 6l-10 88l6 17l-6 20l6 6l-6 6l6 6h-6l6 5v51l-6 20l6 6l-6 29v213l-6 6l6 4v6l-6 17l6 28v226l-6 104l12 33h33q47 0 55 -78l-6 -6q4 -43 10 -43l-4 -39v-88l-6 -4l6 -6v-23l-6 -6l6 -4v-29l-6 -4v-6h6l-6 -4v-6l6 -6l-6 -6v-5l6 -6l-6 -6v-65l6 -7v-4h-6l6 -16 l-6 -16h6l-6 -7v-12l6 -4l-6 -6v-4l6 -23l-6 -39l6 -110h4l-4 -4v-84l-6 -4l6 -6v-7l-6 -6l6 -4v-29l-6 -4l10 -51h-4l4 -4l-10 -154v-61l6 -4l-6 -6v-49q-35 -260 -94 -260q-37 -49 -121 -66q-137 0 -176 78q-33 80 -62 203l6 6v10l-6 6v4h6l-6 6v33q0 39 -10 62z" />
<glyph unicode="v" horiz-adv-x="651" d="M0 1380h6l-6 6v21l33 35h45q16 -113 72 -258h-7q39 -119 105 -594q33 -162 33 -205h6l6 23h-6l49 225h-6l22 88l-6 4l78 420l-6 16q14 0 22 72l11 33h-5l11 43h-6l45 149l32 10v-6l7 6h10q33 -16 33 -43l-43 -227l-33 -158h4l-23 -77h6l-49 -242h6l-65 -330h4l-33 -237h6 l-12 -37h6l-16 -74h6q0 -25 -39 -43q0 10 -55 16l-94 594l-11 23h7l-13 26h6q-66 434 -104 568z" />
<glyph unicode="w" horiz-adv-x="876" d="M0 1253l6 7q16 10 17 22h20q49 0 55 -72q94 -379 133 -594h-6l23 -104h-6l12 -29h-6l10 -49h-4l27 -164l-7 -6l13 -65h6q18 80 88 241l20 29h23q0 -23 59 -107l78 -137h6v156l4 20l-4 17l27 395l6 6h-6l29 199h-7q23 160 23 280v23q12 33 43 33t43 -39h6v-55l-10 -150v-4 l-6 -6v-4h6l-10 -72h4l-27 -133l4 -4l-14 -144h4l-16 -55h6l-6 -6v-43l-7 -29h7l-7 -16q0 -98 -10 -98l6 -7v-6l-12 -43v-32l-4 -7l4 -6l-4 -37v-84l-6 -20l6 -23v-77l-6 -4l10 -29l-4 -17l4 -6v-4q-14 -43 -33 -51h-49q-35 119 -133 264v6h-10l-43 -108l6 -6q-8 0 -35 -72 h-4l4 -6v-4q-16 -23 -43 -117h-33q-29 0 -51 16l6 7v10l-10 10l4 6v6l-4 6v5h4q-82 586 -121 743l6 4q-16 0 -26 107l-17 55h5z" />
<glyph unicode="x" horiz-adv-x="808" d="M0 1370l39 23l33 -7h16q39 -70 154 -440l51 -137l10 -43h4l199 389l22 49q41 51 76 156q39 53 74 53q33 -12 37 -33q-37 -123 -125 -258q-53 -119 -238 -467v-6q10 -55 82 -225l12 -10l-6 -6q29 -119 154 -385q0 -23 -66 -23q-78 121 -231 545q-14 0 -59 -117l-107 -223 q-23 -100 -33 -101q-10 -10 -69 -16q0 10 -19 10v29q45 111 45 137q16 0 49 94l89 203l55 105q-61 154 -232 671z" />
<glyph unicode="y" d="M0 1397l6 28h43l6 -6h6v6q31 0 82 -139q41 -70 50 -108q10 -2 61 -138l4 -6h6l6 29h-6q49 82 121 334h-4q19 55 37 55q66 -4 65 -45l-4 -4v-6l4 -4v-7q-70 -227 -147 -423l-6 -50v-12l6 -20l-6 -17l12 -88h-6l6 -6v-111l4 -36h-4l4 -7v-100l6 -20l-6 -7l16 -176l-4 -6 l11 -82h-7l7 -6v-14l-7 -6v-6h7l-7 -7v-16l7 -4v-6l-7 -6h7l-7 -4v-7l7 -16h-7q12 -37 13 -117l-33 -10h-16l-7 6l-6 -6h-6q-12 0 -26 154h6l-6 6v10l6 6l-6 6v23q0 82 -11 82l4 6l-10 69h6l-12 62h6l-10 59l4 6l-4 27v84l-6 4v6l6 6h-6l6 7v4l-6 16h6l-6 6v6l6 4l-12 62 l6 4l-10 74l4 4q0 86 -37 110q-55 166 -205 484z" />
<glyph unicode="z" horiz-adv-x="741" d="M0 12q0 20 43 94l123 297l-6 7q23 0 65 143l56 115h-7q88 209 172 483l70 221v4l-4 -4h-6v4l-66 -14v4l-6 -4h-6l-4 4q-23 -10 -62 -10h-104l-4 6l-6 -6h-49l-23 6l-22 -6l-23 33q0 20 51 20v6l4 -6l68 6h49l4 -6l6 6h13q63 0 88 12v-6l102 17q106 -31 107 -72v-4 q-39 -68 -84 -244l-4 -6v-4h4l-125 -346q-61 -197 -140 -342l-124 -301l-23 -56h160l6 5l14 -5l19 5v-5l4 5h51l174 12h12l23 -17l-6 -6v-6l6 -16q0 -27 -78 -27l-29 -10v4l-26 -10l-6 6l-82 -6h-50l-22 -6l-23 6h-16l-4 -6h-6v6l-6 -6h-66l-6 6l-16 -12l-4 6h-107l-4 6h-6 l-4 -6q-16 27 -29 26z" />
<glyph unicode="{" horiz-adv-x="434" d="M20 735v17q18 35 89 71q16 31 16 60h4l-4 6v6l4 20h-4l4 7l-4 26v33l4 6l-33 248h6l-6 6v23l6 4l-6 6v16l6 6v4l-6 7l6 6h-6l23 76h-4q14 70 82 120l49 23v-4l6 4h27q43 0 61 -33v-10l-45 -16l-4 4h-6q-51 0 -88 -131l6 -7l-6 -26v-45q0 -92 16 -148h-6l16 -110v-43l6 -6 l-6 -7v-6l6 -4v-6l-6 -27l6 -16l-6 -6h6q0 -96 -94 -154v-6q53 -86 68 -127l-6 -4v-6l10 -39h-4q14 -86 14 -203l-4 -6l4 -4v-6l-4 -29h4l-4 -6v-4l4 -6v-4h-4l4 -6l-14 -115l4 -6l-4 -29q0 -76 53 -76l35 -22l4 -33q-10 0 -10 -16l-82 -13q-88 51 -88 156v20l4 7v6l-4 6h4 l-4 4l10 78h-6l6 6v98l4 4l-10 52l6 4q-16 203 -43 247z" />
<glyph unicode="|" horiz-adv-x="292" d="M0 1430v18q0 11 39 31h22l17 -19h-6l32 -180l-6 -6l23 -135l-4 -9l10 -86h-6l16 -118h-6l12 -80h-6l13 -70h-7l7 -6v-172l4 -6l-4 -6v-6l4 -31h-4l4 -8v-13l-4 -6l4 -6v-110l6 -7l-6 -8l12 -178h-6l6 -6v-49l10 -219v-7l6 -6v-6l-6 -6l6 -6h-6l17 -98q0 -35 -62 -58v6 l-4 -6h-6q-27 0 -33 33l6 18l-10 93l4 6l-4 6l4 6h-4l4 6v6l-4 6l4 7l-4 24l-6 195l-6 6l6 6l-6 4h6l-6 6v8l-6 224l-5 43l5 6l-5 43v174l-6 31h6l-6 6v12q-14 354 -26 354l4 19l-4 18h4z" />
<glyph unicode="}" horiz-adv-x="479" d="M31 1524l32 26v-4l7 4h16q51 -6 98 -59q72 -61 72 -160l4 -55l-4 -59h4l-4 -7l-6 -202v-72q8 -111 39 -111h16l6 6q55 -39 56 -77q-68 0 -95 -183l7 -82h-7q10 -20 11 -61v-59l6 -7v-4l-6 -6h6l-6 -6v-4l6 -6l-6 -6v-66q0 -211 -99 -241q-72 -14 -71 -23l-7 6l-26 -6h-6 q-29 0 -33 16q0 57 104 68q45 16 45 70h-6l17 104l-6 6l6 6h-6l6 4v19l-6 20l6 6l-11 150h-12l6 4v137l11 49h-5l43 101q-78 41 -81 196l6 232l4 6l-4 4h4l-4 6l4 29v98q0 115 -82 160q-49 6 -49 33z" />
<glyph unicode="~" d="M104 573v23q25 98 66 98l18 6v5l5 -5l28 5l23 -5l14 5q0 -10 45 -23q0 -14 16 -14q0 -18 33 -39v-6h6q43 0 43 59l29 6q23 0 55 -16v-27q0 -47 -94 -78v6l-6 -6h-53q-47 14 -94 72l-17 10h-16l-23 -49l6 -16q-25 -23 -38 -23v6l-7 -6h-16z" />
<glyph unicode="&#xa1;" horiz-adv-x="270" d="M-6 846l6 16l-6 17q39 39 76 39l16 -39l-10 -23l6 -4v-6q-4 -43 -12 -43l6 -17q0 -72 10 -116l-4 -23l4 -26h-4l4 -7v-10l-4 -22l33 -236l-6 -6q16 -78 16 -137h-4l10 -43l-6 -6q16 -82 22 -281q16 -47 23 -199l-29 -49h-32q-10 0 -23 43h6l-6 6v56q-20 125 -27 297l-6 6 h6l-12 71h6l-10 33l4 4l-14 127l4 23l-4 6h4l-4 16l-23 226h4l-4 6v4l-10 237l4 5l-4 6h4zM-6 1018q0 45 65 76l23 6v-6l4 6h6q29 0 29 -45h4q0 -29 -82 -66q-33 0 -43 29h-6z" />
<glyph unicode="&#xa2;" horiz-adv-x="1138" />
<glyph unicode="&#xa3;" horiz-adv-x="763" d="M-41 756q23 45 51 45l60 -6v82l-4 6l4 6v4l-4 22h4l-4 7q0 164 65 252q14 43 82 110l121 78l110 33l7 -6h4l6 6h6q72 0 98 -72h-6l-20 -6h-19l-4 6l-6 -6h-4l-6 6q-158 -39 -238 -133q-66 -68 -98 -213h6l-6 -6v-72l-6 -6l6 -4v-6l-6 -17l6 -32l-6 -7l6 -26h45l4 4l6 -4 h88q57 0 72 -62v-12l-6 -4l6 -6l-6 -4h-6l-27 4v-4l-6 4h-78l-4 -4l-6 4l-27 -4l-6 4h-4l-23 -4h-16v-29l4 -4l-4 -6v-17h4l29 5v-5l6 5h4l23 -5l6 5v-5l4 5h22l6 -5l5 5h12l6 -5l4 5h49l6 -5l6 5q31 0 56 -27v-17q-35 -39 -78 -38l-6 6l-105 -13h-43l-12 -10v-215l-4 -6 l4 -4v-6l-4 -49h4l-4 -7l4 -26v-72l6 -33l-6 -22l6 -37l-6 -6v-6l6 -17h72l4 6l6 -6h6l82 17v-6l68 18l4 -6l133 16l4 -6v6l29 -22q0 -55 -45 -56q-147 -8 -148 -16l-6 6l-98 -22v6l-45 -12h-17q-143 4 -143 45l6 20l-6 6h6l-6 6v11l6 6l-6 6v176l-4 27h4l-4 6v141l4 62 l-4 16l4 16h-4l4 6q0 39 -39 39q-41 20 -47 37v19l53 32l29 -6v6l-6 5v6h6l-6 6v10l6 6l-16 17v6l-7 -6q-51 0 -100 49z" />
<glyph unicode="&#xa4;" horiz-adv-x="1013" />
<glyph unicode="&#xa5;" horiz-adv-x="1261" />
<glyph unicode="&#xa6;" horiz-adv-x="1013" />
<glyph unicode="&#xa7;" horiz-adv-x="1013" />
<glyph unicode="&#xa8;" horiz-adv-x="673" d="M217 1374v17l6 6l-6 6v10q1 17 62 33l4 -6l6 6q0 -16 16 -16q23 -23 23 -46q0 -20 -33 -43h-16l-7 7h-6l-6 -7q0 8 -43 33zM387 1374v17l6 6l-6 6v10q1 17 62 33l4 -6l6 6q0 -16 16 -16q23 -23 23 -46q0 -20 -33 -43h-16l-7 7h-6l-6 -7q0 8 -43 33z" />
<glyph unicode="&#xa9;" horiz-adv-x="1673" />
<glyph unicode="&#xaa;" horiz-adv-x="647" />
<glyph unicode="&#xab;" d="M31 455q0 35 137 127q156 120 199 143h10q0 -12 39 -29l10 -32q-106 -66 -287 -215l88 -43l6 6q18 -29 115 -56l29 -32v-23l-17 -16l-159 65q-147 70 -170 105zM266 477q0 20 133 121h4q23 -6 39 -29h7v-14l-89 -94q127 -18 144 -68q-10 -27 -39 -26q-193 59 -193 88z " />
<glyph unicode="&#xac;" horiz-adv-x="772" d="M45 707l33 10h22l6 -4l5 4h6l6 -4h4v4l6 -4h10l23 4l22 -4h11l6 4h6v-4l4 4h6l225 6v4l17 -4l16 4v-4l29 10l4 -6h6l23 6l16 -6l4 6v-6l29 12l6 -6h4l6 6q31 0 66 -55l6 -16l-6 -6v-23l6 -4l-6 -6l6 -27l-6 -6l6 -4v-12l-6 -17l6 -26v-23q0 -49 -43 -49q-31 0 -39 20v154 l-12 23h-66l-22 -5l-23 5h-33l-4 -5l-6 5h-27l-22 -5l-16 5l-7 -5v5l-6 -5h-190q-111 0 -111 27z" />
<glyph unicode="&#xad;" horiz-adv-x="659" d="M76 592v6q10 0 20 14l68 -4h39l4 4h6v-4l82 17v-7l143 23h49q10 -2 39 -49v-6l-12 -11l-14 5l-183 -23v6q-68 -16 -153 -16h-35l-33 10l-4 -4q-16 20 -16 39z" />
<glyph unicode="&#xae;" horiz-adv-x="1673" />
<glyph unicode="&#xaf;" horiz-adv-x="958" d="M37 1348v4l31 28l6 -6h47l6 6l4 -6h57l7 6l6 -6l250 23l6 -6h6l4 6h4l23 -6v6l4 -6h6l6 6h4l4 -6l37 6h111l6 6l6 -6h8l23 6l20 -6l16 10l5 -4h12l4 4l16 -4l27 4v-4l4 4h37l27 -33h-7l7 -6v-20q-6 -18 -31 -19h-6l-17 6l-26 -6h-15l-235 -4l-6 4l-6 -4v4l-5 -4h-47 l-43 4q-154 -14 -268 -14v-6l-4 6h-10l-6 -6l-5 6h-6l-20 -6l-4 6v-6l-6 6h-7l-4 -6l-6 6h-10l-4 -6h-6l-6 6v-6q-31 8 -31 39z" />
<glyph unicode="&#xb0;" horiz-adv-x="411" d="M113 1364q16 131 88 131v4l6 -4h10l4 4l29 -10v6q47 -25 72 -65l-7 -7v-6q4 -49 13 -49l-13 -33h-6v-16q-10 -61 -59 -62h-43q-45 0 -84 62q-4 45 -10 45zM172 1358q0 -39 39 -39q49 0 49 33l6 16q0 78 -49 78h-16l-29 -39l6 -6v-4l-6 -6v-7h6l-6 -6v-20z" />
<glyph unicode="&#xb1;" horiz-adv-x="681" d="M78 731q4 37 26 37l82 -4l78 10l-6 6v56l-4 32l4 23l-4 53l16 12q49 0 72 -49l-6 -6v-59l-6 -6l6 -7v-49h6l16 6v-6l4 6h121l13 -12q0 -27 10 -26q0 -14 -37 -23l-18 6l-5 -6v6l-6 -6h-32l-66 -4l4 -55v-13l-4 -6l4 -4v-55q0 -70 -39 -94l-43 22l6 94v92l-6 7v6l-78 -13 l-4 7h-22l-23 -7l-33 13v-6q-25 10 -26 22zM90 422v4q12 0 23 16l65 -4h39l4 4h6v-4l82 17v-6l144 22h51q8 -2 37 -49v-6l-11 -10l-16 4l-182 -23v6q-68 -16 -154 -16h-33l-32 10l-7 -4q-16 20 -16 39z" />
<glyph unicode="&#xb2;" horiz-adv-x="321" d="M0 1200l72 121l-6 4v6q18 0 45 105q-4 39 -17 39h-6q-27 0 -55 -39h-4q-27 12 -29 22v10l6 7v6l-6 6q45 49 78 49h6q92 -31 92 -94v-29l-16 -37l6 -6q-12 0 -12 -27q-16 0 -17 -22l-43 -94l4 6l19 -6q43 4 43 10q33 -10 49 -43q0 -14 -43 -33l-49 10l-29 -4h-39 q-31 0 -49 33z" />
<glyph unicode="&#xb3;" horiz-adv-x="292" d="M0 1204q6 29 33 43l39 -6h26l19 19h-6l6 4v12l-6 4l6 6v17l-51 -11q0 14 -27 23v10h-6q10 33 45 33h43l-4 26l4 33q0 55 -43 56h-45l-27 28v4q0 13 49 33h11l6 -4h6v4q70 -18 98 -70l10 -38v-50l7 -6v-6h-7l7 -4v-6q0 -29 -11 -29l4 -4v-33l-10 -45v-26q-10 0 -10 -23 l-23 -10v6l-32 -12v6l-7 -6h-16l-4 6l-35 -12q-27 6 -49 28z" />
<glyph unicode="&#xb4;" horiz-adv-x="464" d="M135 1450q57 137 98 137h19l27 -28q0 -27 -17 -33q-76 -111 -88 -111h-16q-12 0 -23 35z" />
<glyph unicode="&#xb5;" horiz-adv-x="1179" />
<glyph unicode="&#xb6;" horiz-adv-x="651" d="M0 1262v55q0 35 33 88q74 70 215 92q217 0 297 -78l-17 -137l7 -4l-7 -23v-45l-6 -4h6l-6 -28v-27l6 -6l-12 -49l6 -6l-6 -23v-27l6 -6q-8 0 -10 -33l4 -4l-4 -6v-110l-6 -4l10 -19l-4 -4v-6l4 -4l-4 -6l4 -33l-4 -29v-10l4 -6l-14 -115v-6l4 -4v-6l-4 -6v-7l4 -4h-4 q-6 -137 -19 -149h6v-4l-6 -6v-56l-4 -6l4 -6v-20l-4 -23l4 -23v-290l6 -6q-16 0 -16 -23q-72 10 -72 33h7l-13 39h6v6l-6 6v147l6 7l-10 61l4 4v12l-4 4h4v7l-4 6v16l4 4l-4 6v88l4 7h-4l10 26h-6l6 6l-6 7q12 23 13 69v39l6 6h-6l6 6l-6 4l6 19l4 203v6l-4 4h4l-4 6l4 4 l-4 6l4 17l-4 16h4v6l-4 6v17l4 39l-4 4l4 6v10l-4 6h4l-4 23l4 59v17h-23q-61 0 -131 18q-264 55 -264 154zM94 1282l4 -16l6 -4q0 -59 258 -107l29 6h33l10 117l-6 4l6 61v62q-24 27 -147 27h-29q-164 -25 -164 -150zM254 14l6 13l-4 61l4 4l-4 4l4 4h-4l4 4v5l-4 6l6 2 l-4 16l6 127l-6 4l6 4l-4 4h4l-4 4v5l8 147l-4 29l6 4l-2 28l11 115l-5 21h7l-7 4l2 8q6 233 -6 233l6 13l-4 12h4l-12 207v10q0 8 37 18h23l14 -14h-6l20 -119l-6 -4l14 -92l-6 -4l6 -57l-6 2l11 -80l-7 2l7 -55h-7l7 -45h-5l5 -5l-11 -112l6 -6l-6 -4v-5l4 -20h-6l4 -2 v-10l-6 -2l6 -6l-6 -72l4 -6l-6 -2v-119h-4l4 -4l-2 -33l-2 -143v-4l4 -7v-4l-6 -4l4 -4h-4l10 -65q-2 -23 -59 -33v4l-4 -2h-6q-27 2 -29 20z" />
<glyph unicode="&#xb7;" horiz-adv-x="202" d="M2 692v17l6 6l-6 6v10q0 17 61 33l5 -6l6 6q0 -16 16 -16q23 -23 23 -46q0 -20 -33 -43h-17l-6 7h-6l-6 -7q0 8 -43 33z" />
<glyph unicode="&#xb8;" horiz-adv-x="1024" />
<glyph unicode="&#xb9;" horiz-adv-x="256" d="M-14 1395l59 125l-4 6q6 22 16 22h17q45 0 49 -32h-6l6 -7v-16l-6 -6l6 -4v-45l-6 -6l6 -5v-28q2 -121 10 -121l-6 -4l12 -111q-20 -16 -39 -16q-27 0 -26 43h-6l6 6v4l-6 51h6l-6 4v52l-7 108h-4v-33q-23 0 -22 -16h-33q-10 0 -16 29z" />
<glyph unicode="&#xba;" horiz-adv-x="321" d="M2 1364q16 131 88 131v4l6 -4h10l7 4l26 -10v6q47 -25 72 -65l-4 -7v-6q2 -49 10 -49l-10 -33h-6v-16q-12 -61 -62 -62h-43q-45 0 -84 62q-4 45 -10 45zM63 1358q0 -39 37 -39q51 0 52 33l4 16q0 78 -50 78h-16l-27 -39l5 -6v-4l-5 -6v-7h5l-5 -6v-20z" />
<glyph unicode="&#xbb;" horiz-adv-x="546" d="M82 408v4q0 39 104 77v7q-8 16 -88 69l-6 23q9 22 19 22h10q49 -4 153 -110l7 -23q0 -23 -68 -49q-59 -49 -76 -49h-6q-39 0 -49 29zM127 297q72 72 131 98l131 94q-8 33 -190 183l-62 49q0 29 23 39q31 0 170 -121q117 -88 137 -156v-6q0 -39 -59 -59 q-162 -111 -209 -164l-19 -6q-53 18 -53 49z" />
<glyph unicode="&#xbc;" horiz-adv-x="1708" />
<glyph unicode="&#xbd;" horiz-adv-x="1964" />
<glyph unicode="&#xbe;" horiz-adv-x="1708" />
<glyph unicode="&#xbf;" d="M0 -2l10 47l-4 6q0 104 148 332l65 158q55 102 55 182v33l7 6l-7 6v4l7 6l-17 131q23 33 43 33l45 -39h-6q29 -63 29 -186v-4q0 -86 -105 -316q-166 -279 -166 -340l-10 -71l4 -6l-4 -27v-43l4 -6v-6h-4q16 -133 56 -183l49 -43l71 -16q86 0 144 111l10 75q-6 92 -16 121 q10 78 38 78h11q33 0 55 -242q-43 -125 -121 -182q-35 -33 -117 -43l-16 4l-4 -4h-6l-6 4h-4l-7 -4h-6q-84 20 -114 72q-72 61 -101 196q-2 49 -10 49l6 7v6l-6 39l6 55h-6zM231 1059v10q7 23 56 33q55 -29 55 -60l-16 -18v-4l-7 4l-6 -4h-10q-37 0 -72 39z" />
<glyph unicode="&#xc0;" d="M0 61v17l6 6l-6 4v6q72 244 121 588l22 127h-6l13 27h-7l27 127l-4 6q10 0 33 186q39 268 55 297l53 16l29 -20l6 -23h-6q8 -66 16 -65l-6 -6v-6q12 -23 29 -232l10 -39h-4l65 -329h-6l49 -242h-6l23 -78h-4l65 -344q10 0 11 -41q0 -25 -33 -43h-6l-4 6l-19 -6 q-33 0 -53 143l-12 11l6 16l-11 35h5l-27 102h-6l6 19l-72 395q-133 -6 -133 -16q-37 -293 -76 -418h7q-55 -147 -72 -258h-45zM174 1669l29 29h16q41 0 98 -139q-10 -33 -20 -33h-16q-14 0 -88 110q-18 6 -19 33zM238 776h4l100 10l-12 50h6l-39 176h6q-8 45 -16 45l6 6v4 l-6 16h-6l-39 -252z" />
<glyph unicode="&#xc1;" d="M0 61v17l6 6l-6 4v6q72 244 121 588l22 127h-6l13 27h-7l27 127l-4 6q10 0 33 186q39 268 55 297l53 16l29 -20l6 -23h-6q8 -66 16 -65l-6 -6v-6q12 -23 29 -232l10 -39h-4l65 -329h-6l49 -242h-6l23 -78h-4l65 -344q10 0 11 -41q0 -25 -33 -43h-6l-4 6l-19 -6 q-33 0 -53 143l-12 11l6 16l-11 35h5l-27 102h-6l6 19l-72 395q-133 -6 -133 -16q-37 -293 -76 -418h7q-55 -147 -72 -258h-45zM238 776h4l100 10l-12 50h6l-39 176h6q-8 45 -16 45l6 6v4l-6 16h-6l-39 -252zM305 1548q57 139 98 140h19l27 -29q0 -27 -17 -33 q-76 -111 -88 -110h-16q-12 0 -23 32z" />
<glyph unicode="&#xc2;" d="M0 61v17l6 6l-6 4v6q72 244 121 588l22 127h-6l13 27h-7l27 127l-4 6q10 0 33 186q39 268 55 297l53 16l29 -20l6 -23h-6q8 -66 16 -65l-6 -6v-6q12 -23 29 -232l10 -39h-4l65 -329h-6l49 -242h-6l23 -78h-4l65 -344q10 0 11 -41q0 -25 -33 -43h-6l-4 6l-19 -6 q-33 0 -53 143l-12 11l6 16l-11 35h5l-27 102h-6l6 19l-72 395q-133 -6 -133 -16q-37 -293 -76 -418h7q-55 -147 -72 -258h-45zM92 1462v13q43 63 137 157l45 39l-6 6v11l29 12l4 -6h6l23 6l4 -6v6q55 -18 55 -49l82 -144h6l-6 -6l23 -55q-33 -12 -33 -23q-76 0 -88 78 q-47 86 -66 105l-153 -154l-29 -6q-33 6 -33 16zM238 776h4l100 10l-12 50h6l-39 176h6q-8 45 -16 45l6 6v4l-6 16h-6l-39 -252z" />
<glyph unicode="&#xc3;" d="M0 61v17l6 6l-6 4v6q72 244 121 588l22 127h-6l13 27h-7l27 127l-4 6q10 0 33 186q39 268 55 297l53 16l29 -20l6 -23h-6q8 -66 16 -65l-6 -6v-6q12 -23 29 -232l10 -39h-4l65 -329h-6l49 -242h-6l23 -78h-4l65 -344q10 0 11 -41q0 -25 -33 -43h-6l-4 6l-19 -6 q-33 0 -53 143l-12 11l6 16l-11 35h5l-27 102h-6l6 19l-72 395q-133 -6 -133 -16q-37 -293 -76 -418h7q-55 -147 -72 -258h-45zM104 1501v23q25 98 66 98l18 6v6l5 -6l28 6l23 -6l14 6q0 -12 45 -22q0 -16 16 -17q0 -16 33 -39v-4h6q43 0 43 60l29 6q23 0 55 -16v-27 q0 -47 -94 -78v4l-6 -4h-53q-47 14 -94 72l-17 10h-16l-23 -49l6 -17q-25 -23 -38 -22v6l-7 -6h-16zM238 776h4l100 10l-12 50h6l-39 176h6q-8 45 -16 45l6 6v4l-6 16h-6l-39 -252z" />
<glyph unicode="&#xc4;" d="M0 61v17l6 6l-6 4v6q72 244 121 588l22 127h-6l13 27h-7l27 127l-4 6q10 0 33 186q39 268 55 297l53 16l29 -20l6 -23h-6q8 -66 16 -65l-6 -6v-6q12 -23 29 -232l10 -39h-4l65 -329h-6l49 -242h-6l23 -78h-4l65 -344q10 0 11 -41q0 -25 -33 -43h-6l-4 6l-19 -6 q-33 0 -53 143l-12 11l6 16l-11 35h5l-27 102h-6l6 19l-72 395q-133 -6 -133 -16q-37 -293 -76 -418h7q-55 -147 -72 -258h-45zM158 1538v18l6 5l-6 6v12q0 15 59 33l6 -6l6 6q0 -18 17 -19q20 -23 20 -43q0 -23 -33 -45h-16l-4 6h-6l-6 -6q0 10 -43 33zM238 776h4l100 10 l-12 50h6l-39 176h6q-8 45 -16 45l6 6v4l-6 16h-6l-39 -252zM328 1538v18l6 5l-6 6v12q0 15 59 33l6 -6l6 6q0 -18 17 -19q20 -23 20 -43q0 -23 -33 -45h-16l-4 6h-6l-6 -6q0 10 -43 33z" />
<glyph unicode="&#xc5;" d="M0 61v17l6 6l-6 4v6q72 244 121 588l22 127h-6l13 27h-7l27 127l-4 6q10 0 33 186q39 268 55 297l53 16l29 -20l6 -23h-6q8 -66 16 -65l-6 -6v-6q12 -23 29 -232l10 -39h-4l65 -329h-6l49 -242h-6l23 -78h-4l65 -344q10 0 11 -41q0 -25 -33 -43h-6l-4 6l-19 -6 q-33 0 -53 143l-12 11l6 16l-11 35h5l-27 102h-6l6 19l-72 395q-133 -6 -133 -16q-37 -293 -76 -418h7q-55 -147 -72 -258h-45zM195 1618q16 131 88 131v4l6 -4h10l4 4l29 -10v6q47 -25 71 -66l-6 -6v-6q4 -49 13 -49l-13 -33h-6v-16q-10 -61 -59 -62h-43q-45 0 -84 62 q-4 45 -10 45zM238 776h4l100 10l-12 50h6l-39 176h6q-8 45 -16 45l6 6v4l-6 16h-6l-39 -252zM256 1612q0 -39 37 -39q49 0 49 33l6 16q0 78 -49 78h-16l-27 -39l4 -6v-4l-4 -6v-7h4l-4 -6v-20z" />
<glyph unicode="&#xc6;" horiz-adv-x="2117" />
<glyph unicode="&#xc7;" horiz-adv-x="581" d="M-10 864l10 13h-4l4 6v6l-4 4l4 27v116l6 4v7h-6l33 170h-4q66 178 141 198l68 17v-7l4 7h39l6 -7l6 7h10q55 0 111 -50v-12q-16 -27 -56 -27h-12q-25 33 -108 33q-80 0 -111 -104q-20 -43 -43 -180h4l-10 -45l6 -23v-16l-6 -4l6 -19l-6 -47l6 -6l-6 -27v-94l6 -6l-6 -6 v-4l10 -72l-4 -6l4 -6h-4l14 -82h-4q10 -20 10 -72h7l-7 -4l33 -195h-6l12 -36h-6l23 -66l-6 -6v-6q51 -170 133 -170h2l139 71h29l16 -16q0 -47 -88 -78q-10 -6 -18.5 -13t-18.5 -11q4 -6 6 -11.5t4 -11.5q2 -4 2 -10v-2l9 -35v-8v-29v-4l2 -2q4 -10 -2 -18v-11v-6v-4 q2 -2 0 -8l-4 -31q2 -6 0 -10v-8q0 -10 -3 -15l-12 -73q-10 -37 -44.5 -52.5t-63.5 -15.5q-12 -2 -21 0q-14 0 -31 8q-10 6 -22 17.5t-12 27.5q0 10 8 19l4 4q6 8 16 8h9q4 0 6 -1t6 -1l31 -16q12 0 23 6t17 14q0 6 3 8l2 11q0 4 2 6v8l8 41q-4 6 0 12q0 6 2 10v4l2 15v8 l2 12v6q0 6 2 9v14l-2 4v10v6v13v6l-2 6v8q-4 18 -5 24.5t-3 8.5v2q-16 -4 -23 -4q-147 0 -192 205q-35 147 -49 307h-7l7 4v6l-13 55l6 7l-20 153l4 29v33q0 43 -10 69z" />
<glyph unicode="&#xc8;" horiz-adv-x="487" d="M0 1337l33 11l-4 6v6q0 16 98 33q0 14 215 26v6l4 -6l29 6h6q8 0 33 -39v-6q-45 -16 -78 -16v-4l-6 4q-170 -14 -170 -27l-6 4q0 -12 -82 -20v-6h12l4 -23l-4 -6l10 -98h-6l6 -4v-51h33l27 6v-6q102 23 204 22l11 -10l16 -39h-4l-84 -16v6l-143 -23l-56 4h-4v-37l4 -6 l-4 -6v-4l4 -45l-4 -33h4l-4 -6v-4q0 -29 10 -29l-6 -6v-33l6 -4l-6 -6v-16l6 -6l-10 -56l4 -4l-10 -65l6 -6v-7q-10 -10 -10 -55h-6l6 -4v-6l-6 -6v-4l6 -19l-6 -4v-6l6 -16l-6 -17h6l-6 -6v-66l-6 -6l6 -4v-16l-6 -6l6 -6v-5l-6 -51l6 -14l-6 -6h6l-6 -6l6 -23l-6 -16 l6 -27l-6 -16l6 -6h-6l6 -7v-20l-6 -6v-6l6 -4h6l-6 -23q0 -80 39 -111q0 -18 53 -43l160 17h39q16 -6 16 -35v-14q-12 0 -27 -23l-32 10l-23 -6v6q-76 -16 -172 -16l-53 29l-23 20l-26 55l-6 17l6 6v4l-13 29h7l-17 121l4 6h-4l4 6v59l-4 6l4 4v7l-4 16h4l-4 6v4l4 6v7 l-4 16l4 4h-4l4 6v6l-4 29l10 197h-6l13 16l-7 6v23l7 4v6l-7 4h7l-7 6v23l7 6l-7 6v4l7 84h-7l7 4v6l-7 4v6l7 23l-7 4l7 6h-7l7 6l-7 39v76l-10 137l4 6l-4 27v84zM86 1669l27 29h16q41 0 98 -139q-10 -33 -20 -33h-17q-14 0 -88 110q-16 6 -16 33z" />
<glyph unicode="&#xc9;" horiz-adv-x="487" d="M0 1337l33 11l-4 6v6q0 16 98 33q0 14 215 26v6l4 -6l29 6h6q8 0 33 -39v-6q-45 -16 -78 -16v-4l-6 4q-170 -14 -170 -27l-6 4q0 -12 -82 -20v-6h12l4 -23l-4 -6l10 -98h-6l6 -4v-51h33l27 6v-6q102 23 204 22l11 -10l16 -39h-4l-84 -16v6l-143 -23l-56 4h-4v-37l4 -6 l-4 -6v-4l4 -45l-4 -33h4l-4 -6v-4q0 -29 10 -29l-6 -6v-33l6 -4l-6 -6v-16l6 -6l-10 -56l4 -4l-10 -65l6 -6v-7q-10 -10 -10 -55h-6l6 -4v-6l-6 -6v-4l6 -19l-6 -4v-6l6 -16l-6 -17h6l-6 -6v-66l-6 -6l6 -4v-16l-6 -6l6 -6v-5l-6 -51l6 -14l-6 -6h6l-6 -6l6 -23l-6 -16 l6 -27l-6 -16l6 -6h-6l6 -7v-20l-6 -6v-6l6 -4h6l-6 -23q0 -80 39 -111q0 -18 53 -43l160 17h39q16 -6 16 -35v-14q-12 0 -27 -23l-32 10l-23 -6v6q-76 -16 -172 -16l-53 29l-23 20l-26 55l-6 17l6 6v4l-13 29h7l-17 121l4 6h-4l4 6v59l-4 6l4 4v7l-4 16h4l-4 6v4l4 6v7 l-4 16l4 4h-4l4 6v6l-4 29l10 197h-6l13 16l-7 6v23l7 4v6l-7 4h7l-7 6v23l7 6l-7 6v4l7 84h-7l7 4v6l-7 4v6l7 23l-7 4l7 6h-7l7 6l-7 39v76l-10 137l4 6l-4 27v84zM166 1559q57 139 98 139h17l26 -29q0 -27 -14 -33q-76 -111 -88 -110h-19q-10 0 -20 33z" />
<glyph unicode="&#xca;" horiz-adv-x="487" d="M0 1337l33 11l-4 6v6q0 16 98 33q0 14 215 26v6l4 -6l29 6h6q8 0 33 -39v-6q-45 -16 -78 -16v-4l-6 4q-170 -14 -170 -27l-6 4q0 -12 -82 -20v-6h12l4 -23l-4 -6l10 -98h-6l6 -4v-51h33l27 6v-6q102 23 204 22l11 -10l16 -39h-4l-84 -16v6l-143 -23l-56 4h-4v-37l4 -6 l-4 -6v-4l4 -45l-4 -33h4l-4 -6v-4q0 -29 10 -29l-6 -6v-33l6 -4l-6 -6v-16l6 -6l-10 -56l4 -4l-10 -65l6 -6v-7q-10 -10 -10 -55h-6l6 -4v-6l-6 -6v-4l6 -19l-6 -4v-6l6 -16l-6 -17h6l-6 -6v-66l-6 -6l6 -4v-16l-6 -6l6 -6v-5l-6 -51l6 -14l-6 -6h6l-6 -6l6 -23l-6 -16 l6 -27l-6 -16l6 -6h-6l6 -7v-20l-6 -6v-6l6 -4h6l-6 -23q0 -80 39 -111q0 -18 53 -43l160 17h39q16 -6 16 -35v-14q-12 0 -27 -23l-32 10l-23 -6v6q-76 -16 -172 -16l-53 29l-23 20l-26 55l-6 17l6 6v4l-13 29h7l-17 121l4 6h-4l4 6v59l-4 6l4 4v7l-4 16h4l-4 6v4l4 6v7 l-4 16l4 4h-4l4 6v6l-4 29l10 197h-6l13 16l-7 6v23l7 4v6l-7 4h7l-7 6v23l7 6l-7 6v4l7 84h-7l7 4v6l-7 4v6l7 23l-7 4l7 6h-7l7 6l-7 39v76l-10 137l4 6l-4 27v84zM12 1503v10q43 66 138 160l45 39l-7 4v13l27 10l6 -4h6l23 4l4 -4v4q55 -18 55 -49l82 -144h6l-6 -6 l23 -53q-33 -14 -33 -23q-76 0 -88 76q-47 88 -66 107l-153 -154l-29 -6q-33 6 -33 16z" />
<glyph unicode="&#xcb;" horiz-adv-x="487" d="M0 1337l33 11l-4 6v6q0 16 98 33q0 14 215 26v6l4 -6l29 6h6q8 0 33 -39v-6q-45 -16 -78 -16v-4l-6 4q-170 -14 -170 -27l-6 4q0 -12 -82 -20v-6h12l4 -23l-4 -6l10 -98h-6l6 -4v-51h33l27 6v-6q102 23 204 22l11 -10l16 -39h-4l-84 -16v6l-143 -23l-56 4h-4v-37l4 -6 l-4 -6v-4l4 -45l-4 -33h4l-4 -6v-4q0 -29 10 -29l-6 -6v-33l6 -4l-6 -6v-16l6 -6l-10 -56l4 -4l-10 -65l6 -6v-7q-10 -10 -10 -55h-6l6 -4v-6l-6 -6v-4l6 -19l-6 -4v-6l6 -16l-6 -17h6l-6 -6v-66l-6 -6l6 -4v-16l-6 -6l6 -6v-5l-6 -51l6 -14l-6 -6h6l-6 -6l6 -23l-6 -16 l6 -27l-6 -16l6 -6h-6l6 -7v-20l-6 -6v-6l6 -4h6l-6 -23q0 -80 39 -111q0 -18 53 -43l160 17h39q16 -6 16 -35v-14q-12 0 -27 -23l-32 10l-23 -6v6q-76 -16 -172 -16l-53 29l-23 20l-26 55l-6 17l6 6v4l-13 29h7l-17 121l4 6h-4l4 6v59l-4 6l4 4v7l-4 16h4l-4 6v4l4 6v7 l-4 16l4 4h-4l4 6v6l-4 29l10 197h-6l13 16l-7 6v23l7 4v6l-7 4h7l-7 6v23l7 6l-7 6v4l7 84h-7l7 4v6l-7 4v6l7 23l-7 4l7 6h-7l7 6l-7 39v76l-10 137l4 6l-4 27v84zM68 1538v18l6 5l-6 6v12q0 15 59 33l6 -6l6 6q0 -18 17 -19q20 -23 20 -43q0 -23 -33 -45h-16l-4 6h-6 l-6 -6q0 10 -43 33zM238 1538v18l6 5l-6 6v12q0 15 61 33l4 -6l6 6q0 -18 17 -19q20 -23 20 -43q0 -23 -33 -45h-14l-6 6h-6l-6 -6q0 10 -43 33z" />
<glyph unicode="&#xcc;" horiz-adv-x="231" d="M-55 1669l28 29h17q41 0 98 -139q-10 -33 -22 -33h-17q-12 0 -88 110q-16 6 -16 33zM0 1397q41 28 78 28h6l4 -18l-4 -4l4 -55v-33l6 -6v-4h-6l6 -7v-71l4 -6l-4 -4l4 -39v-62l6 -6l-6 -4l6 -29v-69l7 -7l-7 -6v-20l7 -6l-7 -6v-7l7 -16h-7l7 -16l-7 -23l7 -14l-7 -23h7 l-7 -6v-4l7 -45h-7l7 -16l10 -447l6 -4v-6l-6 -6q10 -53 10 -160v-4l6 -6v-6h-6l6 -4v-7q0 -16 -20 -39l10 -75q-16 0 -16 -19q-33 0 -45 -10q-33 0 -33 49h-4l4 6l-4 29v53l-6 6l10 88l-4 127h-6l6 4l-6 111v16l-7 27h7l-7 6v13l7 4l-7 6v6l7 4l-7 6v131l7 6l-7 7v65l-6 6 l6 4v45l-6 6l6 5v133l-6 20l6 23l-6 22h6l-6 6v154l-4 4l4 6l-4 39v88z" />
<glyph unicode="&#xcd;" horiz-adv-x="210" d="M0 1397q41 28 78 28h6l4 -18l-4 -4l4 -55v-33l6 -6v-4h-6l6 -7v-71l4 -6l-4 -4l4 -39v-62l6 -6l-6 -4l6 -29v-69l7 -7l-7 -6v-20l7 -6l-7 -6v-7l7 -16h-7l7 -16l-7 -23l7 -14l-7 -23h7l-7 -6v-4l7 -45h-7l7 -16l10 -447l6 -4v-6l-6 -6q10 -53 10 -160v-4l6 -6v-6h-6l6 -4 v-7q0 -16 -20 -39l10 -75q-16 0 -16 -19q-33 0 -45 -10q-33 0 -33 49h-4l4 6l-4 29v53l-6 6l10 88l-4 127h-6l6 4l-6 111v16l-7 27h7l-7 6v13l7 4l-7 6v6l7 4l-7 6v131l7 6l-7 7v65l-6 6l6 4v45l-6 6l6 5v133l-6 20l6 23l-6 22h6l-6 6v154l-4 4l4 6l-4 39v88zM25 1559 q59 139 100 139h16l27 -29q0 -27 -16 -33q-74 -111 -89 -110h-16q-10 0 -22 33z" />
<glyph unicode="&#xce;" horiz-adv-x="344" d="M-8 1462v13q45 63 137 157l45 39l-6 6v11l29 12l4 -6h6l22 6l4 -6v6q55 -18 56 -49l84 -144h4l-4 -6l20 -55q-33 -12 -33 -23q-76 0 -88 78q-47 86 -65 105l-154 -154l-28 -6q-33 6 -33 16zM100 1397q41 28 76 28h6l6 -18l-6 -4l6 -55v-33l7 -6v-4h-7l7 -7v-71l4 -6 l-4 -4l4 -39v-62l6 -6l-6 -4l6 -29v-69l6 -7l-6 -6v-20l6 -6l-6 -6v-7l6 -16h-6l6 -16l-6 -23l6 -14l-6 -23h6l-6 -6v-4l6 -45h-6l6 -16l10 -447l6 -4v-6l-6 -6q10 -53 10 -160v-4l7 -6v-6h-7l7 -4v-7q0 -16 -23 -39l12 -75q-16 0 -16 -19q-35 0 -45 -10q-33 0 -33 49h-6 l6 6l-6 29v53l-4 6l10 88l-6 127h-4l4 4l-4 111v16l-6 27h6l-6 6v13l6 4l-6 6v6l6 4l-6 6v131l6 6l-6 7v65l-6 6l6 4v45l-6 6l6 5v133l-6 20l6 23l-6 22h6l-6 6v154l-5 4l5 6l-5 39v88z" />
<glyph unicode="&#xcf;" horiz-adv-x="337" d="M16 1538v18l7 5l-7 6v12q1 15 62 33l6 -6l4 6q0 -18 16 -19q23 -23 23 -43q0 -23 -33 -45h-16l-6 6h-4l-7 -6q0 10 -45 33zM100 1397q41 28 76 28h6l6 -18l-6 -4l6 -55v-33l7 -6v-4h-7l7 -7v-71l4 -6l-4 -4l4 -39v-62l6 -6l-6 -4l6 -29v-69l6 -7l-6 -6v-20l6 -6l-6 -6v-7 l6 -16h-6l6 -16l-6 -23l6 -14l-6 -23h6l-6 -6v-4l6 -45h-6l6 -16l10 -447l6 -4v-6l-6 -6q10 -53 10 -160v-4l7 -6v-6h-7l7 -4v-7q0 -16 -23 -39l12 -75q-16 0 -16 -19q-35 0 -45 -10q-33 0 -33 49h-6l6 6l-6 29v53l-4 6l10 88l-6 127h-4l4 4l-4 111v16l-6 27h6l-6 6v13l6 4 l-6 6v6l6 4l-6 6v131l6 6l-6 7v65l-6 6l6 4v45l-6 6l6 5v133l-6 20l6 23l-6 22h6l-6 6v154l-5 4l5 6l-5 39v88zM186 1538v18l7 5l-7 6v12q1 15 62 33l6 -6l4 6q0 -18 16 -19q23 -23 23 -43q0 -23 -33 -45h-16l-6 6h-4l-7 -6q0 10 -45 33z" />
<glyph unicode="&#xd0;" horiz-adv-x="538" d="M-106 700l10 68l6 -6h4l6 6h4l23 -6v6l6 -6h4l4 6h6l6 -6l35 6h111l6 4l4 -4h10l23 4l20 -4l17 10l4 -6h10l6 6l17 -6l24 6v-6l6 6h37l27 -33h-6l6 -6v-20q-6 -18 -31 -19h-6l-17 7l-24 -7h-16l-236 -4l-6 4l-6 -4v4l-4 -4h-47zM70 29h6l-6 4v6l6 39h-6l12 65l-6 7v4 l10 61h-4l4 4v55l6 7v6h-6l6 6v4l-6 6l6 4v45l-6 6v4h6l-6 7v12l6 27h-6l6 6v121l-6 20l6 6v6l-6 4l6 29v23l-6 4l6 6v72l6 26l-6 6h6l-6 6v70l-6 41h6l-6 14l6 189l6 16h-6l6 4v6l-6 27l6 88v39q0 100 -16 100q10 35 33 43h55q143 -162 192 -270l-6 -4q33 -43 62 -176 l10 -72h-6l16 -88h-6l6 -4v-78l-6 -6l6 -4v-12l-6 -56l6 -6l-6 -4h6l-6 -6v-10l6 -6l-6 -7v-43l-4 -26h4l-14 -101h4l-4 -6v-26l-19 -88l7 -7q-8 -2 -44 -114l-51 -66l-59 -55v-10h-6l-4 4h-6q-45 -33 -105 -33h-6v10h-23q-27 0 -32 19zM154 94l16 -22h10q43 0 111 114 q53 139 53 248l-4 6q10 53 10 160v170q0 29 -10 29l4 4v6q-4 82 -14 82l4 6q0 84 -98 268l-56 72h-6v-49l6 -27h-6l6 -6v-4l-6 -6v-6h6l-6 -6v-17l6 -6l-6 -4v-6l6 -17l-6 -16h6l-6 -4v-209l6 -6l-6 -6l6 -29v-59l6 -6q-12 -25 -12 -70v-6l6 -23l-6 -22v-11l6 -22l-6 -4 l6 -35l-6 -197l6 -28l-22 -170h6l-10 -17l4 -6v-6z" />
<glyph unicode="&#xd1;" horiz-adv-x="555" d="M0 182l6 4h-6l6 7v77l-6 4l6 7l4 202v121l-4 35l4 4v6l-4 62l4 4l-4 28v111l-6 4l6 6v23l-6 4l6 6v72l4 6v4h-4l4 6v33l-4 22l4 23v37l6 6v4h-6l6 6v12l-6 5l13 65l-7 23l13 65h-6l6 6v62l4 6l-4 4v16l4 23l-4 22v5l26 28v-6l6 6h43q29 0 72 -303h6l-6 -4v-6 q10 0 43 -281l12 -22h-6l39 -164l-6 -6v-6l12 -27h-6q33 -109 33 -160h6v43l-6 6v7l6 20l-6 6l6 6h-6l6 4v84l-6 4l6 7v26l-6 6l6 7v16l-6 4l6 6l-6 29v26l6 7l-6 6v88l6 33l-6 4l6 39v61l-6 4l6 6v209l4 23l-4 20l4 6h-4l4 6v43l6 107l-6 14h6l-6 6v7q0 20 35 43 q45 0 66 -27v-55l-13 -66l6 -65l-6 -23l6 -6v-4l-6 -6v-6l6 -7l-6 -26v-43l6 -23l-6 -22l6 -6v-5l-6 -18h6l-6 -4v-62l-4 -55h4l-4 -4v-192l-6 -7l6 -6v-20l-6 -232h6l-6 -6v-43l6 -6v-4h-6l6 -6v-88l4 -39h-4l17 -98l-23 -177l6 -6h-6l6 -6v-26q-8 -23 -39 -23h-6l-27 6 l-6 -6l-26 78l6 6l-6 4h6l-29 150l-22 81h6l-105 447h-6l6 4v6l-26 115l4 6l-10 104h-7l-6 -94l-4 -6v-4l4 -6h-4l4 -4l6 -166v-154q0 -121 -10 -192h4l-4 -6v-76l-6 -6l6 -6l-6 -56v-20l-4 -6l4 -6v-62l-4 -4l4 -16l-4 -7l4 -26v-12l-4 -27l-6 4l-6 -4h-11q-55 6 -55 22z M31 1552v23q25 98 65 98l17 6v4l6 -4l26 4l23 -4l16 4q0 -10 43 -20q0 -16 19 -16q0 -18 33 -39v-6h4q45 0 45 61l26 4q25 0 56 -16v-27q0 -45 -95 -78v6l-4 -6h-55q-45 14 -94 72l-17 10h-16l-23 -49l7 -16q-25 -23 -39 -23v6l-4 -6h-19z" />
<glyph unicode="&#xd2;" d="M0 922l6 6v10l-6 6l6 4v6l-6 7q20 389 117 450q43 39 147 39h23l6 -6l4 6q61 0 137 -98h6l-6 -6l55 -127l-6 -7l19 -143l-6 -14l6 -19l-6 -4l6 -6h-6l6 -4v-133l-6 -6l6 -4v-117l4 -4l-4 -6v-154l4 -6v-6h-4l4 -4l-4 -29v-209l-6 -4v-6l6 -6l-6 -6h6l-13 -27l7 -6 q-16 -113 -62 -209q-111 -111 -241 -111q-88 0 -132 156l-18 115l6 6l-33 297l7 16h-7l7 4v6l-7 6l7 7l-13 98h6l-6 4v143l-4 39h4zM98 905l6 -6v-59l7 -6v-7h-7l7 -4v-94l6 -166h4l-4 -4l10 -78l-6 -6l22 -176h-6l6 -4v-43l7 -39h-7q0 -78 56 -166h10q41 0 137 78 q27 0 55 164l7 28l-7 5l7 28v4l-7 6l13 33l-6 17l6 16l-6 6l6 6h-6l6 17l-6 55l6 65l-6 115h-7l7 6v88l-7 27h7l-7 16l7 7v6l-7 6v4l7 33h-7l7 6v6l-7 4l7 6v6l-7 4l7 7v6l-7 33h7l-7 6v10h7q-10 176 -17 176l4 4q-10 102 -53 176q-45 68 -104 68h-7q-69 0 -104 -137h4 q-20 -37 -20 -117v-17l-7 -6l7 -4l-7 -28v-50l-6 -6l6 -4v-6l-6 -33h6l-6 -6v-33l6 -20l-6 -6v-6l6 -17h-6zM125 1669l29 29h16q41 0 98 -139q-12 -33 -22 -33h-17q-14 0 -88 110q-16 6 -16 33z" />
<glyph unicode="&#xd3;" d="M0 922l6 6v10l-6 6l6 4v6l-6 7q20 389 117 450q43 39 147 39h23l6 -6l4 6q61 0 137 -98h6l-6 -6l55 -127l-6 -7l19 -143l-6 -14l6 -19l-6 -4l6 -6h-6l6 -4v-133l-6 -6l6 -4v-117l4 -4l-4 -6v-154l4 -6v-6h-4l4 -4l-4 -29v-209l-6 -4v-6l6 -6l-6 -6h6l-13 -27l7 -6 q-16 -113 -62 -209q-111 -111 -241 -111q-88 0 -132 156l-18 115l6 6l-33 297l7 16h-7l7 4v6l-7 6l7 7l-13 98h6l-6 4v143l-4 39h4zM98 905l6 -6v-59l7 -6v-7h-7l7 -4v-94l6 -166h4l-4 -4l10 -78l-6 -6l22 -176h-6l6 -4v-43l7 -39h-7q0 -78 56 -166h10q41 0 137 78 q27 0 55 164l7 28l-7 5l7 28v4l-7 6l13 33l-6 17l6 16l-6 6l6 6h-6l6 17l-6 55l6 65l-6 115h-7l7 6v88l-7 27h7l-7 16l7 7v6l-7 6v4l7 33h-7l7 6v6l-7 4l7 6v6l-7 4l7 7v6l-7 33h7l-7 6v10h7q-10 176 -17 176l4 4q-10 102 -53 176q-45 68 -104 68h-7q-69 0 -104 -137h4 q-20 -37 -20 -117v-17l-7 -6l7 -4l-7 -28v-50l-6 -6l6 -4v-6l-6 -33h6l-6 -6v-33l6 -20l-6 -6v-6l6 -17h-6zM205 1559q57 139 98 139h19l26 -29q0 -27 -16 -33q-76 -111 -88 -110h-17q-12 0 -22 33z" />
<glyph unicode="&#xd4;" d="M0 922l6 6v10l-6 6l6 4v6l-6 7q20 389 117 450q43 39 147 39h23l6 -6l4 6q61 0 137 -98h6l-6 -6l55 -127l-6 -7l19 -143l-6 -14l6 -19l-6 -4l6 -6h-6l6 -4v-133l-6 -6l6 -4v-117l4 -4l-4 -6v-154l4 -6v-6h-4l4 -4l-4 -29v-209l-6 -4v-6l6 -6l-6 -6h6l-13 -27l7 -6 q-16 -113 -62 -209q-111 -111 -241 -111q-88 0 -132 156l-18 115l6 6l-33 297l7 16h-7l7 4v6l-7 6l7 7l-13 98h6l-6 4v143l-4 39h4zM61 1493v10q45 66 140 160l43 39l-6 4v12l28 11l4 -5h6l23 5l4 -5v5q55 -18 55 -50l84 -143h4l-4 -4l23 -55q-35 -14 -35 -23q-76 0 -88 78 q-45 86 -66 104l-153 -153l-29 -6q-33 6 -33 16zM98 905l6 -6v-59l7 -6v-7h-7l7 -4v-94l6 -166h4l-4 -4l10 -78l-6 -6l22 -176h-6l6 -4v-43l7 -39h-7q0 -78 56 -166h10q41 0 137 78q27 0 55 164l7 28l-7 5l7 28v4l-7 6l13 33l-6 17l6 16l-6 6l6 6h-6l6 17l-6 55l6 65l-6 115 h-7l7 6v88l-7 27h7l-7 16l7 7v6l-7 6v4l7 33h-7l7 6v6l-7 4l7 6v6l-7 4l7 7v6l-7 33h7l-7 6v10h7q-10 176 -17 176l4 4q-10 102 -53 176q-45 68 -104 68h-7q-69 0 -104 -137h4q-20 -37 -20 -117v-17l-7 -6l7 -4l-7 -28v-50l-6 -6l6 -4v-6l-6 -33h6l-6 -6v-33l6 -20l-6 -6v-6 l6 -17h-6z" />
<glyph unicode="&#xd5;" d="M0 922l6 6v10l-6 6l6 4v6l-6 7q20 389 117 450q43 39 147 39h23l6 -6l4 6q61 0 137 -98h6l-6 -6l55 -127l-6 -7l19 -143l-6 -14l6 -19l-6 -4l6 -6h-6l6 -4v-133l-6 -6l6 -4v-117l4 -4l-4 -6v-154l4 -6v-6h-4l4 -4l-4 -29v-209l-6 -4v-6l6 -6l-6 -6h6l-13 -27l7 -6 q-16 -113 -62 -209q-111 -111 -241 -111q-88 0 -132 156l-18 115l6 6l-33 297l7 16h-7l7 4v6l-7 6l7 7l-13 98h6l-6 4v143l-4 39h4zM66 1501v23q25 98 65 98l16 6v6l7 -6l26 6l23 -6l16 6q0 -12 43 -22q0 -16 19 -17q0 -16 32 -39v-4h4q45 0 45 60l27 6q25 0 55 -16v-27 q0 -47 -94 -78v4l-4 -4h-55q-45 14 -94 72l-17 10h-16l-23 -49l6 -17q-25 -23 -38 -22v6l-5 -6h-18zM98 905l6 -6v-59l7 -6v-7h-7l7 -4v-94l6 -166h4l-4 -4l10 -78l-6 -6l22 -176h-6l6 -4v-43l7 -39h-7q0 -78 56 -166h10q41 0 137 78q27 0 55 164l7 28l-7 5l7 28v4l-7 6 l13 33l-6 17l6 16l-6 6l6 6h-6l6 17l-6 55l6 65l-6 115h-7l7 6v88l-7 27h7l-7 16l7 7v6l-7 6v4l7 33h-7l7 6v6l-7 4l7 6v6l-7 4l7 7v6l-7 33h7l-7 6v10h7q-10 176 -17 176l4 4q-10 102 -53 176q-45 68 -104 68h-7q-69 0 -104 -137h4q-20 -37 -20 -117v-17l-7 -6l7 -4l-7 -28 v-50l-6 -6l6 -4v-6l-6 -33h6l-6 -6v-33l6 -20l-6 -6v-6l6 -17h-6z" />
<glyph unicode="&#xd6;" d="M0 922l6 6v10l-6 6l6 4v6l-6 7q20 389 117 450q43 39 147 39h23l6 -6l4 6q61 0 137 -98h6l-6 -6l55 -127l-6 -7l19 -143l-6 -14l6 -19l-6 -4l6 -6h-6l6 -4v-133l-6 -6l6 -4v-117l4 -4l-4 -6v-154l4 -6v-6h-4l4 -4l-4 -29v-209l-6 -4v-6l6 -6l-6 -6h6l-13 -27l7 -6 q-16 -113 -62 -209q-111 -111 -241 -111q-88 0 -132 156l-18 115l6 6l-33 297l7 16h-7l7 4v6l-7 6l7 7l-13 98h6l-6 4v143l-4 39h4zM98 905l6 -6v-59l7 -6v-7h-7l7 -4v-94l6 -166h4l-4 -4l10 -78l-6 -6l22 -176h-6l6 -4v-43l7 -39h-7q0 -78 56 -166h10q41 0 137 78 q27 0 55 164l7 28l-7 5l7 28v4l-7 6l13 33l-6 17l6 16l-6 6l6 6h-6l6 17l-6 55l6 65l-6 115h-7l7 6v88l-7 27h7l-7 16l7 7v6l-7 6v4l7 33h-7l7 6v6l-7 4l7 6v6l-7 4l7 7v6l-7 33h7l-7 6v10h7q-10 176 -17 176l4 4q-10 102 -53 176q-45 68 -104 68h-7q-69 0 -104 -137h4 q-20 -37 -20 -117v-17l-7 -6l7 -4l-7 -28v-50l-6 -6l6 -4v-6l-6 -33h6l-6 -6v-33l6 -20l-6 -6v-6l6 -17h-6zM106 1538v18l7 5l-7 6v12q1 15 62 33l4 -6l6 6q0 -18 17 -19q23 -23 22 -43q0 -23 -33 -45h-16l-6 6h-4l-6 -6q0 10 -46 33zM276 1538v18l7 5l-7 6v12q1 15 62 33 l4 -6l6 6q0 -18 17 -19q23 -23 22 -43q0 -23 -33 -45h-16l-6 6h-4l-6 -6q0 10 -46 33z" />
<glyph unicode="&#xd7;" horiz-adv-x="434" d="M0 795l10 22q74 0 150 -104h6q0 10 53 55q45 66 55 66l62 -23q0 -27 -117 -141l74 -78l43 -55v-23q0 -10 -39 -16v6l-4 -6h-19q-45 66 -98 116q-16 -2 -65 -88q-25 -39 -95 -39l-10 33l115 150q-121 111 -121 125z" />
<glyph unicode="&#xd8;" horiz-adv-x="1613" />
<glyph unicode="&#xd9;" horiz-adv-x="583" d="M0 408h6l-6 6v10l6 4v6l-6 6l6 6h-6l6 5v12l-6 6v4l6 6h-6l10 37l-4 6v6l17 160l-7 4l7 6h6l-6 7q10 45 10 120v6l-4 5l4 6v88l6 6v4h-6l6 6v6l-6 23l6 4v6l-6 23l6 4v6h-6l6 6v4l-6 45h6l-6 17l6 6v4l-6 6l6 39v153l-6 7l6 4v12l-6 33l6 6l-10 108l43 23l55 -23l-6 -6 v-14l6 -6l-6 -6q10 -82 10 -248h6l-6 -4v-121l-4 -6l4 -6v-164l-4 -6v-7h4l-4 -6v-4l4 -6q-6 -160 -14 -160l4 -6l-17 -164h7l-13 -32v-105l6 -6v-4h-6q31 -260 56 -260l-4 -4q10 -33 32 -33v4l4 -4h19q90 0 147 92l29 121h-6l6 6v39l-6 4l10 45l-4 4v84l-6 4l6 6v78l4 27 h-4l4 6l-10 88l6 17l-6 20l6 6l-6 6l6 6h-6l6 5v51l-6 20l6 6l-6 29v213l-6 6l6 4v6l-6 17l6 28v226l-6 104l12 33h33q47 0 55 -78l-6 -6q4 -43 10 -43l-4 -39v-88l-6 -4l6 -6v-23l-6 -6l6 -4v-29l-6 -4v-6h6l-6 -4v-6l6 -6l-6 -6v-5l6 -6l-6 -6v-65l6 -7v-4h-6l6 -16 l-6 -16h6l-6 -7v-12l6 -4l-6 -6v-4l6 -23l-6 -39l6 -110h4l-4 -4v-84l-6 -4l6 -6v-7l-6 -6l6 -4v-29l-6 -4l10 -51h-4l4 -4l-10 -154v-61l6 -4l-6 -6v-49q-35 -260 -94 -260q-37 -49 -121 -66q-137 0 -176 78q-33 80 -62 203l6 6v10l-6 6v4h6l-6 6v33q0 39 -10 62zM145 1669 l27 29h16q41 0 101 -139q-12 -33 -23 -33h-16q-14 0 -88 110q-16 6 -17 33z" />
<glyph unicode="&#xda;" horiz-adv-x="583" d="M0 408h6l-6 6v10l6 4v6l-6 6l6 6h-6l6 5v12l-6 6v4l6 6h-6l10 37l-4 6v6l17 160l-7 4l7 6h6l-6 7q10 45 10 120v6l-4 5l4 6v88l6 6v4h-6l6 6v6l-6 23l6 4v6l-6 23l6 4v6h-6l6 6v4l-6 45h6l-6 17l6 6v4l-6 6l6 39v153l-6 7l6 4v12l-6 33l6 6l-10 108l43 23l55 -23l-6 -6 v-14l6 -6l-6 -6q10 -82 10 -248h6l-6 -4v-121l-4 -6l4 -6v-164l-4 -6v-7h4l-4 -6v-4l4 -6q-6 -160 -14 -160l4 -6l-17 -164h7l-13 -32v-105l6 -6v-4h-6q31 -260 56 -260l-4 -4q10 -33 32 -33v4l4 -4h19q90 0 147 92l29 121h-6l6 6v39l-6 4l10 45l-4 4v84l-6 4l6 6v78l4 27 h-4l4 6l-10 88l6 17l-6 20l6 6l-6 6l6 6h-6l6 5v51l-6 20l6 6l-6 29v213l-6 6l6 4v6l-6 17l6 28v226l-6 104l12 33h33q47 0 55 -78l-6 -6q4 -43 10 -43l-4 -39v-88l-6 -4l6 -6v-23l-6 -6l6 -4v-29l-6 -4v-6h6l-6 -4v-6l6 -6l-6 -6v-5l6 -6l-6 -6v-65l6 -7v-4h-6l6 -16 l-6 -16h6l-6 -7v-12l6 -4l-6 -6v-4l6 -23l-6 -39l6 -110h4l-4 -4v-84l-6 -4l6 -6v-7l-6 -6l6 -4v-29l-6 -4l10 -51h-4l4 -4l-10 -154v-61l6 -4l-6 -6v-49q-35 -260 -94 -260q-37 -49 -121 -66q-137 0 -176 78q-33 80 -62 203l6 6v10l-6 6v4h6l-6 6v33q0 39 -10 62zM205 1559 q57 139 98 139h19l26 -29q0 -27 -16 -33q-76 -111 -88 -110h-17q-12 0 -22 33z" />
<glyph unicode="&#xdb;" horiz-adv-x="583" d="M0 408h6l-6 6v10l6 4v6l-6 6l6 6h-6l6 5v12l-6 6v4l6 6h-6l10 37l-4 6v6l17 160l-7 4l7 6h6l-6 7q10 45 10 120v6l-4 5l4 6v88l6 6v4h-6l6 6v6l-6 23l6 4v6l-6 23l6 4v6h-6l6 6v4l-6 45h6l-6 17l6 6v4l-6 6l6 39v153l-6 7l6 4v12l-6 33l6 6l-10 108l43 23l55 -23l-6 -6 v-14l6 -6l-6 -6q10 -82 10 -248h6l-6 -4v-121l-4 -6l4 -6v-164l-4 -6v-7h4l-4 -6v-4l4 -6q-6 -160 -14 -160l4 -6l-17 -164h7l-13 -32v-105l6 -6v-4h-6q31 -260 56 -260l-4 -4q10 -33 32 -33v4l4 -4h19q90 0 147 92l29 121h-6l6 6v39l-6 4l10 45l-4 4v84l-6 4l6 6v78l4 27 h-4l4 6l-10 88l6 17l-6 20l6 6l-6 6l6 6h-6l6 5v51l-6 20l6 6l-6 29v213l-6 6l6 4v6l-6 17l6 28v226l-6 104l12 33h33q47 0 55 -78l-6 -6q4 -43 10 -43l-4 -39v-88l-6 -4l6 -6v-23l-6 -6l6 -4v-29l-6 -4v-6h6l-6 -4v-6l6 -6l-6 -6v-5l6 -6l-6 -6v-65l6 -7v-4h-6l6 -16 l-6 -16h6l-6 -7v-12l6 -4l-6 -6v-4l6 -23l-6 -39l6 -110h4l-4 -4v-84l-6 -4l6 -6v-7l-6 -6l6 -4v-29l-6 -4l10 -51h-4l4 -4l-10 -154v-61l6 -4l-6 -6v-49q-35 -260 -94 -260q-37 -49 -121 -66q-137 0 -176 78q-33 80 -62 203l6 6v10l-6 6v4h6l-6 6v33q0 39 -10 62zM57 1563 v12q43 63 138 158l45 39l-7 6v10l27 10l6 -4h6l23 4l4 -4v4q55 -16 55 -49l82 -141h6l-6 -6l23 -56q-33 -12 -33 -22q-76 0 -88 78q-47 86 -66 104l-153 -154l-29 -6q-33 6 -33 17z" />
<glyph unicode="&#xdc;" horiz-adv-x="583" d="M0 408h6l-6 6v10l6 4v6l-6 6l6 6h-6l6 5v12l-6 6v4l6 6h-6l10 37l-4 6v6l17 160l-7 4l7 6h6l-6 7q10 45 10 120v6l-4 5l4 6v88l6 6v4h-6l6 6v6l-6 23l6 4v6l-6 23l6 4v6h-6l6 6v4l-6 45h6l-6 17l6 6v4l-6 6l6 39v153l-6 7l6 4v12l-6 33l6 6l-10 108l43 23l55 -23l-6 -6 v-14l6 -6l-6 -6q10 -82 10 -248h6l-6 -4v-121l-4 -6l4 -6v-164l-4 -6v-7h4l-4 -6v-4l4 -6q-6 -160 -14 -160l4 -6l-17 -164h7l-13 -32v-105l6 -6v-4h-6q31 -260 56 -260l-4 -4q10 -33 32 -33v4l4 -4h19q90 0 147 92l29 121h-6l6 6v39l-6 4l10 45l-4 4v84l-6 4l6 6v78l4 27 h-4l4 6l-10 88l6 17l-6 20l6 6l-6 6l6 6h-6l6 5v51l-6 20l6 6l-6 29v213l-6 6l6 4v6l-6 17l6 28v226l-6 104l12 33h33q47 0 55 -78l-6 -6q4 -43 10 -43l-4 -39v-88l-6 -4l6 -6v-23l-6 -6l6 -4v-29l-6 -4v-6h6l-6 -4v-6l6 -6l-6 -6v-5l6 -6l-6 -6v-65l6 -7v-4h-6l6 -16 l-6 -16h6l-6 -7v-12l6 -4l-6 -6v-4l6 -23l-6 -39l6 -110h4l-4 -4v-84l-6 -4l6 -6v-7l-6 -6l6 -4v-29l-6 -4l10 -51h-4l4 -4l-10 -154v-61l6 -4l-6 -6v-49q-35 -260 -94 -260q-37 -49 -121 -66q-137 0 -176 78q-33 80 -62 203l6 6v10l-6 6v4h6l-6 6v33q0 39 -10 62zM106 1569 v16l7 6l-7 6v11q1 16 62 32l4 -6l6 6q0 -16 17 -16q23 -23 22 -45q0 -20 -33 -43h-16l-6 6h-4l-6 -6q0 8 -46 33zM276 1569v16l7 6l-7 6v11q1 16 62 32l4 -6l6 6q0 -16 17 -16q23 -23 22 -45q0 -20 -33 -43h-16l-6 6h-4l-6 -6q0 8 -46 33z" />
<glyph unicode="&#xdd;" d="M0 1397l6 28h43l6 -6h6v6q31 0 82 -139q41 -70 50 -108q10 -2 61 -138l4 -6h6l6 29h-6q49 82 121 334h-4q19 55 37 55q66 -4 65 -45l-4 -4v-6l4 -4v-7q-70 -227 -147 -423l-6 -50v-12l6 -20l-6 -17l12 -88h-6l6 -6v-111l4 -36h-4l4 -7v-100l6 -20l-6 -7l16 -176l-4 -6 l11 -82h-7l7 -6v-14l-7 -6v-6h7l-7 -7v-16l7 -4v-6l-7 -6h7l-7 -4v-7l7 -16h-7q12 -37 13 -117l-33 -10h-16l-7 6l-6 -6h-6q-12 0 -26 154h6l-6 6v10l6 6l-6 6v23q0 82 -11 82l4 6l-10 69h6l-12 62h6l-10 59l4 6l-4 27v84l-6 4v6l6 6h-6l6 7v4l-6 16h6l-6 6v6l6 4l-12 62 l6 4l-10 74l4 4q0 86 -37 110q-55 166 -205 484zM215 1548q57 139 98 140h19l26 -29q0 -27 -16 -33q-76 -111 -88 -110h-16q-12 0 -23 32z" />
<glyph unicode="&#xde;" horiz-adv-x="1120" />
<glyph unicode="&#xdf;" horiz-adv-x="1251" />
<glyph unicode="&#xe0;" d="M0 61v17l6 6l-6 4v6q72 244 121 588l22 127h-6l13 27h-7l27 127l-4 6q10 0 33 186q39 268 55 297l53 16l29 -20l6 -23h-6q8 -66 16 -65l-6 -6v-6q12 -23 29 -232l10 -39h-4l65 -329h-6l49 -242h-6l23 -78h-4l65 -344q10 0 11 -41q0 -25 -33 -43h-6l-4 6l-19 -6 q-33 0 -53 143l-12 11l6 16l-11 35h5l-27 102h-6l6 19l-72 395q-133 -6 -133 -16q-37 -293 -76 -418h7q-55 -147 -72 -258h-45zM174 1669l29 29h16q41 0 98 -139q-10 -33 -20 -33h-16q-14 0 -88 110q-18 6 -19 33zM238 776h4l100 10l-12 50h6l-39 176h6q-8 45 -16 45l6 6v4 l-6 16h-6l-39 -252z" />
<glyph unicode="&#xe1;" d="M0 61v17l6 6l-6 4v6q72 244 121 588l22 127h-6l13 27h-7l27 127l-4 6q10 0 33 186q39 268 55 297l53 16l29 -20l6 -23h-6q8 -66 16 -65l-6 -6v-6q12 -23 29 -232l10 -39h-4l65 -329h-6l49 -242h-6l23 -78h-4l65 -344q10 0 11 -41q0 -25 -33 -43h-6l-4 6l-19 -6 q-33 0 -53 143l-12 11l6 16l-11 35h5l-27 102h-6l6 19l-72 395q-133 -6 -133 -16q-37 -293 -76 -418h7q-55 -147 -72 -258h-45zM238 776h4l100 10l-12 50h6l-39 176h6q-8 45 -16 45l6 6v4l-6 16h-6l-39 -252zM305 1548q57 139 98 140h19l27 -29q0 -27 -17 -33 q-76 -111 -88 -110h-16q-12 0 -23 32z" />
<glyph unicode="&#xe2;" d="M0 61v17l6 6l-6 4v6q72 244 121 588l22 127h-6l13 27h-7l27 127l-4 6q10 0 33 186q39 268 55 297l53 16l29 -20l6 -23h-6q8 -66 16 -65l-6 -6v-6q12 -23 29 -232l10 -39h-4l65 -329h-6l49 -242h-6l23 -78h-4l65 -344q10 0 11 -41q0 -25 -33 -43h-6l-4 6l-19 -6 q-33 0 -53 143l-12 11l6 16l-11 35h5l-27 102h-6l6 19l-72 395q-133 -6 -133 -16q-37 -293 -76 -418h7q-55 -147 -72 -258h-45zM92 1462v13q43 63 137 157l45 39l-6 6v11l29 12l4 -6h6l23 6l4 -6v6q55 -18 55 -49l82 -144h6l-6 -6l23 -55q-33 -12 -33 -23q-76 0 -88 78 q-47 86 -66 105l-153 -154l-29 -6q-33 6 -33 16zM238 776h4l100 10l-12 50h6l-39 176h6q-8 45 -16 45l6 6v4l-6 16h-6l-39 -252z" />
<glyph unicode="&#xe3;" d="M0 61v17l6 6l-6 4v6q72 244 121 588l22 127h-6l13 27h-7l27 127l-4 6q10 0 33 186q39 268 55 297l53 16l29 -20l6 -23h-6q8 -66 16 -65l-6 -6v-6q12 -23 29 -232l10 -39h-4l65 -329h-6l49 -242h-6l23 -78h-4l65 -344q10 0 11 -41q0 -25 -33 -43h-6l-4 6l-19 -6 q-33 0 -53 143l-12 11l6 16l-11 35h5l-27 102h-6l6 19l-72 395q-133 -6 -133 -16q-37 -293 -76 -418h7q-55 -147 -72 -258h-45zM104 1501v23q25 98 66 98l18 6v6l5 -6l28 6l23 -6l14 6q0 -12 45 -22q0 -16 16 -17q0 -16 33 -39v-4h6q43 0 43 60l29 6q23 0 55 -16v-27 q0 -47 -94 -78v4l-6 -4h-53q-47 14 -94 72l-17 10h-16l-23 -49l6 -17q-25 -23 -38 -22v6l-7 -6h-16zM238 776h4l100 10l-12 50h6l-39 176h6q-8 45 -16 45l6 6v4l-6 16h-6l-39 -252z" />
<glyph unicode="&#xe4;" d="M0 61v17l6 6l-6 4v6q72 244 121 588l22 127h-6l13 27h-7l27 127l-4 6q10 0 33 186q39 268 55 297l53 16l29 -20l6 -23h-6q8 -66 16 -65l-6 -6v-6q12 -23 29 -232l10 -39h-4l65 -329h-6l49 -242h-6l23 -78h-4l65 -344q10 0 11 -41q0 -25 -33 -43h-6l-4 6l-19 -6 q-33 0 -53 143l-12 11l6 16l-11 35h5l-27 102h-6l6 19l-72 395q-133 -6 -133 -16q-37 -293 -76 -418h7q-55 -147 -72 -258h-45zM158 1538v18l6 5l-6 6v12q0 15 59 33l6 -6l6 6q0 -18 17 -19q20 -23 20 -43q0 -23 -33 -45h-16l-4 6h-6l-6 -6q0 10 -43 33zM238 776h4l100 10 l-12 50h6l-39 176h6q-8 45 -16 45l6 6v4l-6 16h-6l-39 -252zM328 1538v18l6 5l-6 6v12q0 15 59 33l6 -6l6 6q0 -18 17 -19q20 -23 20 -43q0 -23 -33 -45h-16l-4 6h-6l-6 -6q0 10 -43 33z" />
<glyph unicode="&#xe5;" d="M0 61v17l6 6l-6 4v6q72 244 121 588l22 127h-6l13 27h-7l27 127l-4 6q10 0 33 186q39 268 55 297l53 16l29 -20l6 -23h-6q8 -66 16 -65l-6 -6v-6q12 -23 29 -232l10 -39h-4l65 -329h-6l49 -242h-6l23 -78h-4l65 -344q10 0 11 -41q0 -25 -33 -43h-6l-4 6l-19 -6 q-33 0 -53 143l-12 11l6 16l-11 35h5l-27 102h-6l6 19l-72 395q-133 -6 -133 -16q-37 -293 -76 -418h7q-55 -147 -72 -258h-45zM195 1618q16 131 88 131v4l6 -4h10l4 4l29 -10v6q47 -25 71 -66l-6 -6v-6q4 -49 13 -49l-13 -33h-6v-16q-10 -61 -59 -62h-43q-45 0 -84 62 q-4 45 -10 45zM238 776h4l100 10l-12 50h6l-39 176h6q-8 45 -16 45l6 6v4l-6 16h-6l-39 -252zM256 1612q0 -39 37 -39q49 0 49 33l6 16q0 78 -49 78h-16l-27 -39l4 -6v-4l-4 -6v-7h4l-4 -6v-20z" />
<glyph unicode="&#xe6;" horiz-adv-x="1454" />
<glyph unicode="&#xe7;" horiz-adv-x="581" d="M-10 864l10 13h-4l4 6v6l-4 4l4 27v116l6 4v7h-6l33 170h-4q66 178 141 198l68 17v-7l4 7h39l6 -7l6 7h10q55 0 111 -50v-12q-16 -27 -56 -27h-12q-25 33 -108 33q-80 0 -111 -104q-20 -43 -43 -180h4l-10 -45l6 -23v-16l-6 -4l6 -19l-6 -47l6 -6l-6 -27v-94l6 -6l-6 -6 v-4l10 -72l-4 -6l4 -6h-4l14 -82h-4q10 -20 10 -72h7l-7 -4l33 -195h-6l12 -36h-6l23 -66l-6 -6v-6q51 -170 133 -170h2l139 71h29l16 -16q0 -47 -88 -78q-10 -6 -18.5 -13t-18.5 -11q4 -6 6 -11.5t4 -11.5q2 -4 2 -10v-2l9 -35v-8v-29v-4l2 -2q4 -10 -2 -18v-11v-6v-4 q2 -2 0 -8l-4 -31q2 -6 0 -10v-8q0 -10 -3 -15l-12 -73q-10 -37 -44.5 -52.5t-63.5 -15.5q-12 -2 -21 0q-14 0 -31 8q-10 6 -22 17.5t-12 27.5q0 10 8 19l4 4q6 8 16 8h9q4 0 6 -1t6 -1l31 -16q12 0 23 6t17 14q0 6 3 8l2 11q0 4 2 6v8l8 41q-4 6 0 12q0 6 2 10v4l2 15v8 l2 12v6q0 6 2 9v14l-2 4v10v6v13v6l-2 6v8q-4 18 -5 24.5t-3 8.5v2q-16 -4 -23 -4q-147 0 -192 205q-35 147 -49 307h-7l7 4v6l-13 55l6 7l-20 153l4 29v33q0 43 -10 69z" />
<glyph unicode="&#xe8;" horiz-adv-x="487" d="M0 1337l33 11l-4 6v6q0 16 98 33q0 14 215 26v6l4 -6l29 6h6q8 0 33 -39v-6q-45 -16 -78 -16v-4l-6 4q-170 -14 -170 -27l-6 4q0 -12 -82 -20v-6h12l4 -23l-4 -6l10 -98h-6l6 -4v-51h33l27 6v-6q102 23 204 22l11 -10l16 -39h-4l-84 -16v6l-143 -23l-56 4h-4v-37l4 -6 l-4 -6v-4l4 -45l-4 -33h4l-4 -6v-4q0 -29 10 -29l-6 -6v-33l6 -4l-6 -6v-16l6 -6l-10 -56l4 -4l-10 -65l6 -6v-7q-10 -10 -10 -55h-6l6 -4v-6l-6 -6v-4l6 -19l-6 -4v-6l6 -16l-6 -17h6l-6 -6v-66l-6 -6l6 -4v-16l-6 -6l6 -6v-5l-6 -51l6 -14l-6 -6h6l-6 -6l6 -23l-6 -16 l6 -27l-6 -16l6 -6h-6l6 -7v-20l-6 -6v-6l6 -4h6l-6 -23q0 -80 39 -111q0 -18 53 -43l160 17h39q16 -6 16 -35v-14q-12 0 -27 -23l-32 10l-23 -6v6q-76 -16 -172 -16l-53 29l-23 20l-26 55l-6 17l6 6v4l-13 29h7l-17 121l4 6h-4l4 6v59l-4 6l4 4v7l-4 16h4l-4 6v4l4 6v7 l-4 16l4 4h-4l4 6v6l-4 29l10 197h-6l13 16l-7 6v23l7 4v6l-7 4h7l-7 6v23l7 6l-7 6v4l7 84h-7l7 4v6l-7 4v6l7 23l-7 4l7 6h-7l7 6l-7 39v76l-10 137l4 6l-4 27v84zM86 1669l27 29h16q41 0 98 -139q-10 -33 -20 -33h-17q-14 0 -88 110q-16 6 -16 33z" />
<glyph unicode="&#xe9;" horiz-adv-x="487" d="M0 1337l33 11l-4 6v6q0 16 98 33q0 14 215 26v6l4 -6l29 6h6q8 0 33 -39v-6q-45 -16 -78 -16v-4l-6 4q-170 -14 -170 -27l-6 4q0 -12 -82 -20v-6h12l4 -23l-4 -6l10 -98h-6l6 -4v-51h33l27 6v-6q102 23 204 22l11 -10l16 -39h-4l-84 -16v6l-143 -23l-56 4h-4v-37l4 -6 l-4 -6v-4l4 -45l-4 -33h4l-4 -6v-4q0 -29 10 -29l-6 -6v-33l6 -4l-6 -6v-16l6 -6l-10 -56l4 -4l-10 -65l6 -6v-7q-10 -10 -10 -55h-6l6 -4v-6l-6 -6v-4l6 -19l-6 -4v-6l6 -16l-6 -17h6l-6 -6v-66l-6 -6l6 -4v-16l-6 -6l6 -6v-5l-6 -51l6 -14l-6 -6h6l-6 -6l6 -23l-6 -16 l6 -27l-6 -16l6 -6h-6l6 -7v-20l-6 -6v-6l6 -4h6l-6 -23q0 -80 39 -111q0 -18 53 -43l160 17h39q16 -6 16 -35v-14q-12 0 -27 -23l-32 10l-23 -6v6q-76 -16 -172 -16l-53 29l-23 20l-26 55l-6 17l6 6v4l-13 29h7l-17 121l4 6h-4l4 6v59l-4 6l4 4v7l-4 16h4l-4 6v4l4 6v7 l-4 16l4 4h-4l4 6v6l-4 29l10 197h-6l13 16l-7 6v23l7 4v6l-7 4h7l-7 6v23l7 6l-7 6v4l7 84h-7l7 4v6l-7 4v6l7 23l-7 4l7 6h-7l7 6l-7 39v76l-10 137l4 6l-4 27v84zM166 1559q57 139 98 139h17l26 -29q0 -27 -14 -33q-76 -111 -88 -110h-19q-10 0 -20 33z" />
<glyph unicode="&#xea;" horiz-adv-x="487" d="M0 1337l33 11l-4 6v6q0 16 98 33q0 14 215 26v6l4 -6l29 6h6q8 0 33 -39v-6q-45 -16 -78 -16v-4l-6 4q-170 -14 -170 -27l-6 4q0 -12 -82 -20v-6h12l4 -23l-4 -6l10 -98h-6l6 -4v-51h33l27 6v-6q102 23 204 22l11 -10l16 -39h-4l-84 -16v6l-143 -23l-56 4h-4v-37l4 -6 l-4 -6v-4l4 -45l-4 -33h4l-4 -6v-4q0 -29 10 -29l-6 -6v-33l6 -4l-6 -6v-16l6 -6l-10 -56l4 -4l-10 -65l6 -6v-7q-10 -10 -10 -55h-6l6 -4v-6l-6 -6v-4l6 -19l-6 -4v-6l6 -16l-6 -17h6l-6 -6v-66l-6 -6l6 -4v-16l-6 -6l6 -6v-5l-6 -51l6 -14l-6 -6h6l-6 -6l6 -23l-6 -16 l6 -27l-6 -16l6 -6h-6l6 -7v-20l-6 -6v-6l6 -4h6l-6 -23q0 -80 39 -111q0 -18 53 -43l160 17h39q16 -6 16 -35v-14q-12 0 -27 -23l-32 10l-23 -6v6q-76 -16 -172 -16l-53 29l-23 20l-26 55l-6 17l6 6v4l-13 29h7l-17 121l4 6h-4l4 6v59l-4 6l4 4v7l-4 16h4l-4 6v4l4 6v7 l-4 16l4 4h-4l4 6v6l-4 29l10 197h-6l13 16l-7 6v23l7 4v6l-7 4h7l-7 6v23l7 6l-7 6v4l7 84h-7l7 4v6l-7 4v6l7 23l-7 4l7 6h-7l7 6l-7 39v76l-10 137l4 6l-4 27v84zM12 1503v10q43 66 138 160l45 39l-7 4v13l27 10l6 -4h6l23 4l4 -4v4q55 -18 55 -49l82 -144h6l-6 -6 l23 -53q-33 -14 -33 -23q-76 0 -88 76q-47 88 -66 107l-153 -154l-29 -6q-33 6 -33 16z" />
<glyph unicode="&#xeb;" horiz-adv-x="487" d="M0 1337l33 11l-4 6v6q0 16 98 33q0 14 215 26v6l4 -6l29 6h6q8 0 33 -39v-6q-45 -16 -78 -16v-4l-6 4q-170 -14 -170 -27l-6 4q0 -12 -82 -20v-6h12l4 -23l-4 -6l10 -98h-6l6 -4v-51h33l27 6v-6q102 23 204 22l11 -10l16 -39h-4l-84 -16v6l-143 -23l-56 4h-4v-37l4 -6 l-4 -6v-4l4 -45l-4 -33h4l-4 -6v-4q0 -29 10 -29l-6 -6v-33l6 -4l-6 -6v-16l6 -6l-10 -56l4 -4l-10 -65l6 -6v-7q-10 -10 -10 -55h-6l6 -4v-6l-6 -6v-4l6 -19l-6 -4v-6l6 -16l-6 -17h6l-6 -6v-66l-6 -6l6 -4v-16l-6 -6l6 -6v-5l-6 -51l6 -14l-6 -6h6l-6 -6l6 -23l-6 -16 l6 -27l-6 -16l6 -6h-6l6 -7v-20l-6 -6v-6l6 -4h6l-6 -23q0 -80 39 -111q0 -18 53 -43l160 17h39q16 -6 16 -35v-14q-12 0 -27 -23l-32 10l-23 -6v6q-76 -16 -172 -16l-53 29l-23 20l-26 55l-6 17l6 6v4l-13 29h7l-17 121l4 6h-4l4 6v59l-4 6l4 4v7l-4 16h4l-4 6v4l4 6v7 l-4 16l4 4h-4l4 6v6l-4 29l10 197h-6l13 16l-7 6v23l7 4v6l-7 4h7l-7 6v23l7 6l-7 6v4l7 84h-7l7 4v6l-7 4v6l7 23l-7 4l7 6h-7l7 6l-7 39v76l-10 137l4 6l-4 27v84zM68 1538v18l6 5l-6 6v12q0 15 59 33l6 -6l6 6q0 -18 17 -19q20 -23 20 -43q0 -23 -33 -45h-16l-4 6h-6 l-6 -6q0 10 -43 33zM238 1538v18l6 5l-6 6v12q0 15 61 33l4 -6l6 6q0 -18 17 -19q20 -23 20 -43q0 -23 -33 -45h-14l-6 6h-6l-6 -6q0 10 -43 33z" />
<glyph unicode="&#xec;" horiz-adv-x="231" d="M-55 1669l28 29h17q41 0 98 -139q-10 -33 -22 -33h-17q-12 0 -88 110q-16 6 -16 33zM0 1397q41 28 78 28h6l4 -18l-4 -4l4 -55v-33l6 -6v-4h-6l6 -7v-71l4 -6l-4 -4l4 -39v-62l6 -6l-6 -4l6 -29v-69l7 -7l-7 -6v-20l7 -6l-7 -6v-7l7 -16h-7l7 -16l-7 -23l7 -14l-7 -23h7 l-7 -6v-4l7 -45h-7l7 -16l10 -447l6 -4v-6l-6 -6q10 -53 10 -160v-4l6 -6v-6h-6l6 -4v-7q0 -16 -20 -39l10 -75q-16 0 -16 -19q-33 0 -45 -10q-33 0 -33 49h-4l4 6l-4 29v53l-6 6l10 88l-4 127h-6l6 4l-6 111v16l-7 27h7l-7 6v13l7 4l-7 6v6l7 4l-7 6v131l7 6l-7 7v65l-6 6 l6 4v45l-6 6l6 5v133l-6 20l6 23l-6 22h6l-6 6v154l-4 4l4 6l-4 39v88z" />
<glyph unicode="&#xed;" horiz-adv-x="210" d="M0 1397q41 28 78 28h6l4 -18l-4 -4l4 -55v-33l6 -6v-4h-6l6 -7v-71l4 -6l-4 -4l4 -39v-62l6 -6l-6 -4l6 -29v-69l7 -7l-7 -6v-20l7 -6l-7 -6v-7l7 -16h-7l7 -16l-7 -23l7 -14l-7 -23h7l-7 -6v-4l7 -45h-7l7 -16l10 -447l6 -4v-6l-6 -6q10 -53 10 -160v-4l6 -6v-6h-6l6 -4 v-7q0 -16 -20 -39l10 -75q-16 0 -16 -19q-33 0 -45 -10q-33 0 -33 49h-4l4 6l-4 29v53l-6 6l10 88l-4 127h-6l6 4l-6 111v16l-7 27h7l-7 6v13l7 4l-7 6v6l7 4l-7 6v131l7 6l-7 7v65l-6 6l6 4v45l-6 6l6 5v133l-6 20l6 23l-6 22h6l-6 6v154l-4 4l4 6l-4 39v88zM25 1559 q59 139 100 139h16l27 -29q0 -27 -16 -33q-74 -111 -89 -110h-16q-10 0 -22 33z" />
<glyph unicode="&#xee;" horiz-adv-x="344" d="M-8 1462v13q45 63 137 157l45 39l-6 6v11l29 12l4 -6h6l22 6l4 -6v6q55 -18 56 -49l84 -144h4l-4 -6l20 -55q-33 -12 -33 -23q-76 0 -88 78q-47 86 -65 105l-154 -154l-28 -6q-33 6 -33 16zM100 1397q41 28 76 28h6l6 -18l-6 -4l6 -55v-33l7 -6v-4h-7l7 -7v-71l4 -6 l-4 -4l4 -39v-62l6 -6l-6 -4l6 -29v-69l6 -7l-6 -6v-20l6 -6l-6 -6v-7l6 -16h-6l6 -16l-6 -23l6 -14l-6 -23h6l-6 -6v-4l6 -45h-6l6 -16l10 -447l6 -4v-6l-6 -6q10 -53 10 -160v-4l7 -6v-6h-7l7 -4v-7q0 -16 -23 -39l12 -75q-16 0 -16 -19q-35 0 -45 -10q-33 0 -33 49h-6 l6 6l-6 29v53l-4 6l10 88l-6 127h-4l4 4l-4 111v16l-6 27h6l-6 6v13l6 4l-6 6v6l6 4l-6 6v131l6 6l-6 7v65l-6 6l6 4v45l-6 6l6 5v133l-6 20l6 23l-6 22h6l-6 6v154l-5 4l5 6l-5 39v88z" />
<glyph unicode="&#xef;" horiz-adv-x="337" d="M16 1538v18l7 5l-7 6v12q1 15 62 33l6 -6l4 6q0 -18 16 -19q23 -23 23 -43q0 -23 -33 -45h-16l-6 6h-4l-7 -6q0 10 -45 33zM100 1397q41 28 76 28h6l6 -18l-6 -4l6 -55v-33l7 -6v-4h-7l7 -7v-71l4 -6l-4 -4l4 -39v-62l6 -6l-6 -4l6 -29v-69l6 -7l-6 -6v-20l6 -6l-6 -6v-7 l6 -16h-6l6 -16l-6 -23l6 -14l-6 -23h6l-6 -6v-4l6 -45h-6l6 -16l10 -447l6 -4v-6l-6 -6q10 -53 10 -160v-4l7 -6v-6h-7l7 -4v-7q0 -16 -23 -39l12 -75q-16 0 -16 -19q-35 0 -45 -10q-33 0 -33 49h-6l6 6l-6 29v53l-4 6l10 88l-6 127h-4l4 4l-4 111v16l-6 27h6l-6 6v13l6 4 l-6 6v6l6 4l-6 6v131l6 6l-6 7v65l-6 6l6 4v45l-6 6l6 5v133l-6 20l6 23l-6 22h6l-6 6v154l-5 4l5 6l-5 39v88zM186 1538v18l7 5l-7 6v12q1 15 62 33l6 -6l4 6q0 -18 16 -19q23 -23 23 -43q0 -23 -33 -45h-16l-6 6h-4l-7 -6q0 10 -45 33z" />
<glyph unicode="&#xf0;" horiz-adv-x="1138" />
<glyph unicode="&#xf1;" horiz-adv-x="555" d="M0 182l6 4h-6l6 7v77l-6 4l6 7l4 202v121l-4 35l4 4v6l-4 62l4 4l-4 28v111l-6 4l6 6v23l-6 4l6 6v72l4 6v4h-4l4 6v33l-4 22l4 23v37l6 6v4h-6l6 6v12l-6 5l13 65l-7 23l13 65h-6l6 6v62l4 6l-4 4v16l4 23l-4 22v5l26 28v-6l6 6h43q29 0 72 -303h6l-6 -4v-6 q10 0 43 -281l12 -22h-6l39 -164l-6 -6v-6l12 -27h-6q33 -109 33 -160h6v43l-6 6v7l6 20l-6 6l6 6h-6l6 4v84l-6 4l6 7v26l-6 6l6 7v16l-6 4l6 6l-6 29v26l6 7l-6 6v88l6 33l-6 4l6 39v61l-6 4l6 6v209l4 23l-4 20l4 6h-4l4 6v43l6 107l-6 14h6l-6 6v7q0 20 35 43 q45 0 66 -27v-55l-13 -66l6 -65l-6 -23l6 -6v-4l-6 -6v-6l6 -7l-6 -26v-43l6 -23l-6 -22l6 -6v-5l-6 -18h6l-6 -4v-62l-4 -55h4l-4 -4v-192l-6 -7l6 -6v-20l-6 -232h6l-6 -6v-43l6 -6v-4h-6l6 -6v-88l4 -39h-4l17 -98l-23 -177l6 -6h-6l6 -6v-26q-8 -23 -39 -23h-6l-27 6 l-6 -6l-26 78l6 6l-6 4h6l-29 150l-22 81h6l-105 447h-6l6 4v6l-26 115l4 6l-10 104h-7l-6 -94l-4 -6v-4l4 -6h-4l4 -4l6 -166v-154q0 -121 -10 -192h4l-4 -6v-76l-6 -6l6 -6l-6 -56v-20l-4 -6l4 -6v-62l-4 -4l4 -16l-4 -7l4 -26v-12l-4 -27l-6 4l-6 -4h-11q-55 6 -55 22z M31 1552v23q25 98 65 98l17 6v4l6 -4l26 4l23 -4l16 4q0 -10 43 -20q0 -16 19 -16q0 -18 33 -39v-6h4q45 0 45 61l26 4q25 0 56 -16v-27q0 -45 -95 -78v6l-4 -6h-55q-45 14 -94 72l-17 10h-16l-23 -49l7 -16q-25 -23 -39 -23v6l-4 -6h-19z" />
<glyph unicode="&#xf2;" d="M0 922l6 6v10l-6 6l6 4v6l-6 7q20 389 117 450q43 39 147 39h23l6 -6l4 6q61 0 137 -98h6l-6 -6l55 -127l-6 -7l19 -143l-6 -14l6 -19l-6 -4l6 -6h-6l6 -4v-133l-6 -6l6 -4v-117l4 -4l-4 -6v-154l4 -6v-6h-4l4 -4l-4 -29v-209l-6 -4v-6l6 -6l-6 -6h6l-13 -27l7 -6 q-16 -113 -62 -209q-111 -111 -241 -111q-88 0 -132 156l-18 115l6 6l-33 297l7 16h-7l7 4v6l-7 6l7 7l-13 98h6l-6 4v143l-4 39h4zM98 905l6 -6v-59l7 -6v-7h-7l7 -4v-94l6 -166h4l-4 -4l10 -78l-6 -6l22 -176h-6l6 -4v-43l7 -39h-7q0 -78 56 -166h10q41 0 137 78 q27 0 55 164l7 28l-7 5l7 28v4l-7 6l13 33l-6 17l6 16l-6 6l6 6h-6l6 17l-6 55l6 65l-6 115h-7l7 6v88l-7 27h7l-7 16l7 7v6l-7 6v4l7 33h-7l7 6v6l-7 4l7 6v6l-7 4l7 7v6l-7 33h7l-7 6v10h7q-10 176 -17 176l4 4q-10 102 -53 176q-45 68 -104 68h-7q-69 0 -104 -137h4 q-20 -37 -20 -117v-17l-7 -6l7 -4l-7 -28v-50l-6 -6l6 -4v-6l-6 -33h6l-6 -6v-33l6 -20l-6 -6v-6l6 -17h-6zM125 1669l29 29h16q41 0 98 -139q-12 -33 -22 -33h-17q-14 0 -88 110q-16 6 -16 33z" />
<glyph unicode="&#xf3;" d="M0 922l6 6v10l-6 6l6 4v6l-6 7q20 389 117 450q43 39 147 39h23l6 -6l4 6q61 0 137 -98h6l-6 -6l55 -127l-6 -7l19 -143l-6 -14l6 -19l-6 -4l6 -6h-6l6 -4v-133l-6 -6l6 -4v-117l4 -4l-4 -6v-154l4 -6v-6h-4l4 -4l-4 -29v-209l-6 -4v-6l6 -6l-6 -6h6l-13 -27l7 -6 q-16 -113 -62 -209q-111 -111 -241 -111q-88 0 -132 156l-18 115l6 6l-33 297l7 16h-7l7 4v6l-7 6l7 7l-13 98h6l-6 4v143l-4 39h4zM98 905l6 -6v-59l7 -6v-7h-7l7 -4v-94l6 -166h4l-4 -4l10 -78l-6 -6l22 -176h-6l6 -4v-43l7 -39h-7q0 -78 56 -166h10q41 0 137 78 q27 0 55 164l7 28l-7 5l7 28v4l-7 6l13 33l-6 17l6 16l-6 6l6 6h-6l6 17l-6 55l6 65l-6 115h-7l7 6v88l-7 27h7l-7 16l7 7v6l-7 6v4l7 33h-7l7 6v6l-7 4l7 6v6l-7 4l7 7v6l-7 33h7l-7 6v10h7q-10 176 -17 176l4 4q-10 102 -53 176q-45 68 -104 68h-7q-69 0 -104 -137h4 q-20 -37 -20 -117v-17l-7 -6l7 -4l-7 -28v-50l-6 -6l6 -4v-6l-6 -33h6l-6 -6v-33l6 -20l-6 -6v-6l6 -17h-6zM205 1559q57 139 98 139h19l26 -29q0 -27 -16 -33q-76 -111 -88 -110h-17q-12 0 -22 33z" />
<glyph unicode="&#xf4;" d="M0 922l6 6v10l-6 6l6 4v6l-6 7q20 389 117 450q43 39 147 39h23l6 -6l4 6q61 0 137 -98h6l-6 -6l55 -127l-6 -7l19 -143l-6 -14l6 -19l-6 -4l6 -6h-6l6 -4v-133l-6 -6l6 -4v-117l4 -4l-4 -6v-154l4 -6v-6h-4l4 -4l-4 -29v-209l-6 -4v-6l6 -6l-6 -6h6l-13 -27l7 -6 q-16 -113 -62 -209q-111 -111 -241 -111q-88 0 -132 156l-18 115l6 6l-33 297l7 16h-7l7 4v6l-7 6l7 7l-13 98h6l-6 4v143l-4 39h4zM61 1493v10q45 66 140 160l43 39l-6 4v12l28 11l4 -5h6l23 5l4 -5v5q55 -18 55 -50l84 -143h4l-4 -4l23 -55q-35 -14 -35 -23q-76 0 -88 78 q-45 86 -66 104l-153 -153l-29 -6q-33 6 -33 16zM98 905l6 -6v-59l7 -6v-7h-7l7 -4v-94l6 -166h4l-4 -4l10 -78l-6 -6l22 -176h-6l6 -4v-43l7 -39h-7q0 -78 56 -166h10q41 0 137 78q27 0 55 164l7 28l-7 5l7 28v4l-7 6l13 33l-6 17l6 16l-6 6l6 6h-6l6 17l-6 55l6 65l-6 115 h-7l7 6v88l-7 27h7l-7 16l7 7v6l-7 6v4l7 33h-7l7 6v6l-7 4l7 6v6l-7 4l7 7v6l-7 33h7l-7 6v10h7q-10 176 -17 176l4 4q-10 102 -53 176q-45 68 -104 68h-7q-69 0 -104 -137h4q-20 -37 -20 -117v-17l-7 -6l7 -4l-7 -28v-50l-6 -6l6 -4v-6l-6 -33h6l-6 -6v-33l6 -20l-6 -6v-6 l6 -17h-6z" />
<glyph unicode="&#xf5;" d="M0 922l6 6v10l-6 6l6 4v6l-6 7q20 389 117 450q43 39 147 39h23l6 -6l4 6q61 0 137 -98h6l-6 -6l55 -127l-6 -7l19 -143l-6 -14l6 -19l-6 -4l6 -6h-6l6 -4v-133l-6 -6l6 -4v-117l4 -4l-4 -6v-154l4 -6v-6h-4l4 -4l-4 -29v-209l-6 -4v-6l6 -6l-6 -6h6l-13 -27l7 -6 q-16 -113 -62 -209q-111 -111 -241 -111q-88 0 -132 156l-18 115l6 6l-33 297l7 16h-7l7 4v6l-7 6l7 7l-13 98h6l-6 4v143l-4 39h4zM66 1501v23q25 98 65 98l16 6v6l7 -6l26 6l23 -6l16 6q0 -12 43 -22q0 -16 19 -17q0 -16 32 -39v-4h4q45 0 45 60l27 6q25 0 55 -16v-27 q0 -47 -94 -78v4l-4 -4h-55q-45 14 -94 72l-17 10h-16l-23 -49l6 -17q-25 -23 -38 -22v6l-5 -6h-18zM98 905l6 -6v-59l7 -6v-7h-7l7 -4v-94l6 -166h4l-4 -4l10 -78l-6 -6l22 -176h-6l6 -4v-43l7 -39h-7q0 -78 56 -166h10q41 0 137 78q27 0 55 164l7 28l-7 5l7 28v4l-7 6 l13 33l-6 17l6 16l-6 6l6 6h-6l6 17l-6 55l6 65l-6 115h-7l7 6v88l-7 27h7l-7 16l7 7v6l-7 6v4l7 33h-7l7 6v6l-7 4l7 6v6l-7 4l7 7v6l-7 33h7l-7 6v10h7q-10 176 -17 176l4 4q-10 102 -53 176q-45 68 -104 68h-7q-69 0 -104 -137h4q-20 -37 -20 -117v-17l-7 -6l7 -4l-7 -28 v-50l-6 -6l6 -4v-6l-6 -33h6l-6 -6v-33l6 -20l-6 -6v-6l6 -17h-6z" />
<glyph unicode="&#xf6;" d="M0 922l6 6v10l-6 6l6 4v6l-6 7q20 389 117 450q43 39 147 39h23l6 -6l4 6q61 0 137 -98h6l-6 -6l55 -127l-6 -7l19 -143l-6 -14l6 -19l-6 -4l6 -6h-6l6 -4v-133l-6 -6l6 -4v-117l4 -4l-4 -6v-154l4 -6v-6h-4l4 -4l-4 -29v-209l-6 -4v-6l6 -6l-6 -6h6l-13 -27l7 -6 q-16 -113 -62 -209q-111 -111 -241 -111q-88 0 -132 156l-18 115l6 6l-33 297l7 16h-7l7 4v6l-7 6l7 7l-13 98h6l-6 4v143l-4 39h4zM98 905l6 -6v-59l7 -6v-7h-7l7 -4v-94l6 -166h4l-4 -4l10 -78l-6 -6l22 -176h-6l6 -4v-43l7 -39h-7q0 -78 56 -166h10q41 0 137 78 q27 0 55 164l7 28l-7 5l7 28v4l-7 6l13 33l-6 17l6 16l-6 6l6 6h-6l6 17l-6 55l6 65l-6 115h-7l7 6v88l-7 27h7l-7 16l7 7v6l-7 6v4l7 33h-7l7 6v6l-7 4l7 6v6l-7 4l7 7v6l-7 33h7l-7 6v10h7q-10 176 -17 176l4 4q-10 102 -53 176q-45 68 -104 68h-7q-69 0 -104 -137h4 q-20 -37 -20 -117v-17l-7 -6l7 -4l-7 -28v-50l-6 -6l6 -4v-6l-6 -33h6l-6 -6v-33l6 -20l-6 -6v-6l6 -17h-6zM106 1538v18l7 5l-7 6v12q1 15 62 33l4 -6l6 6q0 -18 17 -19q23 -23 22 -43q0 -23 -33 -45h-16l-6 6h-4l-6 -6q0 10 -46 33zM276 1538v18l7 5l-7 6v12q1 15 62 33 l4 -6l6 6q0 -18 17 -19q23 -23 22 -43q0 -23 -33 -45h-16l-6 6h-4l-6 -6q0 10 -46 33z" />
<glyph unicode="&#xf7;" horiz-adv-x="733" d="M-8 647q6 23 28 23l197 6l16 6v-6l7 6h6l6 -6h4l330 39l28 -62q0 -14 -270 -39v-4l-4 4h-6l-238 -10l-33 -6q-66 8 -65 45zM252 829q0 17 33 33l4 -6q23 -2 22 -27l17 -6v-32q-76 0 -76 38zM262 483v17l17 16v6h26l17 -16h-5q6 -29 23 -29v-10l-18 -16h-5q-33 0 -55 32z " />
<glyph unicode="&#xf8;" horiz-adv-x="1009" />
<glyph unicode="&#xf9;" horiz-adv-x="583" d="M0 408h6l-6 6v10l6 4v6l-6 6l6 6h-6l6 5v12l-6 6v4l6 6h-6l10 37l-4 6v6l17 160l-7 4l7 6h6l-6 7q10 45 10 120v6l-4 5l4 6v88l6 6v4h-6l6 6v6l-6 23l6 4v6l-6 23l6 4v6h-6l6 6v4l-6 45h6l-6 17l6 6v4l-6 6l6 39v153l-6 7l6 4v12l-6 33l6 6l-10 108l43 23l55 -23l-6 -6 v-14l6 -6l-6 -6q10 -82 10 -248h6l-6 -4v-121l-4 -6l4 -6v-164l-4 -6v-7h4l-4 -6v-4l4 -6q-6 -160 -14 -160l4 -6l-17 -164h7l-13 -32v-105l6 -6v-4h-6q31 -260 56 -260l-4 -4q10 -33 32 -33v4l4 -4h19q90 0 147 92l29 121h-6l6 6v39l-6 4l10 45l-4 4v84l-6 4l6 6v78l4 27 h-4l4 6l-10 88l6 17l-6 20l6 6l-6 6l6 6h-6l6 5v51l-6 20l6 6l-6 29v213l-6 6l6 4v6l-6 17l6 28v226l-6 104l12 33h33q47 0 55 -78l-6 -6q4 -43 10 -43l-4 -39v-88l-6 -4l6 -6v-23l-6 -6l6 -4v-29l-6 -4v-6h6l-6 -4v-6l6 -6l-6 -6v-5l6 -6l-6 -6v-65l6 -7v-4h-6l6 -16 l-6 -16h6l-6 -7v-12l6 -4l-6 -6v-4l6 -23l-6 -39l6 -110h4l-4 -4v-84l-6 -4l6 -6v-7l-6 -6l6 -4v-29l-6 -4l10 -51h-4l4 -4l-10 -154v-61l6 -4l-6 -6v-49q-35 -260 -94 -260q-37 -49 -121 -66q-137 0 -176 78q-33 80 -62 203l6 6v10l-6 6v4h6l-6 6v33q0 39 -10 62zM145 1669 l27 29h16q41 0 101 -139q-12 -33 -23 -33h-16q-14 0 -88 110q-16 6 -17 33z" />
<glyph unicode="&#xfa;" horiz-adv-x="583" d="M0 408h6l-6 6v10l6 4v6l-6 6l6 6h-6l6 5v12l-6 6v4l6 6h-6l10 37l-4 6v6l17 160l-7 4l7 6h6l-6 7q10 45 10 120v6l-4 5l4 6v88l6 6v4h-6l6 6v6l-6 23l6 4v6l-6 23l6 4v6h-6l6 6v4l-6 45h6l-6 17l6 6v4l-6 6l6 39v153l-6 7l6 4v12l-6 33l6 6l-10 108l43 23l55 -23l-6 -6 v-14l6 -6l-6 -6q10 -82 10 -248h6l-6 -4v-121l-4 -6l4 -6v-164l-4 -6v-7h4l-4 -6v-4l4 -6q-6 -160 -14 -160l4 -6l-17 -164h7l-13 -32v-105l6 -6v-4h-6q31 -260 56 -260l-4 -4q10 -33 32 -33v4l4 -4h19q90 0 147 92l29 121h-6l6 6v39l-6 4l10 45l-4 4v84l-6 4l6 6v78l4 27 h-4l4 6l-10 88l6 17l-6 20l6 6l-6 6l6 6h-6l6 5v51l-6 20l6 6l-6 29v213l-6 6l6 4v6l-6 17l6 28v226l-6 104l12 33h33q47 0 55 -78l-6 -6q4 -43 10 -43l-4 -39v-88l-6 -4l6 -6v-23l-6 -6l6 -4v-29l-6 -4v-6h6l-6 -4v-6l6 -6l-6 -6v-5l6 -6l-6 -6v-65l6 -7v-4h-6l6 -16 l-6 -16h6l-6 -7v-12l6 -4l-6 -6v-4l6 -23l-6 -39l6 -110h4l-4 -4v-84l-6 -4l6 -6v-7l-6 -6l6 -4v-29l-6 -4l10 -51h-4l4 -4l-10 -154v-61l6 -4l-6 -6v-49q-35 -260 -94 -260q-37 -49 -121 -66q-137 0 -176 78q-33 80 -62 203l6 6v10l-6 6v4h6l-6 6v33q0 39 -10 62zM205 1559 q57 139 98 139h19l26 -29q0 -27 -16 -33q-76 -111 -88 -110h-17q-12 0 -22 33z" />
<glyph unicode="&#xfb;" horiz-adv-x="583" d="M0 408h6l-6 6v10l6 4v6l-6 6l6 6h-6l6 5v12l-6 6v4l6 6h-6l10 37l-4 6v6l17 160l-7 4l7 6h6l-6 7q10 45 10 120v6l-4 5l4 6v88l6 6v4h-6l6 6v6l-6 23l6 4v6l-6 23l6 4v6h-6l6 6v4l-6 45h6l-6 17l6 6v4l-6 6l6 39v153l-6 7l6 4v12l-6 33l6 6l-10 108l43 23l55 -23l-6 -6 v-14l6 -6l-6 -6q10 -82 10 -248h6l-6 -4v-121l-4 -6l4 -6v-164l-4 -6v-7h4l-4 -6v-4l4 -6q-6 -160 -14 -160l4 -6l-17 -164h7l-13 -32v-105l6 -6v-4h-6q31 -260 56 -260l-4 -4q10 -33 32 -33v4l4 -4h19q90 0 147 92l29 121h-6l6 6v39l-6 4l10 45l-4 4v84l-6 4l6 6v78l4 27 h-4l4 6l-10 88l6 17l-6 20l6 6l-6 6l6 6h-6l6 5v51l-6 20l6 6l-6 29v213l-6 6l6 4v6l-6 17l6 28v226l-6 104l12 33h33q47 0 55 -78l-6 -6q4 -43 10 -43l-4 -39v-88l-6 -4l6 -6v-23l-6 -6l6 -4v-29l-6 -4v-6h6l-6 -4v-6l6 -6l-6 -6v-5l6 -6l-6 -6v-65l6 -7v-4h-6l6 -16 l-6 -16h6l-6 -7v-12l6 -4l-6 -6v-4l6 -23l-6 -39l6 -110h4l-4 -4v-84l-6 -4l6 -6v-7l-6 -6l6 -4v-29l-6 -4l10 -51h-4l4 -4l-10 -154v-61l6 -4l-6 -6v-49q-35 -260 -94 -260q-37 -49 -121 -66q-137 0 -176 78q-33 80 -62 203l6 6v10l-6 6v4h6l-6 6v33q0 39 -10 62zM57 1563 v12q43 63 138 158l45 39l-7 6v10l27 10l6 -4h6l23 4l4 -4v4q55 -16 55 -49l82 -141h6l-6 -6l23 -56q-33 -12 -33 -22q-76 0 -88 78q-47 86 -66 104l-153 -154l-29 -6q-33 6 -33 17z" />
<glyph unicode="&#xfc;" horiz-adv-x="583" d="M0 408h6l-6 6v10l6 4v6l-6 6l6 6h-6l6 5v12l-6 6v4l6 6h-6l10 37l-4 6v6l17 160l-7 4l7 6h6l-6 7q10 45 10 120v6l-4 5l4 6v88l6 6v4h-6l6 6v6l-6 23l6 4v6l-6 23l6 4v6h-6l6 6v4l-6 45h6l-6 17l6 6v4l-6 6l6 39v153l-6 7l6 4v12l-6 33l6 6l-10 108l43 23l55 -23l-6 -6 v-14l6 -6l-6 -6q10 -82 10 -248h6l-6 -4v-121l-4 -6l4 -6v-164l-4 -6v-7h4l-4 -6v-4l4 -6q-6 -160 -14 -160l4 -6l-17 -164h7l-13 -32v-105l6 -6v-4h-6q31 -260 56 -260l-4 -4q10 -33 32 -33v4l4 -4h19q90 0 147 92l29 121h-6l6 6v39l-6 4l10 45l-4 4v84l-6 4l6 6v78l4 27 h-4l4 6l-10 88l6 17l-6 20l6 6l-6 6l6 6h-6l6 5v51l-6 20l6 6l-6 29v213l-6 6l6 4v6l-6 17l6 28v226l-6 104l12 33h33q47 0 55 -78l-6 -6q4 -43 10 -43l-4 -39v-88l-6 -4l6 -6v-23l-6 -6l6 -4v-29l-6 -4v-6h6l-6 -4v-6l6 -6l-6 -6v-5l6 -6l-6 -6v-65l6 -7v-4h-6l6 -16 l-6 -16h6l-6 -7v-12l6 -4l-6 -6v-4l6 -23l-6 -39l6 -110h4l-4 -4v-84l-6 -4l6 -6v-7l-6 -6l6 -4v-29l-6 -4l10 -51h-4l4 -4l-10 -154v-61l6 -4l-6 -6v-49q-35 -260 -94 -260q-37 -49 -121 -66q-137 0 -176 78q-33 80 -62 203l6 6v10l-6 6v4h6l-6 6v33q0 39 -10 62zM106 1569 v16l7 6l-7 6v11q1 16 62 32l4 -6l6 6q0 -16 17 -16q23 -23 22 -45q0 -20 -33 -43h-16l-6 6h-4l-6 -6q0 8 -46 33zM276 1569v16l7 6l-7 6v11q1 16 62 32l4 -6l6 6q0 -16 17 -16q23 -23 22 -45q0 -20 -33 -43h-16l-6 6h-4l-6 -6q0 8 -46 33z" />
<glyph unicode="&#xfd;" d="M0 1397l6 28h43l6 -6h6v6q31 0 82 -139q41 -70 50 -108q10 -2 61 -138l4 -6h6l6 29h-6q49 82 121 334h-4q19 55 37 55q66 -4 65 -45l-4 -4v-6l4 -4v-7q-70 -227 -147 -423l-6 -50v-12l6 -20l-6 -17l12 -88h-6l6 -6v-111l4 -36h-4l4 -7v-100l6 -20l-6 -7l16 -176l-4 -6 l11 -82h-7l7 -6v-14l-7 -6v-6h7l-7 -7v-16l7 -4v-6l-7 -6h7l-7 -4v-7l7 -16h-7q12 -37 13 -117l-33 -10h-16l-7 6l-6 -6h-6q-12 0 -26 154h6l-6 6v10l6 6l-6 6v23q0 82 -11 82l4 6l-10 69h6l-12 62h6l-10 59l4 6l-4 27v84l-6 4v6l6 6h-6l6 7v4l-6 16h6l-6 6v6l6 4l-12 62 l6 4l-10 74l4 4q0 86 -37 110q-55 166 -205 484zM215 1548q57 139 98 140h19l26 -29q0 -27 -16 -33q-76 -111 -88 -110h-16q-12 0 -23 32z" />
<glyph unicode="&#xfe;" horiz-adv-x="1009" />
<glyph unicode="&#xff;" d="M0 1397l6 28h43l6 -6h6v6q31 0 82 -139q41 -70 50 -108q10 -2 61 -138l4 -6h6l6 29h-6q49 82 121 334h-4q19 55 37 55q66 -4 65 -45l-4 -4v-6l4 -4v-7q-70 -227 -147 -423l-6 -50v-12l6 -20l-6 -17l12 -88h-6l6 -6v-111l4 -36h-4l4 -7v-100l6 -20l-6 -7l16 -176l-4 -6 l11 -82h-7l7 -6v-14l-7 -6v-6h7l-7 -7v-16l7 -4v-6l-7 -6h7l-7 -4v-7l7 -16h-7q12 -37 13 -117l-33 -10h-16l-7 6l-6 -6h-6q-12 0 -26 154h6l-6 6v10l6 6l-6 6v23q0 82 -11 82l4 6l-10 69h6l-12 62h6l-10 59l4 6l-4 27v84l-6 4v6l6 6h-6l6 7v4l-6 16h6l-6 6v6l6 4l-12 62 l6 4l-10 74l4 4q0 86 -37 110q-55 166 -205 484zM106 1569v16l7 6l-7 6v11q1 16 62 32l4 -6l6 6q0 -16 17 -16q23 -23 22 -45q0 -20 -33 -43h-16l-6 6h-4l-6 -6q0 8 -46 33zM276 1569v16l7 6l-7 6v11q1 16 62 32l4 -6l6 6q0 -16 17 -16q23 -23 22 -45q0 -20 -33 -43h-16 l-6 6h-4l-6 -6q0 8 -46 33z" />
<glyph unicode="&#x2c6;" horiz-adv-x="636" d="M51 1313v10q45 66 139 160l43 39l-6 6v10l29 10l4 -4h6l23 4l6 -4v4q53 -16 53 -49l84 -141h4l-4 -6l23 -56q-33 -14 -33 -22q-78 0 -88 78q-47 86 -68 104l-153 -153l-27 -7q-35 6 -35 17z" />
<glyph unicode="&#x2dc;" d="M104 1372v23q25 98 66 98l18 6v4l5 -4l28 4l23 -4l14 4q0 -10 45 -20q0 -16 16 -17q0 -18 33 -39v-6h6q43 0 43 62l29 6q23 0 55 -19v-26q0 -45 -94 -78v6l-6 -6h-53q-47 14 -94 72l-17 12h-16l-23 -49l6 -19q-25 -20 -38 -20v4l-7 -4h-16z" />
<glyph unicode="&#x2000;" horiz-adv-x="899" />
<glyph unicode="&#x2001;" horiz-adv-x="1798" />
<glyph unicode="&#x2002;" horiz-adv-x="899" />
<glyph unicode="&#x2003;" horiz-adv-x="1798" />
<glyph unicode="&#x2004;" horiz-adv-x="599" />
<glyph unicode="&#x2005;" horiz-adv-x="449" />
<glyph unicode="&#x2006;" horiz-adv-x="299" />
<glyph unicode="&#x2007;" horiz-adv-x="299" />
<glyph unicode="&#x2008;" horiz-adv-x="224" />
<glyph unicode="&#x2009;" horiz-adv-x="359" />
<glyph unicode="&#x200a;" horiz-adv-x="99" />
<glyph unicode="&#x2010;" horiz-adv-x="659" d="M76 592v6q10 0 20 14l68 -4h39l4 4h6v-4l82 17v-7l143 23h49q10 -2 39 -49v-6l-12 -11l-14 5l-183 -23v6q-68 -16 -153 -16h-35l-33 10l-4 -4q-16 20 -16 39z" />
<glyph unicode="&#x2011;" horiz-adv-x="659" d="M76 592v6q10 0 20 14l68 -4h39l4 4h6v-4l82 17v-7l143 23h49q10 -2 39 -49v-6l-12 -11l-14 5l-183 -23v6q-68 -16 -153 -16h-35l-33 10l-4 -4q-16 20 -16 39z" />
<glyph unicode="&#x2012;" horiz-adv-x="659" d="M76 592v6q10 0 20 14l68 -4h39l4 4h6v-4l82 17v-7l143 23h49q10 -2 39 -49v-6l-12 -11l-14 5l-183 -23v6q-68 -16 -153 -16h-35l-33 10l-4 -4q-16 20 -16 39z" />
<glyph unicode="&#x2013;" horiz-adv-x="808" d="M104 608q6 20 25 19l176 -6l14 4v-7l5 7l6 -2l4 -5h6l291 15l20 -53q0 -12 -237 -21l-2 -4l-4 4h-5l-208 4l-29 -2q-59 10 -55 41z" />
<glyph unicode="&#x2014;" horiz-adv-x="935" d="M90 602q8 18 35 16l235 -6l21 4v-4l6 4h6l6 -6h9l395 17l28 -56q-2 -12 -323 -18v-4l-6 4h-8l-283 4l-39 -2q-80 8 -76 41z" />
<glyph unicode="&#x2018;" horiz-adv-x="292" d="M12 1339q2 94 33 95q0 16 78 36q33 0 33 -49q-18 0 -62 -49q45 0 62 -65l-13 -13l7 -4q-12 0 -27 -22l-23 -6q-88 25 -88 77z" />
<glyph unicode="&#x2019;" horiz-adv-x="292" d="M12 1313q18 0 62 49q-47 0 -62 65l11 11l-5 6q12 0 27 22l23 4q88 -23 88 -75q-4 -94 -33 -95q0 -15 -78 -38q-33 0 -33 51z" />
<glyph unicode="&#x201a;" horiz-adv-x="292" d="M12 -20q18 0 62 49q-47 0 -62 65l11 10l-5 7q12 0 27 22l23 4q88 -23 88 -76q-4 -94 -33 -94q0 -16 -78 -39q-33 0 -33 52z" />
<glyph unicode="&#x201c;" horiz-adv-x="397" d="M6 1376q0 43 35 72l4 16l6 -6q43 35 66 35t28 -23h-6l6 -6v-12q-25 -20 -39 -53q29 0 56 -88l-6 -6q-12 -27 -29 -27v-12h-27q-63 0 -94 110zM162 1354q2 94 33 94q-1 16 75 39q33 0 33 -49q-16 0 -59 -52q45 0 59 -65l-10 -10l6 -6q-12 0 -29 -23l-20 -4q-88 23 -88 76z " />
<glyph unicode="&#x201d;" horiz-adv-x="397" d="M0 1415q0 54 49 60l6 -5v5q31 -8 76 -66l29 -66v-32q-33 -49 -76 -56v7l-35 -13l-16 17q6 25 33 61l-5 4l11 12v7q0 33 -56 43l-6 6zM150 1432q28 61 59 61q88 -31 88 -84q10 0 10 -39h6l-10 -16l4 -4v-7q0 -49 -49 -88q-33 0 -33 -12q-33 12 -32 23q27 76 26 110v6 l-59 33z" />
<glyph unicode="&#x201e;" horiz-adv-x="397" d="M0 59q0 54 49 60l6 -4v4q31 -8 76 -66l29 -65v-33q-33 -49 -76 -55v6l-35 -12l-16 16q6 25 33 61l-5 4l11 13v6q0 33 -56 43l-6 6zM150 76q28 59 59 59q88 -29 88 -82q10 0 10 -39h6l-10 -16l4 -4v-6q0 -49 -49 -88q-33 0 -33 -13q-33 12 -32 23q27 76 26 110v7l-59 32z " />
<glyph unicode="&#x2022;" horiz-adv-x="493" d="M176 903v23l8 6l-8 8v14q0 20 80 43l6 -8l8 8q0 -23 21 -22q29 -31 28 -57q0 -27 -43 -58h-20l-8 8h-6l-9 -8q0 12 -57 43z" />
<glyph unicode="&#x2026;" horiz-adv-x="636" d="M4 20v19l6 4l-6 6v10q1 17 62 33l6 -6l6 6q0 -16 14 -16q23 -23 23 -43q0 -23 -33 -45h-16l-7 6h-4l-6 -6q0 10 -45 32zM205 20v19l6 4l-6 6v10q0 17 61 33l4 -6l6 6q0 -16 17 -16q23 -23 22 -43q0 -23 -32 -45h-17l-6 6h-4l-6 -6q0 10 -45 32zM406 20v19l6 4l-6 6v10 q0 17 61 33l4 -6l6 6q0 -16 17 -16q20 -23 20 -43q0 -23 -33 -45h-14l-6 6h-6l-6 -6q0 10 -43 32z" />
<glyph unicode="&#x202f;" horiz-adv-x="359" />
<glyph unicode="&#x2039;" horiz-adv-x="479" d="M51 471v12q0 20 45 56l131 108q82 88 107 88v-4q43 -43 43 -61q-68 -49 -127 -111q-82 -68 -82 -82q109 -43 186 -115l13 -16v-22l-19 -17h-33q-94 74 -235 144l-23 16z" />
<glyph unicode="&#x203a;" horiz-adv-x="487" d="M31 709v4l26 28q55 -16 105 -65l192 -121q29 -16 29 -41l-199 -190q0 -33 -45 -39q-66 6 -65 49l209 186q0 16 -115 88q-123 74 -137 101z" />
<glyph unicode="&#x205f;" horiz-adv-x="449" />
<glyph unicode="&#x20ac;" horiz-adv-x="718" d="M-41 567q12 49 55 49v-6l6 6h13l4 -6l6 6h33v11h6l-6 28v33l6 27l-35 -4l-4 4h-6l-4 -4h-6q-47 10 -56 37v12q0 25 82 39l6 -6h23v65l4 6l-4 4q0 123 72 310l55 82q74 78 164 104l147 29h19q43 -25 55 -52l-19 -16h-16q-37 0 -131 -27q-127 -39 -205 -208 q-43 -152 -43 -277v-10h23l39 6v-6l4 6h6l4 -6l41 6h59l6 -6h5l6 6q14 -29 33 -29l6 -55h-17l-55 6l-33 -6v6l-55 -10l-6 4h-43l-29 -4l6 -6l-6 -4v-88h127l6 -7l4 7h6l7 -7l26 7q43 0 56 -29v-16q0 -27 -33 -39l-17 6l-22 -6l-4 6l-29 -6h-65l-39 6l-7 -6v6l-16 -6v-4l6 -7 l-6 -6v-20l6 -6l-6 -7v-20l6 -23l-6 -18l6 -4l-6 -6l6 -4h-6l12 -45h-6l6 -17l-6 -6q0 -115 43 -192q0 -51 176 -76v6l7 -6l137 20l6 -4h6l16 4v-4l11 -16v-39q0 -14 -154 -39l-6 6h-4l-6 -6h-6l-23 6l-16 -6l-17 6v-6q-20 10 -59 10h-6q0 14 -66 29q-82 47 -110 147 q0 29 -11 45h4l-16 72h6l-6 4v74q0 53 -10 53l6 6v76l-6 6l6 6v11l-72 -11q-51 29 -51 39z" />
<glyph unicode="&#x2122;" horiz-adv-x="1497" />
<glyph unicode="&#xe000;" horiz-adv-x="1413" d="M0 0v1413h1413v-1413h-1413z" />
</font>
</defs>
</svg>
